{
.appVersion = "1192";
customParameters = (
{
name = glyphOrder;
value = (
.notdef,
space,
uniE901,
uniE903,
uniE904,
uniE905,
uniE915,
uniE918,
uniF08A,
uniE910,
uniE914,
uniF08B,
uniF090,
uniF091,
uniF092,
uniF093,
uniE95C,
uniF094,
uniE933,
uniE95D,
uniF096,
uniF572,
uniF570,
uniE937,
uniE934,
uniE939,
uniE938,
uniF59B,
uniF5A1,
uniE959,
uniE954,
uniF5A5,
uniF5A6,
uniF963,
uniF962,
uniF5A9,
uniF5AA,
uniF569,
uniF56A,
uniF56D,
uniF56E,
uniE9F2,
uniE9F1,
uniE9F3,
uniE9F4,
uniE9F5,
uniE9F6,
uniE9F7,
uniE9F8,
uniF0A1,
uniE9E0,
uniE9E5,
uniE262,
uniE030,
uniE043,
uniEA02,
uniE1FC,
uniE4C0,
uniE4C1,
uniEA00,
uniE8E4,
uniE8E5,
uniF0A0,
uniF0A6,
uniF0A7,
uniF0A2,
uniF0A8,
uniE1F3,
uniF0A9,
uniF0B0,
uniF0B1,
uniF0A4,
uniF0B3,
uniE1F5,
uniF0B4,
uniF0B2,
uniF0B5,
uniE934_uniE93E,
uniE934_uniE93F,
uniE938_uniE94B,
uniE938_uniE94C,
uniE934_uniE93F,
uniE934_uniE93E,
uniE938_uniE94B,
uniE938_uniE94C,
uniE938_uniE94A,
uniE938_uniE949,
uniE911,
uniE939_uniE93E,
uniE939_uniE93F,
uniE939_uniE949,
uniE939_uniE94A,
uniE939_uniE94B,
uniE939_uniE94C
);
}
);
date = "2018-02-06 14:33:21 +0000";
designer = "Beatriz Pascual Sánchez. David Rizo Valero";
disablesNiceNames = 1;
familyName = PatriarcaMensuralMuRET;
fontMaster = (
{
alignmentZones = (
"{0, 0}"
);
ascender = 2012;
capHeight = 475;
descender = -2012;
id = "02376AAC-77FF-49DA-9399-294AF7A35492";
weightValue = 400;
widthValue = 5;
xHeight = 275;
}
);
glyphs = (
{
glyphname = uniE901;
lastChange = "2019-03-27 08:27:39 +0000";
layers = (
{
layerId = "02376AAC-77FF-49DA-9399-294AF7A35492";
paths = (
{
closed = 1;
nodes = (
"534 92 OFFCURVE",
"531 108 OFFCURVE",
"526 126 CURVE",
"522 145 OFFCURVE",
"512 164 OFFCURVE",
"499 183 CURVE SMOOTH",
"486 203 OFFCURVE",
"465 220 OFFCURVE",
"438 233 CURVE SMOOTH",
"410 247 OFFCURVE",
"377 252 OFFCURVE",
"341 252 CURVE SMOOTH",
"312 252 OFFCURVE",
"288 246 OFFCURVE",
"263 236 CURVE",
"262 292 OFFCURVE",
"262 346 OFFCURVE",
"261 396 CURVE SMOOTH",
"260 448 OFFCURVE",
"258 485 OFFCURVE",
"258 509 CURVE",
"256 534 OFFCURVE",
"256 546 OFFCURVE",
"256 545 CURVE",
"265 562 LINE",
"269 573 OFFCURVE",
"276 586 OFFCURVE",
"285 606 CURVE SMOOTH",
"294 626 OFFCURVE",
"304 646 OFFCURVE",
"316 668 CURVE",
"326 692 OFFCURVE",
"338 717 OFFCURVE",
"349 746 CURVE SMOOTH",
"359 772 OFFCURVE",
"369 798 OFFCURVE",
"378 824 CURVE SMOOTH",
"387 849 OFFCURVE",
"393 876 OFFCURVE",
"400 900 CURVE SMOOTH",
"407 924 OFFCURVE",
"408 947 OFFCURVE",
"409 965 CURVE SMOOTH",
"411 1007 OFFCURVE",
"402 1042 OFFCURVE",
"386 1071 CURVE SMOOTH",
"370 1100 OFFCURVE",
"348 1116 OFFCURVE",
"318 1116 CURVE SMOOTH",
"298 1116 OFFCURVE",
"270 1096 OFFCURVE",
"236 1060 CURVE SMOOTH",
"200 1021 OFFCURVE",
"182 993 OFFCURVE",
"182 971 CURVE SMOOTH",
"182 969 OFFCURVE",
"182 936 OFFCURVE",
"180 867 CURVE SMOOTH",
"178 801 OFFCURVE",
"178 727 OFFCURVE",
"177 648 CURVE SMOOTH",
"176 570 OFFCURVE",
"175 516 OFFCURVE",
"175 486 CURVE SMOOTH",
"175 485 OFFCURVE",
"173 480 OFFCURVE",
"168 471 CURVE",
"163 462 OFFCURVE",
"154 451 OFFCURVE",
"148 437 CURVE",
"141 423 OFFCURVE",
"130 405 OFFCURVE",
"120 386 CURVE SMOOTH",
"109 366 OFFCURVE",
"98 345 OFFCURVE",
"88 325 CURVE SMOOTH",
"77 303 OFFCURVE",
"66 281 OFFCURVE",
"55 257 CURVE SMOOTH",
"44 234 OFFCURVE",
"35 210 OFFCURVE",
"28 187 CURVE",
"19 166 OFFCURVE",
"12 145 OFFCURVE",
"7 123 CURVE SMOOTH",
"2 102 OFFCURVE",
"0 85 OFFCURVE",
"0 68 CURVE SMOOTH",
"0 -12 OFFCURVE",
"18 -78 OFFCURVE",
"55 -129 CURVE SMOOTH",
"91 -179 OFFCURVE",
"143 -210 OFFCURVE",
"206 -222 CURVE",
"223 -401 OFFCURVE",
"228 -551 OFFCURVE",
"223 -668 CURVE SMOOTH",
"218 -784 OFFCURVE",
"191 -843 OFFCURVE",
"148 -843 CURVE SMOOTH",
"139 -843 OFFCURVE",
"133 -839 OFFCURVE",
"128 -834 CURVE",
"124 -829 OFFCURVE",
"123 -822 OFFCURVE",
"124 -813 CURVE SMOOTH",
"128 -786 LINE SMOOTH",
"129 -777 OFFCURVE",
"133 -769 OFFCURVE",
"136 -759 CURVE",
"137 -748 OFFCURVE",
"139 -741 OFFCURVE",
"139 -736 CURVE SMOOTH",
"139 -719 OFFCURVE",
"126 -723 OFFCURVE",
"105 -748 CURVE SMOOTH",
"76 -782 OFFCURVE",
"62 -810 OFFCURVE",
"62 -834 CURVE SMOOTH",
"62 -901 OFFCURVE",
"82 -934 OFFCURVE",
"127 -934 CURVE SMOOTH",
"143 -934 OFFCURVE",
"161 -929 OFFCURVE",
"179 -918 CURVE",
"194 -908 OFFCURVE",
"212 -894 OFFCURVE",
"228 -874 CURVE SMOOTH",
"244 -855 OFFCURVE",
"257 -825 OFFCURVE",
"267 -788 CURVE SMOOTH",
"277 -750 OFFCURVE",
"281 -706 OFFCURVE",
"283 -654 CURVE SMOOTH",
"285 -609 OFFCURVE",
"279 -466 OFFCURVE",
"275 -224 CURVE",
"349 -220 OFFCURVE",
"409 -189 OFFCURVE",
"460 -134 CURVE SMOOTH",
"512 -78 OFFCURVE",
"534 -7 OFFCURVE",
"534 76 CURVE SMOOTH"
);
},
{
closed = 1;
nodes = (
"285 1062 OFFCURVE",
"293 1057 OFFCURVE",
"304 1049 CURVE SMOOTH",
"314 1042 OFFCURVE",
"323 1029 OFFCURVE",
"333 1011 CURVE",
"343 994 OFFCURVE",
"348 974 OFFCURVE",
"350 951 CURVE SMOOTH",
"353 918 OFFCURVE",
"345 876 OFFCURVE",
"331 824 CURVE SMOOTH",
"317 771 OFFCURVE",
"299 727 OFFCURVE",
"283 690 CURVE SMOOTH",
"268 654 OFFCURVE",
"259 636 OFFCURVE",
"254 636 CURVE",
"250 635 OFFCURVE",
"243 686 OFFCURVE",
"239 789 CURVE SMOOTH",
"235 891 OFFCURVE",
"228 957 OFFCURVE",
"228 986 CURVE SMOOTH",
"228 997 OFFCURVE",
"236 1011 OFFCURVE",
"250 1032 CURVE",
"265 1051 OFFCURVE",
"273 1062 OFFCURVE",
"278 1062 CURVE SMOOTH"
);
},
{
closed = 1;
nodes = (
"68 139 OFFCURVE",
"80 196 OFFCURVE",
"102 259 CURVE SMOOTH",
"124 322 OFFCURVE",
"150 382 OFFCURVE",
"180 438 CURVE",
"180 320 LINE SMOOTH",
"180 255 OFFCURVE",
"182 205 OFFCURVE",
"183 175 CURVE",
"163 148 OFFCURVE",
"149 121 OFFCURVE",
"141 92 CURVE SMOOTH",
"133 63 OFFCURVE",
"127 42 OFFCURVE",
"127 29 CURVE",
"148 66 OFFCURVE",
"167 93 OFFCURVE",
"185 109 CURVE",
"190 23 OFFCURVE",
"196 -59 OFFCURVE",
"201 -137 CURVE",
"163 -120 OFFCURVE",
"132 -94 OFFCURVE",
"106 -57 CURVE SMOOTH",
"81 -21 OFFCURVE",
"68 29 OFFCURVE",
"68 91 CURVE SMOOTH"
);
},
{
closed = 1;
nodes = (
"272 -154 LINE",
"267 29 OFFCURVE",
"266 128 OFFCURVE",
"265 148 CURVE",
"269 148 OFFCURVE",
"276 149 OFFCURVE",
"287 148 CURVE SMOOTH",
"334 144 OFFCURVE",
"376 135 OFFCURVE",
"409 106 CURVE SMOOTH",
"443 77 OFFCURVE",
"460 46 OFFCURVE",
"460 8 CURVE SMOOTH",
"460 -43 OFFCURVE",
"444 -80 OFFCURVE",
"413 -111 CURVE SMOOTH",
"384 -140 OFFCURVE",
"339 -154 OFFCURVE",
"283 -154 CURVE SMOOTH"
);
}
);
width = 534;
}
);
note = uniE050;
unicode = E901;
},
{
glyphname = uniE903;
lastChange = "2019-03-27 08:27:58 +0000";
layers = (
{
layerId = "02376AAC-77FF-49DA-9399-294AF7A35492";
paths = (
{
closed = 1;
nodes = (
"146 8 LINE",
"146 7 OFFCURVE",
"146 7 OFFCURVE",
"145 6 CURVE",
"144 6 OFFCURVE",
"143 5 OFFCURVE",
"142 4 CURVE SMOOTH",
"141 3 OFFCURVE",
"139 2 OFFCURVE",
"138 1 CURVE",
"136 0 OFFCURVE",
"133 -1 OFFCURVE",
"130 -2 CURVE",
"118 -5 LINE SMOOTH",
"114 -6 OFFCURVE",
"109 -6 OFFCURVE",
"102 -7 CURVE",
"81 -7 LINE SMOOTH",
"66 -7 OFFCURVE",
"55 0 OFFCURVE",
"46 14 CURVE SMOOTH",
"31 37 OFFCURVE",
"32 63 OFFCURVE",
"46 91 CURVE SMOOTH",
"67 132 OFFCURVE",
"109 153 OFFCURVE",
"173 153 CURVE SMOOTH",
"216 153 OFFCURVE",
"256 136 OFFCURVE",
"291 102 CURVE SMOOTH",
"326 68 OFFCURVE",
"343 23 OFFCURVE",
"343 -33 CURVE SMOOTH",
"343 -74 OFFCURVE",
"331 -131 OFFCURVE",
"306 -203 CURVE SMOOTH",
"281 -275 OFFCURVE",
"253 -342 OFFCURVE",
"224 -405 CURVE SMOOTH",
"195 -468 OFFCURVE",
"167 -523 OFFCURVE",
"142 -574 CURVE SMOOTH",
"117 -624 OFFCURVE",
"104 -651 OFFCURVE",
"104 -654 CURVE SMOOTH",
"104 -659 LINE",
"104 -665 LINE",
"103 -670 LINE",
"102 -671 OFFCURVE",
"102 -672 OFFCURVE",
"103 -673 CURVE",
"103 -674 OFFCURVE",
"103 -674 OFFCURVE",
"104 -674 CURVE SMOOTH",
"106 -674 OFFCURVE",
"113 -665 OFFCURVE",
"126 -646 CURVE",
"138 -627 OFFCURVE",
"153 -601 OFFCURVE",
"171 -569 CURVE",
"188 -536 OFFCURVE",
"208 -500 OFFCURVE",
"229 -459 CURVE SMOOTH",
"250 -418 OFFCURVE",
"270 -375 OFFCURVE",
"291 -329 CURVE SMOOTH",
"312 -282 OFFCURVE",
"331 -237 OFFCURVE",
"348 -194 CURVE SMOOTH",
"365 -151 OFFCURVE",
"378 -109 OFFCURVE",
"389 -68 CURVE SMOOTH",
"400 -27 OFFCURVE",
"405 7 OFFCURVE",
"405 34 CURVE SMOOTH",
"405 58 OFFCURVE",
"402 81 OFFCURVE",
"395 104 CURVE SMOOTH",
"388 127 OFFCURVE",
"377 148 OFFCURVE",
"364 167 CURVE",
"350 186 OFFCURVE",
"331 202 OFFCURVE",
"307 214 CURVE",
"282 225 OFFCURVE",
"254 231 OFFCURVE",
"223 231 CURVE SMOOTH",
"164 231 OFFCURVE",
"113 211 OFFCURVE",
"68 170 CURVE SMOOTH",
"23 129 OFFCURVE",
"0 83 OFFCURVE",
"0 32 CURVE SMOOTH",
"0 17 OFFCURVE",
"1 4 OFFCURVE",
"3 -7 CURVE",
"4 -18 OFFCURVE",
"7 -29 OFFCURVE",
"12 -40 CURVE",
"16 -51 OFFCURVE",
"23 -60 OFFCURVE",
"33 -66 CURVE SMOOTH",
"43 -72 OFFCURVE",
"55 -75 OFFCURVE",
"70 -75 CURVE SMOOTH",
"82 -75 OFFCURVE",
"93 -72 OFFCURVE",
"102 -67 CURVE SMOOTH",
"111 -62 OFFCURVE",
"119 -55 OFFCURVE",
"124 -48 CURVE",
"129 -40 OFFCURVE",
"134 -32 OFFCURVE",
"138 -24 CURVE",
"141 -15 OFFCURVE",
"144 -9 OFFCURVE",
"145 -4 CURVE SMOOTH",
"146 1 OFFCURVE",
"146 5 OFFCURVE",
"146 7 CURVE SMOOTH"
);
}
);
width = 405;
}
);
note = uniE062;
unicode = E903;
},
{
glyphname = uniE904;
lastChange = "2019-03-25 18:44:14 +0000";
layers = (
{
layerId = "02376AAC-77FF-49DA-9399-294AF7A35492";
paths = (
{
closed = 1;
nodes = (
"363 173 OFFCURVE",
"354 168 OFFCURVE",
"339 151 CURVE SMOOTH",
"323 136 OFFCURVE",
"312 128 OFFCURVE",
"312 128 CURVE SMOOTH",
"312 111 OFFCURVE",
"312 91 OFFCURVE",
"312 66 CURVE",
"292 86 OFFCURVE",
"258 97 OFFCURVE",
"210 97 CURVE SMOOTH",
"196 97 OFFCURVE",
"182 94 OFFCURVE",
"166 86 CURVE SMOOTH",
"152 80 OFFCURVE",
"136 75 OFFCURVE",
"127 67 CURVE",
"115 61 OFFCURVE",
"105 55 OFFCURVE",
"98 47 CURVE SMOOTH",
"90 39 OFFCURVE",
"84 39 OFFCURVE",
"82 39 CURVE",
"56 17 LINE",
"57 41 OFFCURVE",
"56 84 OFFCURVE",
"56 109 CURVE SMOOTH",
"56 167 LINE SMOOTH",
"56 178 OFFCURVE",
"56 184 OFFCURVE",
"54 184 CURVE SMOOTH",
"54 184 OFFCURVE",
"45 176 OFFCURVE",
"28 162 CURVE SMOOTH",
"12 147 OFFCURVE",
"3 137 OFFCURVE",
"3 137 CURVE",
"1 115 LINE",
"1 63 LINE SMOOTH",
"1 39 OFFCURVE",
"0 17 OFFCURVE",
"0 -11 CURVE SMOOTH",
"0 -90 LINE",
"0 -160 LINE",
"0 -213 LINE SMOOTH",
"0 -227 OFFCURVE",
"0 -233 OFFCURVE",
"1 -233 CURVE SMOOTH",
"3 -233 OFFCURVE",
"12 -228 OFFCURVE",
"24 -217 CURVE",
"40 -207 OFFCURVE",
"49 -202 OFFCURVE",
"49 -200 CURVE SMOOTH",
"49 -171 OFFCURVE",
"49 -138 OFFCURVE",
"51 -98 CURVE",
"54 -101 LINE",
"59 -105 OFFCURVE",
"63 -113 OFFCURVE",
"71 -118 CURVE",
"79 -123 OFFCURVE",
"88 -129 OFFCURVE",
"102 -132 CURVE",
"115 -135 OFFCURVE",
"127 -137 OFFCURVE",
"146 -137 CURVE SMOOTH",
"177 -137 OFFCURVE",
"208 -129 OFFCURVE",
"239 -116 CURVE SMOOTH",
"272 -102 OFFCURVE",
"295 -84 OFFCURVE",
"311 -62 CURVE",
"311 -291 LINE SMOOTH",
"311 -401 OFFCURVE",
"309 -480 OFFCURVE",
"311 -536 CURVE SMOOTH",
"312 -591 OFFCURVE",
"311 -617 OFFCURVE",
"312 -617 CURVE SMOOTH",
"312 -617 OFFCURVE",
"322 -612 OFFCURVE",
"337 -603 CURVE SMOOTH",
"351 -592 OFFCURVE",
"359 -584 OFFCURVE",
"359 -584 CURVE SMOOTH",
"360 -541 LINE SMOOTH",
"362 -514 OFFCURVE",
"360 -476 OFFCURVE",
"362 -432 CURVE SMOOTH",
"363 -387 OFFCURVE",
"362 -339 OFFCURVE",
"363 -284 CURVE SMOOTH",
"365 -230 OFFCURVE",
"363 -177 OFFCURVE",
"365 -123 CURVE SMOOTH",
"367 -70 OFFCURVE",
"367 -20 OFFCURVE",
"367 25 CURVE SMOOTH",
"367 133 LINE SMOOTH",
"367 161 OFFCURVE",
"367 173 OFFCURVE",
"365 173 CURVE SMOOTH"
);
},
{
closed = 1;
nodes = (
"147 -81 OFFCURVE",
"124 -73 OFFCURVE",
"112 -60 CURVE SMOOTH",
"96 -49 OFFCURVE",
"90 -32 OFFCURVE",
"90 -17 CURVE SMOOTH",
"90 -1 OFFCURVE",
"102 16 OFFCURVE",
"121 27 CURVE SMOOTH",
"144 38 OFFCURVE",
"166 44 OFFCURVE",
"196 44 CURVE SMOOTH",
"222 44 OFFCURVE",
"247 38 OFFCURVE",
"266 22 CURVE SMOOTH",
"286 5 OFFCURVE",
"297 -7 OFFCURVE",
"297 -23 CURVE SMOOTH",
"297 -40 OFFCURVE",
"284 -54 OFFCURVE",
"258 -65 CURVE SMOOTH",
"233 -77 OFFCURVE",
"206 -81 OFFCURVE",
"177 -81 CURVE SMOOTH"
);
},
{
closed = 1;
nodes = (
"651 -9 OFFCURVE",
"591 -7 OFFCURVE",
"514 -37 CURVE",
"438 -65 OFFCURVE",
"409 -113 OFFCURVE",
"410 -149 CURVE",
"410 -205 OFFCURVE",
"419 -563 OFFCURVE",
"427 -561 CURVE",
"435 -561 OFFCURVE",
"472 -544 OFFCURVE",
"477 -527 CURVE",
"480 -516 OFFCURVE",
"466 -273 OFFCURVE",
"463 -199 CURVE",
"496 -207 OFFCURVE",
"541 -203 OFFCURVE",
"603 -179 CURVE",
"696 -140 OFFCURVE",
"713 -70 OFFCURVE",
"679 -35 CURVE"
);
},
{
closed = 1;
nodes = (
"519 -186 OFFCURVE",
"479 -175 OFFCURVE",
"463 -147 CURVE",
"451 -126 OFFCURVE",
"472 -87 OFFCURVE",
"514 -65 CURVE",
"563 -37 OFFCURVE",
"608 -40 OFFCURVE",
"629 -62 CURVE",
"661 -98 OFFCURVE",
"629 -140 OFFCURVE",
"572 -163 CURVE"
);
},
{
closed = 1;
nodes = (
"668 126 OFFCURVE",
"667 145 OFFCURVE",
"664 179 CURVE SMOOTH",
"661 213 OFFCURVE",
"657 260 OFFCURVE",
"653 316 CURVE SMOOTH",
"648 372 OFFCURVE",
"643 423 OFFCURVE",
"639 478 CURVE SMOOTH",
"634 529 OFFCURVE",
"631 574 OFFCURVE",
"628 613 CURVE SMOOTH",
"625 652 OFFCURVE",
"622 672 OFFCURVE",
"622 672 CURVE SMOOTH",
"622 678 OFFCURVE",
"617 692 OFFCURVE",
"609 711 CURVE",
"600 730 OFFCURVE",
"594 739 OFFCURVE",
"589 739 CURVE SMOOTH",
"584 739 OFFCURVE",
"589 650 OFFCURVE",
"594 473 CURVE SMOOTH",
"601 210 LINE",
"601 210 OFFCURVE",
"594 213 OFFCURVE",
"581 221 CURVE SMOOTH",
"569 229 OFFCURVE",
"550 237 OFFCURVE",
"527 241 CURVE SMOOTH",
"502 246 OFFCURVE",
"482 251 OFFCURVE",
"457 249 CURVE SMOOTH",
"440 248 OFFCURVE",
"426 240 OFFCURVE",
"416 226 CURVE SMOOTH",
"405 209 OFFCURVE",
"398 189 OFFCURVE",
"401 162 CURVE SMOOTH",
"404 139 OFFCURVE",
"412 117 OFFCURVE",
"427 97 CURVE SMOOTH",
"443 75 OFFCURVE",
"461 58 OFFCURVE",
"483 44 CURVE SMOOTH",
"503 31 OFFCURVE",
"527 22 OFFCURVE",
"549 16 CURVE SMOOTH",
"569 10 OFFCURVE",
"587 7 OFFCURVE",
"601 7 CURVE SMOOTH",
"623 7 OFFCURVE",
"639 13 OFFCURVE",
"648 22 CURVE",
"657 28 OFFCURVE",
"664 42 OFFCURVE",
"667 56 CURVE SMOOTH",
"670 72 OFFCURVE",
"670 94 OFFCURVE",
"668 123 CURVE"
);
},
{
closed = 1;
nodes = (
"542 215 OFFCURVE",
"566 206 OFFCURVE",
"591 184 CURVE SMOOTH",
"617 162 OFFCURVE",
"629 136 OFFCURVE",
"629 114 CURVE SMOOTH",
"629 95 OFFCURVE",
"628 77 OFFCURVE",
"617 58 CURVE SMOOTH",
"608 41 OFFCURVE",
"594 33 OFFCURVE",
"578 31 CURVE SMOOTH",
"558 30 OFFCURVE",
"533 41 OFFCURVE",
"505 63 CURVE SMOOTH",
"475 86 OFFCURVE",
"463 111 OFFCURVE",
"461 139 CURVE SMOOTH",
"460 161 OFFCURVE",
"465 178 OFFCURVE",
"475 192 CURVE SMOOTH",
"486 207 OFFCURVE",
"503 215 OFFCURVE",
"525 215 CURVE SMOOTH"
);
}
);
width = 695;
}
);
unicode = E904;
},
{
glyphname = uniE905;
lastChange = "2019-03-27 09:47:40 +0000";
layers = (
{
layerId = "02376AAC-77FF-49DA-9399-294AF7A35492";
paths = (
{
closed = 1;
nodes = (
"369 503 LINE",
"310 461 LINE",
"311 458 LINE",
"311 448 LINE",
"311 433 LINE SMOOTH",
"311 427 OFFCURVE",
"311 420 OFFCURVE",
"312 413 CURVE",
"312 388 LINE SMOOTH",
"312 379 OFFCURVE",
"312 369 OFFCURVE",
"313 358 CURVE",
"313 324 LINE",
"313 286 LINE",
"313 246 LINE",
"300 246 OFFCURVE",
"257 248 OFFCURVE",
"183 251 CURVE SMOOTH",
"108 254 OFFCURVE",
"67 256 OFFCURVE",
"58 256 CURVE",
"58 503 LINE",
"0 461 LINE",
"1 461 OFFCURVE",
"3 317 OFFCURVE",
"4 28 CURVE SMOOTH",
"5 -261 OFFCURVE",
"6 -432 OFFCURVE",
"6 -486 CURVE",
"7 -486 OFFCURVE",
"8 -486 OFFCURVE",
"9 -485 CURVE SMOOTH",
"10 -484 OFFCURVE",
"12 -483 OFFCURVE",
"13 -482 CURVE SMOOTH",
"14 -481 OFFCURVE",
"17 -479 OFFCURVE",
"22 -476 CURVE",
"26 -472 OFFCURVE",
"31 -467 OFFCURVE",
"38 -462 CURVE",
"44 -456 OFFCURVE",
"51 -450 OFFCURVE",
"58 -443 CURVE",
"58 -226 LINE",
"62 -226 OFFCURVE",
"104 -228 OFFCURVE",
"185 -233 CURVE SMOOTH",
"266 -238 OFFCURVE",
"309 -239 OFFCURVE",
"315 -239 CURVE",
"315 -258 OFFCURVE",
"315 -277 OFFCURVE",
"316 -297 CURVE",
"316 -350 LINE SMOOTH",
"316 -365 OFFCURVE",
"316 -380 OFFCURVE",
"317 -395 CURVE",
"317 -433 LINE",
"317 -461 LINE",
"317 -480 LINE",
"317 -486 LINE",
"318 -486 OFFCURVE",
"318 -486 OFFCURVE",
"319 -485 CURVE",
"321 -484 OFFCURVE",
"323 -483 OFFCURVE",
"324 -482 CURVE SMOOTH",
"325 -481 OFFCURVE",
"327 -479 OFFCURVE",
"330 -477 CURVE",
"333 -474 OFFCURVE",
"336 -472 OFFCURVE",
"339 -469 CURVE SMOOTH",
"342 -466 OFFCURVE",
"347 -463 OFFCURVE",
"352 -458 CURVE SMOOTH",
"357 -453 OFFCURVE",
"363 -448 OFFCURVE",
"369 -443 CURVE"
);
},
{
closed = 1;
nodes = (
"58 82 LINE",
"61 82 OFFCURVE",
"101 80 OFFCURVE",
"180 76 CURVE SMOOTH",
"258 72 OFFCURVE",
"303 70 OFFCURVE",
"314 70 CURVE",
"315 39 OFFCURVE",
"315 -6 OFFCURVE",
"315 -65 CURVE",
"304 -65 OFFCURVE",
"261 -63 OFFCURVE",
"186 -60 CURVE SMOOTH",
"110 -57 OFFCURVE",
"67 -55 OFFCURVE",
"58 -55 CURVE"
);
},
{
closed = 1;
nodes = (
"313 176 OFFCURVE",
"313 169 OFFCURVE",
"314 158 CURVE",
"314 134 LINE",
"298 135 OFFCURVE",
"255 137 OFFCURVE",
"186 140 CURVE SMOOTH",
"117 143 OFFCURVE",
"74 144 OFFCURVE",
"58 144 CURVE",
"58 194 LINE",
"61 194 OFFCURVE",
"101 192 OFFCURVE",
"178 188 CURVE SMOOTH",
"255 184 OFFCURVE",
"300 181 OFFCURVE",
"313 181 CURVE"
);
},
{
closed = 1;
nodes = (
"58 -118 LINE",
"61 -118 OFFCURVE",
"103 -120 OFFCURVE",
"183 -124 CURVE SMOOTH",
"263 -128 OFFCURVE",
"307 -130 OFFCURVE",
"315 -130 CURVE",
"315 -174 LINE",
"299 -174 OFFCURVE",
"255 -173 OFFCURVE",
"184 -170 CURVE SMOOTH",
"113 -167 OFFCURVE",
"71 -165 OFFCURVE",
"58 -164 CURVE"
);
}
);
width = 369;
}
);
note = uniE060;
unicode = E905;
},
{
glyphname = uniE915;
lastChange = "2019-03-27 08:28:15 +0000";
layers = (
{
layerId = "02376AAC-77FF-49DA-9399-294AF7A35492";
paths = (
{
closed = 1;
nodes = (
"415 223 LINE",
"406 225 LINE",
"400 228 OFFCURVE",
"394 229 OFFCURVE",
"385 231 CURVE",
"375 233 OFFCURVE",
"365 235 OFFCURVE",
"354 239 CURVE",
"343 240 OFFCURVE",
"330 243 OFFCURVE",
"315 244 CURVE SMOOTH",
"299 245 OFFCURVE",
"285 245 OFFCURVE",
"270 245 CURVE SMOOTH",
"205 245 OFFCURVE",
"143 219 OFFCURVE",
"86 166 CURVE SMOOTH",
"27 111 OFFCURVE",
"0 49 OFFCURVE",
"0 -22 CURVE SMOOTH",
"0 -96 OFFCURVE",
"22 -153 OFFCURVE",
"64 -194 CURVE SMOOTH",
"106 -235 OFFCURVE",
"156 -254 OFFCURVE",
"216 -254 CURVE SMOOTH",
"276 -254 OFFCURVE",
"327 -242 OFFCURVE",
"368 -218 CURVE SMOOTH",
"409 -193 OFFCURVE",
"428 -171 OFFCURVE",
"428 -153 CURVE",
"427 -150 OFFCURVE",
"427 -149 OFFCURVE",
"427 -149 CURVE SMOOTH",
"426 -149 OFFCURVE",
"425 -150 OFFCURVE",
"420 -153 CURVE",
"416 -154 OFFCURVE",
"413 -158 OFFCURVE",
"409 -162 CURVE",
"405 -164 OFFCURVE",
"397 -168 OFFCURVE",
"389 -171 CURVE SMOOTH",
"380 -176 OFFCURVE",
"373 -179 OFFCURVE",
"363 -183 CURVE",
"353 -185 OFFCURVE",
"341 -189 OFFCURVE",
"327 -191 CURVE",
"313 -192 OFFCURVE",
"297 -194 OFFCURVE",
"280 -194 CURVE SMOOTH",
"247 -194 OFFCURVE",
"215 -187 OFFCURVE",
"185 -173 CURVE SMOOTH",
"154 -159 OFFCURVE",
"128 -137 OFFCURVE",
"108 -107 CURVE SMOOTH",
"88 -77 OFFCURVE",
"77 -42 OFFCURVE",
"77 -1 CURVE SMOOTH",
"77 37 OFFCURVE",
"84 71 OFFCURVE",
"95 99 CURVE SMOOTH",
"106 126 OFFCURVE",
"122 147 OFFCURVE",
"139 161 CURVE",
"158 173 OFFCURVE",
"179 185 OFFCURVE",
"200 192 CURVE SMOOTH",
"222 199 OFFCURVE",
"245 202 OFFCURVE",
"269 202 CURVE",
"294 201 OFFCURVE",
"316 199 OFFCURVE",
"334 198 CURVE SMOOTH",
"353 197 OFFCURVE",
"370 193 OFFCURVE",
"388 191 CURVE SMOOTH",
"404 189 OFFCURVE",
"413 187 OFFCURVE",
"415 187 CURVE"
);
}
);
width = 428;
}
);
note = uniE08A;
unicode = E915;
},
{
glyphname = uniE918;
lastChange = "2019-03-27 08:28:24 +0000";
layers = (
{
layerId = "02376AAC-77FF-49DA-9399-294AF7A35492";
paths = (
{
closed = 1;
nodes = (
"157 -147 OFFCURVE",
"127 -127 OFFCURVE",
"103 -96 CURVE SMOOTH",
"79 -66 OFFCURVE",
"67 -27 OFFCURVE",
"67 19 CURVE SMOOTH",
"67 127 OFFCURVE",
"110 190 OFFCURVE",
"194 206 CURVE",
"194 205 OFFCURVE",
"194 83 OFFCURVE",
"193 -159 CURVE"
);
},
{
closed = 1;
nodes = (
"358 230 LINE",
"345 235 LINE",
"335 239 OFFCURVE",
"321 242 OFFCURVE",
"304 245 CURVE SMOOTH",
"287 248 OFFCURVE",
"270 250 OFFCURVE",
"253 252 CURVE",
"257 594 OFFCURVE",
"257 765 OFFCURVE",
"252 765 CURVE SMOOTH",
"248 765 OFFCURVE",
"226 731 OFFCURVE",
"186 663 CURVE SMOOTH",
"145 593 OFFCURVE",
"123 558 OFFCURVE",
"123 553 CURVE SMOOTH",
"123 550 OFFCURVE",
"135 558 OFFCURVE",
"159 580 CURVE",
"177 599 OFFCURVE",
"189 608 OFFCURVE",
"191 608 CURVE SMOOTH",
"196 608 OFFCURVE",
"198 487 OFFCURVE",
"196 249 CURVE",
"143 237 OFFCURVE",
"98 206 OFFCURVE",
"59 159 CURVE SMOOTH",
"20 112 OFFCURVE",
"0 58 OFFCURVE",
"0 -3 CURVE SMOOTH",
"0 -73 OFFCURVE",
"18 -129 OFFCURVE",
"55 -168 CURVE SMOOTH",
"91 -206 OFFCURVE",
"135 -225 OFFCURVE",
"187 -225 CURVE SMOOTH",
"191 -225 LINE",
"191 -423 LINE SMOOTH",
"191 -491 OFFCURVE",
"189 -545 OFFCURVE",
"189 -584 CURVE",
"187 -623 OFFCURVE",
"187 -643 OFFCURVE",
"187 -648 CURVE SMOOTH",
"187 -672 OFFCURVE",
"186 -689 OFFCURVE",
"181 -699 CURVE",
"176 -707 OFFCURVE",
"167 -712 OFFCURVE",
"154 -712 CURVE SMOOTH",
"149 -712 OFFCURVE",
"143 -711 OFFCURVE",
"138 -707 CURVE SMOOTH",
"133 -703 OFFCURVE",
"132 -699 OFFCURVE",
"130 -694 CURVE SMOOTH",
"128 -689 OFFCURVE",
"127 -682 OFFCURVE",
"127 -677 CURVE",
"125 -672 OFFCURVE",
"125 -667 OFFCURVE",
"125 -663 CURVE SMOOTH",
"125 -657 LINE",
"123 -657 OFFCURVE",
"116 -665 OFFCURVE",
"105 -682 CURVE SMOOTH",
"94 -699 OFFCURVE",
"88 -709 OFFCURVE",
"88 -711 CURVE SMOOTH",
"88 -712 OFFCURVE",
"89 -719 OFFCURVE",
"93 -728 CURVE",
"94 -736 OFFCURVE",
"99 -745 OFFCURVE",
"108 -753 CURVE SMOOTH",
"117 -761 OFFCURVE",
"125 -767 OFFCURVE",
"133 -767 CURVE SMOOTH",
"155 -767 OFFCURVE",
"179 -753 OFFCURVE",
"206 -726 CURVE",
"231 -697 OFFCURVE",
"245 -667 OFFCURVE",
"245 -633 CURVE SMOOTH",
"245 -580 LINE SMOOTH",
"245 -545 OFFCURVE",
"246 -492 OFFCURVE",
"247 -423 CURVE SMOOTH",
"250 -217 LINE",
"274 -212 OFFCURVE",
"296 -203 OFFCURVE",
"314 -191 CURVE SMOOTH",
"333 -179 OFFCURVE",
"348 -169 OFFCURVE",
"357 -157 CURVE SMOOTH",
"365 -146 OFFCURVE",
"370 -135 OFFCURVE",
"370 -127 CURVE SMOOTH",
"370 -124 OFFCURVE",
"369 -124 OFFCURVE",
"365 -127 CURVE",
"330 -152 OFFCURVE",
"292 -164 OFFCURVE",
"250 -166 CURVE",
"252 -10 OFFCURVE",
"253 115 OFFCURVE",
"253 210 CURVE",
"265 210 OFFCURVE",
"279 210 OFFCURVE",
"291 208 CURVE SMOOTH",
"303 206 OFFCURVE",
"314 205 OFFCURVE",
"323 203 CURVE SMOOTH",
"331 201 OFFCURVE",
"338 200 OFFCURVE",
"347 198 CURVE",
"353 196 OFFCURVE",
"357 196 OFFCURVE",
"358 196 CURVE"
);
}
);
width = 370;
}
);
note = uniE08B;
unicode = E918;
},
{
glyphname = uniF08A;
lastChange = "2018-02-21 17:16:56 +0000";
layers = (
{
layerId = "02376AAC-77FF-49DA-9399-294AF7A35492";
paths = (
{
closed = 1;
nodes = (
"789 -402 OFFCURVE",
"762 -402 OFFCURVE",
"713 -403 CURVE SMOOTH",
"664 -405 OFFCURVE",
"638 -405 OFFCURVE",
"635 -405 CURVE SMOOTH",
"633 -405 OFFCURVE",
"640 -396 OFFCURVE",
"654 -380 CURVE",
"705 -312 LINE SMOOTH",
"726 -284 OFFCURVE",
"745 -255 OFFCURVE",
"767 -224 CURVE SMOOTH",
"786 -193 OFFCURVE",
"803 -161 OFFCURVE",
"818 -129 CURVE SMOOTH",
"834 -97 OFFCURVE",
"841 -69 OFFCURVE",
"841 -45 CURVE SMOOTH",
"841 -32 OFFCURVE",
"839 -20 OFFCURVE",
"835 -8 CURVE SMOOTH",
"831 3 OFFCURVE",
"827 13 OFFCURVE",
"820 20 CURVE SMOOTH",
"813 27 OFFCURVE",
"806 32 OFFCURVE",
"799 38 CURVE SMOOTH",
"792 43 OFFCURVE",
"783 48 OFFCURVE",
"774 50 CURVE SMOOTH",
"764 53 OFFCURVE",
"755 56 OFFCURVE",
"747 57 CURVE SMOOTH",
"737 59 OFFCURVE",
"729 60 OFFCURVE",
"720 60 CURVE SMOOTH",
"698 60 LINE",
"681 60 LINE",
"674 59 LINE",
"673 59 OFFCURVE",
"678 69 OFFCURVE",
"691 88 CURVE SMOOTH",
"703 108 OFFCURVE",
"720 133 OFFCURVE",
"741 162 CURVE SMOOTH",
"802 251 LINE SMOOTH",
"821 280 OFFCURVE",
"838 305 OFFCURVE",
"853 328 CURVE",
"867 350 OFFCURVE",
"874 363 OFFCURVE",
"874 367 CURVE SMOOTH",
"874 368 OFFCURVE",
"820 371 OFFCURVE",
"710 374 CURVE SMOOTH",
"601 375 OFFCURVE",
"538 377 OFFCURVE",
"521 377 CURVE SMOOTH",
"520 377 OFFCURVE",
"503 354 OFFCURVE",
"468 311 CURVE SMOOTH",
"433 266 OFFCURVE",
"414 244 OFFCURVE",
"412 244 CURVE",
"404 247 LINE",
"398 248 OFFCURVE",
"391 249 OFFCURVE",
"383 252 CURVE",
"373 254 OFFCURVE",
"363 256 OFFCURVE",
"352 259 CURVE",
"341 261 OFFCURVE",
"328 263 OFFCURVE",
"313 265 CURVE SMOOTH",
"297 266 OFFCURVE",
"283 266 OFFCURVE",
"269 266 CURVE SMOOTH",
"203 266 OFFCURVE",
"142 240 OFFCURVE",
"86 186 CURVE SMOOTH",
"28 132 OFFCURVE",
"0 70 OFFCURVE",
"0 0 CURVE SMOOTH",
"0 -73 OFFCURVE",
"21 -130 OFFCURVE",
"63 -171 CURVE SMOOTH",
"105 -212 OFFCURVE",
"156 -231 OFFCURVE",
"215 -231 CURVE SMOOTH",
"275 -231 OFFCURVE",
"325 -219 OFFCURVE",
"366 -195 CURVE SMOOTH",
"407 -171 OFFCURVE",
"426 -148 OFFCURVE",
"426 -130 CURVE",
"425 -127 OFFCURVE",
"425 -126 OFFCURVE",
"425 -126 CURVE SMOOTH",
"423 -126 OFFCURVE",
"422 -127 OFFCURVE",
"418 -130 CURVE",
"414 -132 OFFCURVE",
"411 -134 OFFCURVE",
"407 -139 CURVE",
"402 -141 OFFCURVE",
"395 -144 OFFCURVE",
"387 -148 CURVE SMOOTH",
"379 -153 OFFCURVE",
"370 -155 OFFCURVE",
"360 -160 CURVE",
"350 -162 OFFCURVE",
"339 -165 OFFCURVE",
"325 -168 CURVE",
"311 -169 OFFCURVE",
"296 -171 OFFCURVE",
"279 -171 CURVE SMOOTH",
"245 -171 OFFCURVE",
"213 -164 OFFCURVE",
"184 -150 CURVE SMOOTH",
"153 -136 OFFCURVE",
"128 -113 OFFCURVE",
"108 -84 CURVE SMOOTH",
"87 -55 OFFCURVE",
"77 -20 OFFCURVE",
"77 21 CURVE SMOOTH",
"77 59 OFFCURVE",
"83 92 OFFCURVE",
"94 120 CURVE SMOOTH",
"105 147 OFFCURVE",
"121 168 OFFCURVE",
"139 182 CURVE",
"157 195 OFFCURVE",
"178 206 OFFCURVE",
"199 213 CURVE SMOOTH",
"220 220 OFFCURVE",
"244 223 OFFCURVE",
"268 223 CURVE",
"292 221 OFFCURVE",
"314 220 OFFCURVE",
"332 219 CURVE SMOOTH",
"350 217 OFFCURVE",
"369 214 OFFCURVE",
"386 212 CURVE SMOOTH",
"401 209 OFFCURVE",
"411 207 OFFCURVE",
"412 207 CURVE SMOOTH",
"414 207 OFFCURVE",
"435 226 OFFCURVE",
"474 261 CURVE SMOOTH",
"512 296 OFFCURVE",
"531 314 OFFCURVE",
"533 314 CURVE",
"534 315 OFFCURVE",
"577 314 OFFCURVE",
"663 312 CURVE SMOOTH",
"748 311 OFFCURVE",
"790 310 OFFCURVE",
"790 308 CURVE SMOOTH",
"790 307 OFFCURVE",
"774 280 OFFCURVE",
"740 230 CURVE SMOOTH",
"705 178 OFFCURVE",
"673 127 OFFCURVE",
"640 77 CURVE SMOOTH",
"608 27 OFFCURVE",
"594 1 OFFCURVE",
"598 1 CURVE",
"607 3 LINE",
"612 4 OFFCURVE",
"619 4 OFFCURVE",
"628 6 CURVE SMOOTH",
"635 7 OFFCURVE",
"645 7 OFFCURVE",
"654 7 CURVE SMOOTH",
"664 7 OFFCURVE",
"675 7 OFFCURVE",
"685 6 CURVE SMOOTH",
"695 4 OFFCURVE",
"706 3 OFFCURVE",
"716 -1 CURVE SMOOTH",
"726 -6 OFFCURVE",
"736 -10 OFFCURVE",
"743 -17 CURVE",
"750 -22 OFFCURVE",
"757 -31 OFFCURVE",
"761 -41 CURVE SMOOTH",
"765 -50 OFFCURVE",
"768 -63 OFFCURVE",
"768 -77 CURVE SMOOTH",
"768 -104 OFFCURVE",
"758 -137 OFFCURVE",
"738 -175 CURVE SMOOTH",
"719 -213 OFFCURVE",
"695 -248 OFFCURVE",
"668 -283 CURVE",
"640 -317 OFFCURVE",
"612 -349 OFFCURVE",
"586 -378 CURVE SMOOTH",
"559 -408 OFFCURVE",
"537 -431 OFFCURVE",
"521 -450 CURVE SMOOTH",
"506 -468 OFFCURVE",
"500 -476 OFFCURVE",
"505 -476 CURVE SMOOTH",
"507 -476 OFFCURVE",
"554 -475 OFFCURVE",
"645 -473 CURVE SMOOTH",
"734 -472 OFFCURVE",
"781 -471 OFFCURVE",
"782 -471 CURVE SMOOTH",
"786 -471 OFFCURVE",
"800 -455 OFFCURVE",
"821 -423 CURVE SMOOTH",
"842 -391 OFFCURVE",
"852 -373 OFFCURVE",
"852 -366 CURVE",
"851 -364 OFFCURVE",
"839 -370 OFFCURVE",
"818 -384 CURVE",
"802 -396 OFFCURVE",
"792 -402 OFFCURVE",
"790 -402 CURVE SMOOTH"
);
}
);
width = 874;
}
);
note = e;
unicode = F08A;
},
{
glyphname = uniE910;
lastChange = "2019-03-25 21:19:45 +0000";
layers = (
{
layerId = "02376AAC-77FF-49DA-9399-294AF7A35492";
paths = (
{
closed = 1;
nodes = (
"337 -266 OFFCURVE",
"404 -238 OFFCURVE",
"454 -188 CURVE SMOOTH",
"504 -138 OFFCURVE",
"532 -71 OFFCURVE",
"532 0 CURVE SMOOTH",
"532 70 OFFCURVE",
"504 137 OFFCURVE",
"454 187 CURVE SMOOTH",
"404 237 OFFCURVE",
"337 265 OFFCURVE",
"266 265 CURVE SMOOTH",
"196 265 OFFCURVE",
"129 237 OFFCURVE",
"79 187 CURVE SMOOTH",
"29 137 OFFCURVE",
"1 70 OFFCURVE",
"1 0 CURVE SMOOTH",
"1 -71 OFFCURVE",
"29 -138 OFFCURVE",
"79 -188 CURVE SMOOTH",
"129 -238 OFFCURVE",
"196 -266 OFFCURVE",
"266 -266 CURVE SMOOTH"
);
},
{
closed = 1;
nodes = (
"324 217 OFFCURVE",
"379 194 OFFCURVE",
"420 153 CURVE SMOOTH",
"461 112 OFFCURVE",
"484 58 OFFCURVE",
"484 0 CURVE SMOOTH",
"484 -58 OFFCURVE",
"461 -113 OFFCURVE",
"420 -154 CURVE SMOOTH",
"379 -195 OFFCURVE",
"324 -218 OFFCURVE",
"266 -218 CURVE SMOOTH",
"208 -218 OFFCURVE",
"154 -195 OFFCURVE",
"113 -154 CURVE SMOOTH",
"72 -113 OFFCURVE",
"49 -58 OFFCURVE",
"49 0 CURVE SMOOTH",
"49 58 OFFCURVE",
"72 112 OFFCURVE",
"113 153 CURVE SMOOTH",
"154 194 OFFCURVE",
"208 217 OFFCURVE",
"266 217 CURVE SMOOTH"
);
},
{
closed = 1;
nodes = (
"232 62 OFFCURVE",
"204 34 OFFCURVE",
"204 0 CURVE SMOOTH",
"204 -35 OFFCURVE",
"232 -63 OFFCURVE",
"266 -63 CURVE SMOOTH",
"301 -63 OFFCURVE",
"329 -35 OFFCURVE",
"329 0 CURVE SMOOTH",
"329 34 OFFCURVE",
"301 62 OFFCURVE",
"266 62 CURVE SMOOTH"
);
}
);
width = 532;
}
);
note = uniE910;
unicode = E910;
},
{
glyphname = uniE914;
lastChange = "2019-03-25 21:20:06 +0000";
layers = (
{
hints = (
{
place = "{0, 48}";
type = Stem;
},
{
place = "{206, 125}";
type = Stem;
}
);
layerId = "02376AAC-77FF-49DA-9399-294AF7A35492";
paths = (
{
closed = 1;
nodes = (
"311 -266 OFFCURVE",
"357 -254 OFFCURVE",
"396 -232 CURVE SMOOTH",
"435 -210 OFFCURVE",
"467 -178 OFFCURVE",
"491 -141 CURVE",
"493 -137 OFFCURVE",
"494 -133 OFFCURVE",
"494 -129 CURVE SMOOTH",
"494 -121 OFFCURVE",
"490 -113 OFFCURVE",
"483 -108 CURVE SMOOTH",
"479 -105 OFFCURVE",
"474 -104 OFFCURVE",
"470 -104 CURVE SMOOTH",
"462 -104 OFFCURVE",
"454 -108 OFFCURVE",
"450 -115 CURVE SMOOTH",
"431 -146 OFFCURVE",
"404 -172 OFFCURVE",
"373 -190 CURVE SMOOTH",
"340 -208 OFFCURVE",
"303 -218 OFFCURVE",
"266 -218 CURVE SMOOTH",
"207 -218 OFFCURVE",
"153 -195 OFFCURVE",
"112 -154 CURVE SMOOTH",
"71 -113 OFFCURVE",
"48 -58 OFFCURVE",
"48 0 CURVE SMOOTH",
"48 58 OFFCURVE",
"71 112 OFFCURVE",
"112 153 CURVE SMOOTH",
"153 194 OFFCURVE",
"207 217 OFFCURVE",
"266 217 CURVE SMOOTH",
"339 217 OFFCURVE",
"407 180 OFFCURVE",
"447 119 CURVE",
"452 112 OFFCURVE",
"460 108 OFFCURVE",
"468 108 CURVE SMOOTH",
"473 108 OFFCURVE",
"477 109 OFFCURVE",
"481 112 CURVE",
"488 116 OFFCURVE",
"492 123 OFFCURVE",
"492 131 CURVE SMOOTH",
"492 136 OFFCURVE",
"490 141 OFFCURVE",
"487 145 CURVE",
"438 220 OFFCURVE",
"355 265 OFFCURVE",
"266 265 CURVE SMOOTH",
"195 265 OFFCURVE",
"128 237 OFFCURVE",
"78 187 CURVE SMOOTH",
"28 137 OFFCURVE",
"0 70 OFFCURVE",
"0 0 CURVE SMOOTH",
"0 -71 OFFCURVE",
"28 -138 OFFCURVE",
"78 -188 CURVE SMOOTH",
"128 -238 OFFCURVE",
"195 -266 OFFCURVE",
"266 -266 CURVE SMOOTH"
);
},
{
closed = 1;
nodes = (
"234 62 OFFCURVE",
"206 34 OFFCURVE",
"206 0 CURVE SMOOTH",
"206 -35 OFFCURVE",
"234 -63 OFFCURVE",
"268 -63 CURVE SMOOTH",
"303 -63 OFFCURVE",
"331 -35 OFFCURVE",
"331 0 CURVE SMOOTH",
"331 34 OFFCURVE",
"303 62 OFFCURVE",
"268 62 CURVE SMOOTH"
);
}
);
width = 495;
}
);
note = uniE914;
unicode = E914;
},
{
glyphname = uniF08B;
lastChange = "2018-02-21 17:17:10 +0000";
layers = (
{
layerId = "02376AAC-77FF-49DA-9399-294AF7A35492";
paths = (
{
closed = 1;
nodes = (
"727 -410 OFFCURVE",
"704 -410 OFFCURVE",
"659 -412 CURVE",
"586 -412 LINE",
"632 -349 LINE SMOOTH",
"663 -306 OFFCURVE",
"693 -254 OFFCURVE",
"727 -194 CURVE SMOOTH",
"759 -133 OFFCURVE",
"776 -84 OFFCURVE",
"776 -47 CURVE SMOOTH",
"776 -34 OFFCURVE",
"774 -22 OFFCURVE",
"770 -11 CURVE",
"767 2 OFFCURVE",
"761 11 OFFCURVE",
"756 20 CURVE",
"750 27 OFFCURVE",
"743 34 OFFCURVE",
"736 39 CURVE SMOOTH",
"729 45 OFFCURVE",
"722 48 OFFCURVE",
"713 50 CURVE SMOOTH",
"704 52 OFFCURVE",
"697 56 OFFCURVE",
"688 57 CURVE SMOOTH",
"679 59 OFFCURVE",
"672 59 OFFCURVE",
"664 61 CURVE",
"643 61 LINE",
"638 59 OFFCURVE",
"632 59 OFFCURVE",
"629 59 CURVE SMOOTH",
"621 59 LINE SMOOTH",
"620 59 OFFCURVE",
"634 84 OFFCURVE",
"664 133 CURVE SMOOTH",
"695 181 OFFCURVE",
"725 233 OFFCURVE",
"758 285 CURVE SMOOTH",
"790 337 OFFCURVE",
"806 366 OFFCURVE",
"806 371 CURVE SMOOTH",
"806 373 OFFCURVE",
"790 373 OFFCURVE",
"756 374 CURVE SMOOTH",
"722 376 OFFCURVE",
"684 376 OFFCURVE",
"643 378 CURVE SMOOTH",
"602 380 OFFCURVE",
"564 380 OFFCURVE",
"532 382 CURVE",
"480 382 LINE",
"432 314 LINE SMOOTH",
"399 269 OFFCURVE",
"381 245 OFFCURVE",
"380 245 CURVE",
"365 251 LINE",
"355 254 OFFCURVE",
"340 258 OFFCURVE",
"322 262 CURVE SMOOTH",
"304 265 OFFCURVE",
"286 267 OFFCURVE",
"269 269 CURVE",
"272 631 OFFCURVE",
"272 812 OFFCURVE",
"267 812 CURVE SMOOTH",
"263 812 OFFCURVE",
"240 776 OFFCURVE",
"197 704 CURVE SMOOTH",
"152 631 OFFCURVE",
"131 593 OFFCURVE",
"131 588 CURVE SMOOTH",
"131 584 OFFCURVE",
"143 593 OFFCURVE",
"168 616 CURVE",
"188 636 OFFCURVE",
"200 645 OFFCURVE",
"202 645 CURVE SMOOTH",
"208 645 OFFCURVE",
"209 518 OFFCURVE",
"208 265 CURVE",
"152 253 OFFCURVE",
"104 220 OFFCURVE",
"62 170 CURVE SMOOTH",
"21 120 OFFCURVE",
"0 63 OFFCURVE",
"0 -2 CURVE SMOOTH",
"0 -75 OFFCURVE",
"19 -134 OFFCURVE",
"59 -176 CURVE SMOOTH",
"97 -217 OFFCURVE",
"143 -237 OFFCURVE",
"199 -237 CURVE SMOOTH",
"202 -237 LINE",
"202 -446 LINE SMOOTH",
"200 -518 OFFCURVE",
"200 -575 OFFCURVE",
"200 -616 CURVE",
"199 -658 OFFCURVE",
"199 -679 OFFCURVE",
"199 -684 CURVE SMOOTH",
"199 -710 OFFCURVE",
"197 -727 OFFCURVE",
"191 -738 CURVE",
"186 -747 OFFCURVE",
"177 -753 OFFCURVE",
"163 -753 CURVE SMOOTH",
"157 -753 OFFCURVE",
"152 -751 OFFCURVE",
"147 -747 CURVE SMOOTH",
"141 -744 OFFCURVE",
"140 -738 OFFCURVE",
"138 -733 CURVE SMOOTH",
"136 -727 OFFCURVE",
"134 -720 OFFCURVE",
"134 -715 CURVE",
"132 -710 OFFCURVE",
"132 -704 OFFCURVE",
"132 -701 CURVE SMOOTH",
"132 -693 LINE",
"131 -693 OFFCURVE",
"123 -702 OFFCURVE",
"111 -720 CURVE SMOOTH",
"98 -738 OFFCURVE",
"93 -749 OFFCURVE",
"93 -751 CURVE SMOOTH",
"93 -753 OFFCURVE",
"95 -760 OFFCURVE",
"98 -769 CURVE",
"100 -778 OFFCURVE",
"105 -787 OFFCURVE",
"114 -796 CURVE SMOOTH",
"123 -804 OFFCURVE",
"132 -810 OFFCURVE",
"141 -810 CURVE SMOOTH",
"165 -810 OFFCURVE",
"190 -796 OFFCURVE",
"218 -767 CURVE",
"245 -736 OFFCURVE",
"260 -704 OFFCURVE",
"260 -668 CURVE SMOOTH",
"260 -613 LINE SMOOTH",
"260 -575 OFFCURVE",
"260 -520 OFFCURVE",
"261 -446 CURVE SMOOTH",
"265 -228 LINE",
"290 -222 OFFCURVE",
"313 -213 OFFCURVE",
"333 -201 CURVE SMOOTH",
"353 -188 OFFCURVE",
"369 -177 OFFCURVE",
"378 -165 CURVE SMOOTH",
"387 -152 OFFCURVE",
"392 -142 OFFCURVE",
"392 -133 CURVE SMOOTH",
"392 -129 OFFCURVE",
"390 -129 OFFCURVE",
"387 -133 CURVE",
"349 -159 OFFCURVE",
"310 -172 OFFCURVE",
"265 -174 CURVE",
"267 -9 OFFCURVE",
"269 124 OFFCURVE",
"269 224 CURVE",
"281 224 OFFCURVE",
"295 224 OFFCURVE",
"308 222 CURVE SMOOTH",
"320 220 OFFCURVE",
"333 219 OFFCURVE",
"342 217 CURVE SMOOTH",
"351 215 OFFCURVE",
"358 213 OFFCURVE",
"367 211 CURVE",
"374 210 OFFCURVE",
"378 210 OFFCURVE",
"380 210 CURVE SMOOTH",
"381 210 OFFCURVE",
"399 228 OFFCURVE",
"430 265 CURVE SMOOTH",
"460 301 OFFCURVE",
"475 319 OFFCURVE",
"476 319 CURVE SMOOTH",
"634 319 OFFCURVE",
"713 317 OFFCURVE",
"713 312 CURVE SMOOTH",
"713 310 OFFCURVE",
"699 285 OFFCURVE",
"670 233 CURVE SMOOTH",
"641 181 OFFCURVE",
"614 129 OFFCURVE",
"587 79 CURVE SMOOTH",
"561 27 OFFCURVE",
"548 2 OFFCURVE",
"552 2 CURVE SMOOTH",
"561 2 LINE",
"566 4 OFFCURVE",
"571 4 OFFCURVE",
"578 5 CURVE SMOOTH",
"586 7 OFFCURVE",
"595 7 OFFCURVE",
"604 7 CURVE SMOOTH",
"613 7 OFFCURVE",
"623 7 OFFCURVE",
"632 5 CURVE SMOOTH",
"641 4 OFFCURVE",
"652 2 OFFCURVE",
"661 -4 CURVE",
"670 -7 OFFCURVE",
"677 -13 OFFCURVE",
"684 -18 CURVE SMOOTH",
"691 -23 OFFCURVE",
"697 -32 OFFCURVE",
"702 -43 CURVE",
"707 -52 OFFCURVE",
"709 -65 OFFCURVE",
"709 -79 CURVE SMOOTH",
"709 -108 OFFCURVE",
"700 -142 OFFCURVE",
"682 -179 CURVE",
"663 -217 OFFCURVE",
"641 -254 OFFCURVE",
"616 -288 CURVE SMOOTH",
"591 -323 OFFCURVE",
"566 -355 OFFCURVE",
"541 -385 CURVE SMOOTH",
"516 -416 OFFCURVE",
"496 -439 OFFCURVE",
"482 -459 CURVE",
"467 -477 OFFCURVE",
"462 -486 OFFCURVE",
"466 -486 CURVE SMOOTH",
"467 -486 OFFCURVE",
"510 -486 OFFCURVE",
"595 -484 CURVE SMOOTH",
"677 -482 OFFCURVE",
"720 -480 OFFCURVE",
"722 -480 CURVE SMOOTH",
"725 -480 OFFCURVE",
"738 -464 OFFCURVE",
"758 -432 CURVE SMOOTH",
"777 -400 OFFCURVE",
"786 -380 OFFCURVE",
"786 -373 CURVE SMOOTH",
"786 -371 OFFCURVE",
"783 -373 OFFCURVE",
"774 -380 CURVE",
"765 -385 OFFCURVE",
"754 -392 OFFCURVE",
"745 -400 CURVE SMOOTH",
"736 -407 OFFCURVE",
"731 -410 OFFCURVE",
"729 -410 CURVE SMOOTH"
);
},
{
closed = 1;
nodes = (
"166 -154 OFFCURVE",
"134 -133 OFFCURVE",
"109 -100 CURVE SMOOTH",
"84 -68 OFFCURVE",
"71 -27 OFFCURVE",
"71 22 CURVE SMOOTH",
"71 136 OFFCURVE",
"116 202 OFFCURVE",
"206 220 CURVE",
"206 219 OFFCURVE",
"206 90 OFFCURVE",
"204 -167 CURVE"
);
}
);
width = 806;
}
);
note = f;
unicode = F08B;
},
{
glyphname = uniF090;
lastChange = "2018-05-24 11:52:20 +0000";
layers = (
{
layerId = "02376AAC-77FF-49DA-9399-294AF7A35492";
paths = (
{
closed = 1;
nodes = (
"1169 -70 OFFCURVE",
"1145 -63 OFFCURVE",
"1122 -49 CURVE",
"1099 -34 OFFCURVE",
"1088 -19 OFFCURVE",
"1088 -4 CURVE",
"1088 6 OFFCURVE",
"1092 16 OFFCURVE",
"1100 25 CURVE",
"1107 34 OFFCURVE",
"1120 43 OFFCURVE",
"1138 50 CURVE",
"1156 57 OFFCURVE",
"1177 60 OFFCURVE",
"1201 60 CURVE",
"1233 60 OFFCURVE",
"1262 53 OFFCURVE",
"1288 39 CURVE",
"1313 24 OFFCURVE",
"1326 9 OFFCURVE",
"1326 -6 CURVE",
"1326 -25 OFFCURVE",
"1313 -40 OFFCURVE",
"1288 -52 CURVE",
"1262 -64 OFFCURVE",
"1231 -70 OFFCURVE",
"1196 -70 CURVE"
);
},
{
closed = 1;
nodes = (
"866 -58 OFFCURVE",
"834 -50 OFFCURVE",
"799 -33 CURVE",
"764 -16 OFFCURVE",
"746 2 OFFCURVE",
"746 20 CURVE",
"746 31 OFFCURVE",
"758 41 OFFCURVE",
"783 50 CURVE",
"808 59 OFFCURVE",
"839 63 OFFCURVE",
"876 63 CURVE",
"894 63 OFFCURVE",
"914 58 OFFCURVE",
"936 49 CURVE",
"958 40 OFFCURVE",
"976 29 OFFCURVE",
"991 17 CURVE",
"1005 4 OFFCURVE",
"1012 -6 OFFCURVE",
"1012 -15 CURVE",
"1012 -32 OFFCURVE",
"1003 -43 OFFCURVE",
"985 -49 CURVE",
"967 -55 OFFCURVE",
"938 -58 OFFCURVE",
"897 -58 CURVE"
);
},
{
closed = 1;
nodes = (
"297 -76 OFFCURVE",
"262 -81 OFFCURVE",
"217 -81 CURVE",
"194 -81 OFFCURVE",
"172 -78 OFFCURVE",
"152 -73 CURVE",
"131 -67 OFFCURVE",
"115 -59 OFFCURVE",
"104 -50 CURVE",
"93 -41 OFFCURVE",
"87 -31 OFFCURVE",
"87 -21 CURVE",
"87 -6 OFFCURVE",
"100 12 OFFCURVE",
"125 31 CURVE",
"150 50 OFFCURVE",
"184 59 OFFCURVE",
"226 59 CURVE",
"249 59 OFFCURVE",
"272 54 OFFCURVE",
"293 44 CURVE",
"314 33 OFFCURVE",
"329 22 OFFCURVE",
"340 10 CURVE",
"351 -3 OFFCURVE",
"356 -13 OFFCURVE",
"356 -22 CURVE",
"321 -65 LINE"
);
},
{
closed = 1;
nodes = (
"656 -18 OFFCURVE",
"612 -54 OFFCURVE",
"571 -54 CURVE",
"540 -54 OFFCURVE",
"508 -46 OFFCURVE",
"473 -29 CURVE",
"438 -12 OFFCURVE",
"420 6 OFFCURVE",
"420 24 CURVE",
"420 35 OFFCURVE",
"432 45 OFFCURVE",
"457 54 CURVE",
"482 63 OFFCURVE",
"513 67 OFFCURVE",
"550 67 CURVE",
"568 67 OFFCURVE",
"588 62 OFFCURVE",
"610 53 CURVE",
"632 44 OFFCURVE",
"665 13 OFFCURVE",
"670 -5 CURVE"
);
},
{
closed = 1;
nodes = (
"1403 236 OFFCURVE",
"1397 232 OFFCURVE",
"1386 223 CURVE",
"1375 214 OFFCURVE",
"1364 204 OFFCURVE",
"1353 195 CURVE",
"1342 185 OFFCURVE",
"1336 180 OFFCURVE",
"1336 179 CURVE",
"1336 176 LINE",
"1335 173 OFFCURVE",
"1335 170 OFFCURVE",
"1335 166 CURVE",
"1335 108 LINE",
"1310 119 OFFCURVE",
"1277 125 OFFCURVE",
"1236 125 CURVE",
"1208 125 OFFCURVE",
"1184 122 OFFCURVE",
"1163 115 CURVE",
"1142 108 OFFCURVE",
"1128 100 OFFCURVE",
"1119 91 CURVE",
"1095 67 LINE",
"1088 60 OFFCURVE",
"1082 56 OFFCURVE",
"1079 56 CURVE",
"1077 56 OFFCURVE",
"1073 60 OFFCURVE",
"1066 68 CURVE",
"1059 75 OFFCURVE",
"1051 84 OFFCURVE",
"1042 93 CURVE",
"1032 102 OFFCURVE",
"1015 111 OFFCURVE",
"992 119 CURVE",
"969 126 OFFCURVE",
"942 130 OFFCURVE",
"911 130 CURVE",
"888 130 OFFCURVE",
"866 128 OFFCURVE",
"845 124 CURVE",
"824 120 OFFCURVE",
"808 115 OFFCURVE",
"795 109 CURVE",
"782 103 OFFCURVE",
"770 97 OFFCURVE",
"761 91 CURVE",
"751 85 OFFCURVE",
"743 80 OFFCURVE",
"738 76 CURVE",
"731 83 OFFCURVE",
"725 88 OFFCURVE",
"716 97 CURVE",
"706 106 OFFCURVE",
"689 115 OFFCURVE",
"666 123 CURVE",
"643 130 OFFCURVE",
"616 134 OFFCURVE",
"585 134 CURVE",
"562 134 OFFCURVE",
"540 132 OFFCURVE",
"519 128 CURVE",
"498 124 OFFCURVE",
"482 119 OFFCURVE",
"469 113 CURVE",
"456 107 OFFCURVE",
"444 101 OFFCURVE",
"435 95 CURVE",
"425 89 OFFCURVE",
"417 84 OFFCURVE",
"412 80 CURVE",
"406 76 OFFCURVE",
"402 74 OFFCURVE",
"401 74 CURVE",
"399 74 OFFCURVE",
"393 78 OFFCURVE",
"388 83 CURVE",
"383 88 OFFCURVE",
"376 95 OFFCURVE",
"368 102 CURVE",
"360 109 OFFCURVE",
"346 115 OFFCURVE",
"327 120 CURVE",
"308 125 OFFCURVE",
"285 128 OFFCURVE",
"260 128 CURVE",
"228 128 OFFCURVE",
"194 118 OFFCURVE",
"157 97 CURVE",
"120 76 OFFCURVE",
"91 50 OFFCURVE",
"70 21 CURVE",
"71 96 OFFCURVE",
"72 146 OFFCURVE",
"72 170 CURVE",
"72 236 LINE",
"70 236 OFFCURVE",
"58 227 OFFCURVE",
"36 209 CURVE",
"14 191 OFFCURVE",
"3 181 OFFCURVE",
"3 179 CURVE",
"3 178 OFFCURVE",
"3 173 OFFCURVE",
"2 162 CURVE",
"2 121 LINE",
"2 104 OFFCURVE",
"2 84 OFFCURVE",
"1 62 CURVE",
"1 39 OFFCURVE",
"1 16 OFFCURVE",
"0 -8 CURVE",
"0 -209 LINE",
"1 -226 OFFCURVE",
"1 -239 OFFCURVE",
"1 -249 CURVE",
"2 -259 OFFCURVE",
"2 -264 OFFCURVE",
"3 -264 CURVE",
"4 -264 OFFCURVE",
"9 -261 OFFCURVE",
"19 -255 CURVE",
"29 -249 OFFCURVE",
"39 -243 OFFCURVE",
"49 -236 CURVE",
"59 -229 OFFCURVE",
"64 -225 OFFCURVE",
"64 -224 CURVE",
"64 -213 LINE",
"65 -209 OFFCURVE",
"65 -205 OFFCURVE",
"65 -200 CURVE",
"65 -161 LINE",
"66 -154 OFFCURVE",
"66 -146 OFFCURVE",
"66 -137 CURVE",
"66 -128 OFFCURVE",
"66 -118 OFFCURVE",
"67 -109 CURVE",
"94 -136 OFFCURVE",
"138 -150 OFFCURVE",
"200 -150 CURVE",
"225 -150 OFFCURVE",
"248 -146 OFFCURVE",
"271 -138 CURVE",
"293 -130 OFFCURVE",
"310 -121 OFFCURVE",
"323 -112 CURVE",
"336 -103 OFFCURVE",
"347 -94 OFFCURVE",
"357 -86 CURVE",
"366 -78 OFFCURVE",
"372 -74 OFFCURVE",
"373 -74 CURVE",
"374 -75 LINE",
"374 -75 LINE",
"374 -75 LINE",
"375 -75 OFFCURVE",
"378 -78 OFFCURVE",
"381 -81 CURVE",
"384 -85 OFFCURVE",
"390 -90 OFFCURVE",
"397 -96 CURVE",
"404 -101 OFFCURVE",
"412 -107 OFFCURVE",
"422 -113 CURVE",
"432 -118 OFFCURVE",
"446 -123 OFFCURVE",
"464 -127 CURVE",
"482 -131 OFFCURVE",
"502 -133 OFFCURVE",
"524 -133 CURVE",
"550 -133 OFFCURVE",
"573 -131 OFFCURVE",
"594 -127 CURVE",
"615 -122 OFFCURVE",
"631 -117 OFFCURVE",
"642 -111 CURVE",
"653 -104 OFFCURVE",
"662 -98 OFFCURVE",
"669 -92 CURVE",
"685 -76 LINE",
"688 -71 OFFCURVE",
"691 -69 OFFCURVE",
"693 -69 CURVE",
"707 -85 LINE",
"710 -89 OFFCURVE",
"716 -94 OFFCURVE",
"723 -100 CURVE",
"730 -105 OFFCURVE",
"738 -111 OFFCURVE",
"748 -117 CURVE",
"758 -122 OFFCURVE",
"772 -127 OFFCURVE",
"790 -131 CURVE",
"808 -135 OFFCURVE",
"828 -137 OFFCURVE",
"850 -137 CURVE",
"876 -137 OFFCURVE",
"899 -135 OFFCURVE",
"920 -131 CURVE",
"941 -126 OFFCURVE",
"957 -121 OFFCURVE",
"968 -115 CURVE",
"979 -108 OFFCURVE",
"988 -102 OFFCURVE",
"995 -96 CURVE",
"1011 -80 LINE",
"1014 -75 OFFCURVE",
"1017 -73 OFFCURVE",
"1019 -73 CURVE",
"1021 -73 OFFCURVE",
"1023 -75 OFFCURVE",
"1025 -80 CURVE",
"1027 -84 OFFCURVE",
"1031 -89 OFFCURVE",
"1036 -95 CURVE",
"1041 -101 OFFCURVE",
"1048 -107 OFFCURVE",
"1058 -113 CURVE",
"1067 -119 OFFCURVE",
"1082 -124 OFFCURVE",
"1103 -129 CURVE",
"1124 -133 OFFCURVE",
"1148 -135 OFFCURVE",
"1177 -135 CURVE",
"1204 -135 OFFCURVE",
"1231 -128 OFFCURVE",
"1259 -115 CURVE",
"1287 -102 OFFCURVE",
"1312 -85 OFFCURVE",
"1334 -65 CURVE",
"1331 -497 OFFCURVE",
"1332 -713 OFFCURVE",
"1335 -713 CURVE",
"1336 -713 OFFCURVE",
"1347 -707 OFFCURVE",
"1367 -694 CURVE",
"1386 -681 OFFCURVE",
"1396 -674 OFFCURVE",
"1396 -672 CURVE",
"1397 -621 LINE",
"1397 -587 OFFCURVE",
"1397 -544 OFFCURVE",
"1398 -491 CURVE",
"1399 -438 OFFCURVE",
"1400 -379 OFFCURVE",
"1401 -314 CURVE",
"1402 -249 OFFCURVE",
"1402 -185 OFFCURVE",
"1403 -121 CURVE",
"1404 -56 OFFCURVE",
"1404 3 OFFCURVE",
"1405 56 CURVE",
"1405 186 LINE",
"1405 219 OFFCURVE",
"1405 236 OFFCURVE",
"1404 236 CURVE"
);
}
);
width = 1405;
}
);
unicode = F090;
},
{
glyphname = uniF091;
lastChange = "2018-05-24 11:52:51 +0000";
layers = (
{
layerId = "02376AAC-77FF-49DA-9399-294AF7A35492";
paths = (
{
closed = 1;
nodes = (
"1405 -60 LINE",
"1404 -7 OFFCURVE",
"1404 52 OFFCURVE",
"1403 117 CURVE",
"1402 181 OFFCURVE",
"1402 245 OFFCURVE",
"1401 310 CURVE",
"1400 375 OFFCURVE",
"1399 434 OFFCURVE",
"1398 487 CURVE",
"1397 540 OFFCURVE",
"1397 583 OFFCURVE",
"1397 617 CURVE",
"1396 668 LINE",
"1396 670 OFFCURVE",
"1386 677 OFFCURVE",
"1367 690 CURVE",
"1347 703 OFFCURVE",
"1336 709 OFFCURVE",
"1335 709 CURVE",
"1332 709 OFFCURVE",
"1331 493 OFFCURVE",
"1334 61 CURVE",
"1312 81 OFFCURVE",
"1287 98 OFFCURVE",
"1259 111 CURVE",
"1231 124 OFFCURVE",
"1204 131 OFFCURVE",
"1177 131 CURVE",
"1148 131 OFFCURVE",
"1124 129 OFFCURVE",
"1103 125 CURVE",
"1082 120 OFFCURVE",
"1067 115 OFFCURVE",
"1058 109 CURVE",
"1048 103 OFFCURVE",
"1041 97 OFFCURVE",
"1036 91 CURVE",
"1031 85 OFFCURVE",
"1027 80 OFFCURVE",
"1025 76 CURVE",
"1023 71 OFFCURVE",
"1021 69 OFFCURVE",
"1019 69 CURVE",
"1017 69 OFFCURVE",
"1014 71 OFFCURVE",
"1011 76 CURVE",
"995 92 LINE",
"988 98 OFFCURVE",
"979 104 OFFCURVE",
"968 111 CURVE",
"957 117 OFFCURVE",
"941 122 OFFCURVE",
"920 127 CURVE",
"899 131 OFFCURVE",
"876 133 OFFCURVE",
"850 133 CURVE",
"828 133 OFFCURVE",
"808 131 OFFCURVE",
"790 127 CURVE",
"772 123 OFFCURVE",
"758 118 OFFCURVE",
"748 113 CURVE",
"738 107 OFFCURVE",
"730 101 OFFCURVE",
"723 96 CURVE",
"716 90 OFFCURVE",
"710 85 OFFCURVE",
"707 81 CURVE",
"693 65 LINE",
"691 65 OFFCURVE",
"688 67 OFFCURVE",
"685 72 CURVE",
"669 88 LINE",
"662 94 OFFCURVE",
"653 100 OFFCURVE",
"642 107 CURVE",
"631 113 OFFCURVE",
"615 118 OFFCURVE",
"594 123 CURVE",
"573 127 OFFCURVE",
"550 129 OFFCURVE",
"524 129 CURVE",
"502 129 OFFCURVE",
"482 127 OFFCURVE",
"464 123 CURVE",
"446 119 OFFCURVE",
"432 114 OFFCURVE",
"422 109 CURVE",
"412 103 OFFCURVE",
"404 97 OFFCURVE",
"397 92 CURVE",
"390 86 OFFCURVE",
"384 81 OFFCURVE",
"381 77 CURVE",
"378 74 OFFCURVE",
"375 71 OFFCURVE",
"374 71 CURVE",
"373 70 LINE",
"372 70 OFFCURVE",
"366 74 OFFCURVE",
"357 82 CURVE",
"347 90 OFFCURVE",
"336 99 OFFCURVE",
"323 108 CURVE",
"310 117 OFFCURVE",
"293 126 OFFCURVE",
"271 134 CURVE",
"248 142 OFFCURVE",
"225 146 OFFCURVE",
"200 146 CURVE",
"138 146 OFFCURVE",
"94 132 OFFCURVE",
"67 105 CURVE",
"66 114 OFFCURVE",
"66 124 OFFCURVE",
"66 133 CURVE",
"66 142 OFFCURVE",
"66 150 OFFCURVE",
"65 157 CURVE",
"65 196 LINE",
"65 201 OFFCURVE",
"65 205 OFFCURVE",
"64 209 CURVE",
"64 220 LINE",
"64 221 OFFCURVE",
"59 225 OFFCURVE",
"49 232 CURVE",
"39 239 OFFCURVE",
"29 245 OFFCURVE",
"19 251 CURVE",
"9 257 OFFCURVE",
"4 260 OFFCURVE",
"3 260 CURVE",
"2 260 OFFCURVE",
"2 255 OFFCURVE",
"1 245 CURVE",
"1 235 OFFCURVE",
"1 222 OFFCURVE",
"0 205 CURVE",
"0 4 LINE",
"1 -20 OFFCURVE",
"1 -43 OFFCURVE",
"1 -66 CURVE",
"2 -88 OFFCURVE",
"2 -108 OFFCURVE",
"2 -125 CURVE",
"2 -166 LINE",
"3 -177 OFFCURVE",
"3 -182 OFFCURVE",
"3 -183 CURVE",
"3 -185 OFFCURVE",
"14 -195 OFFCURVE",
"36 -213 CURVE",
"58 -231 OFFCURVE",
"70 -240 OFFCURVE",
"72 -240 CURVE",
"72 -174 LINE",
"72 -150 OFFCURVE",
"71 -100 OFFCURVE",
"70 -25 CURVE",
"91 -54 OFFCURVE",
"120 -80 OFFCURVE",
"157 -101 CURVE",
"194 -122 OFFCURVE",
"228 -132 OFFCURVE",
"260 -132 CURVE",
"285 -132 OFFCURVE",
"308 -129 OFFCURVE",
"327 -124 CURVE",
"346 -119 OFFCURVE",
"360 -113 OFFCURVE",
"368 -106 CURVE",
"376 -99 OFFCURVE",
"383 -92 OFFCURVE",
"388 -87 CURVE",
"393 -82 OFFCURVE",
"399 -78 OFFCURVE",
"401 -78 CURVE",
"402 -78 OFFCURVE",
"406 -80 OFFCURVE",
"412 -84 CURVE",
"417 -88 OFFCURVE",
"425 -93 OFFCURVE",
"435 -99 CURVE",
"444 -105 OFFCURVE",
"456 -111 OFFCURVE",
"469 -117 CURVE",
"482 -123 OFFCURVE",
"498 -128 OFFCURVE",
"519 -132 CURVE",
"540 -136 OFFCURVE",
"562 -138 OFFCURVE",
"585 -138 CURVE",
"616 -138 OFFCURVE",
"643 -134 OFFCURVE",
"666 -127 CURVE",
"689 -119 OFFCURVE",
"706 -110 OFFCURVE",
"716 -101 CURVE",
"725 -92 OFFCURVE",
"731 -87 OFFCURVE",
"738 -80 CURVE",
"743 -84 OFFCURVE",
"751 -89 OFFCURVE",
"761 -95 CURVE",
"770 -101 OFFCURVE",
"782 -107 OFFCURVE",
"795 -113 CURVE",
"808 -119 OFFCURVE",
"824 -124 OFFCURVE",
"845 -128 CURVE",
"866 -132 OFFCURVE",
"888 -134 OFFCURVE",
"911 -134 CURVE",
"942 -134 OFFCURVE",
"969 -130 OFFCURVE",
"992 -123 CURVE",
"1015 -115 OFFCURVE",
"1032 -106 OFFCURVE",
"1042 -97 CURVE",
"1051 -88 OFFCURVE",
"1059 -79 OFFCURVE",
"1066 -72 CURVE",
"1073 -64 OFFCURVE",
"1077 -60 OFFCURVE",
"1079 -60 CURVE",
"1082 -60 OFFCURVE",
"1088 -64 OFFCURVE",
"1095 -71 CURVE",
"1119 -95 LINE",
"1128 -104 OFFCURVE",
"1142 -112 OFFCURVE",
"1163 -119 CURVE",
"1184 -126 OFFCURVE",
"1208 -129 OFFCURVE",
"1236 -129 CURVE",
"1277 -129 OFFCURVE",
"1310 -123 OFFCURVE",
"1335 -112 CURVE",
"1335 -170 LINE",
"1335 -174 OFFCURVE",
"1335 -177 OFFCURVE",
"1336 -180 CURVE",
"1336 -183 LINE",
"1336 -184 OFFCURVE",
"1342 -189 OFFCURVE",
"1353 -199 CURVE",
"1364 -208 OFFCURVE",
"1375 -218 OFFCURVE",
"1386 -227 CURVE",
"1397 -236 OFFCURVE",
"1403 -240 OFFCURVE",
"1404 -240 CURVE",
"1405 -240 OFFCURVE",
"1405 -223 OFFCURVE",
"1405 -190 CURVE"
);
},
{
closed = 1;
nodes = (
"588 -66 OFFCURVE",
"568 -71 OFFCURVE",
"550 -71 CURVE",
"513 -71 OFFCURVE",
"482 -67 OFFCURVE",
"457 -58 CURVE",
"432 -49 OFFCURVE",
"420 -39 OFFCURVE",
"420 -28 CURVE",
"420 -10 OFFCURVE",
"438 8 OFFCURVE",
"473 25 CURVE",
"508 42 OFFCURVE",
"540 50 OFFCURVE",
"571 50 CURVE",
"612 50 OFFCURVE",
"656 14 OFFCURVE",
"670 1 CURVE",
"665 -17 OFFCURVE",
"632 -48 OFFCURVE",
"610 -57 CURVE"
);
},
{
closed = 1;
nodes = (
"356 9 OFFCURVE",
"351 -1 OFFCURVE",
"340 -14 CURVE",
"329 -26 OFFCURVE",
"314 -37 OFFCURVE",
"293 -48 CURVE",
"272 -58 OFFCURVE",
"249 -63 OFFCURVE",
"226 -63 CURVE",
"184 -63 OFFCURVE",
"150 -54 OFFCURVE",
"125 -35 CURVE",
"100 -16 OFFCURVE",
"87 2 OFFCURVE",
"87 17 CURVE",
"87 27 OFFCURVE",
"93 37 OFFCURVE",
"104 46 CURVE",
"115 55 OFFCURVE",
"131 63 OFFCURVE",
"152 69 CURVE",
"172 74 OFFCURVE",
"194 77 OFFCURVE",
"217 77 CURVE",
"262 77 OFFCURVE",
"297 72 OFFCURVE",
"321 61 CURVE",
"356 18 LINE"
);
},
{
closed = 1;
nodes = (
"1003 39 OFFCURVE",
"1012 28 OFFCURVE",
"1012 11 CURVE",
"1012 2 OFFCURVE",
"1005 -8 OFFCURVE",
"991 -21 CURVE",
"976 -33 OFFCURVE",
"958 -44 OFFCURVE",
"936 -53 CURVE",
"914 -62 OFFCURVE",
"894 -67 OFFCURVE",
"876 -67 CURVE",
"839 -67 OFFCURVE",
"808 -63 OFFCURVE",
"783 -54 CURVE",
"758 -45 OFFCURVE",
"746 -35 OFFCURVE",
"746 -24 CURVE",
"746 -6 OFFCURVE",
"764 12 OFFCURVE",
"799 29 CURVE",
"834 46 OFFCURVE",
"866 54 OFFCURVE",
"897 54 CURVE",
"938 54 OFFCURVE",
"967 51 OFFCURVE",
"985 45 CURVE"
);
},
{
closed = 1;
nodes = (
"1313 36 OFFCURVE",
"1326 21 OFFCURVE",
"1326 2 CURVE",
"1326 -13 OFFCURVE",
"1313 -28 OFFCURVE",
"1288 -43 CURVE",
"1262 -57 OFFCURVE",
"1233 -64 OFFCURVE",
"1201 -64 CURVE",
"1177 -64 OFFCURVE",
"1156 -61 OFFCURVE",
"1138 -54 CURVE",
"1120 -47 OFFCURVE",
"1107 -38 OFFCURVE",
"1100 -29 CURVE",
"1092 -20 OFFCURVE",
"1088 -10 OFFCURVE",
"1088 0 CURVE",
"1088 15 OFFCURVE",
"1099 30 OFFCURVE",
"1122 45 CURVE",
"1145 59 OFFCURVE",
"1169 66 OFFCURVE",
"1196 66 CURVE",
"1231 66 OFFCURVE",
"1262 60 OFFCURVE",
"1288 48 CURVE"
);
}
);
width = 1405;
}
);
unicode = F091;
},
{
glyphname = uniF092;
lastChange = "2018-05-24 11:53:21 +0000";
layers = (
{
layerId = "02376AAC-77FF-49DA-9399-294AF7A35492";
paths = (
{
closed = 1;
nodes = (
"1078 245 OFFCURVE",
"1072 241 OFFCURVE",
"1061 232 CURVE SMOOTH",
"1050 223 OFFCURVE",
"1039 213 OFFCURVE",
"1028 204 CURVE",
"1017 194 OFFCURVE",
"1011 189 OFFCURVE",
"1011 188 CURVE SMOOTH",
"1011 185 LINE",
"1010 182 OFFCURVE",
"1010 179 OFFCURVE",
"1010 175 CURVE SMOOTH",
"1010 160 LINE",
"1010 141 LINE",
"1010 117 LINE",
"985 128 OFFCURVE",
"952 134 OFFCURVE",
"911 134 CURVE SMOOTH",
"883 134 OFFCURVE",
"859 131 OFFCURVE",
"838 124 CURVE SMOOTH",
"817 117 OFFCURVE",
"803 109 OFFCURVE",
"794 100 CURVE SMOOTH",
"770 76 LINE SMOOTH",
"763 69 OFFCURVE",
"757 65 OFFCURVE",
"754 65 CURVE SMOOTH",
"752 65 OFFCURVE",
"748 69 OFFCURVE",
"741 77 CURVE",
"734 84 OFFCURVE",
"726 93 OFFCURVE",
"717 102 CURVE",
"707 111 OFFCURVE",
"690 120 OFFCURVE",
"667 128 CURVE",
"644 135 OFFCURVE",
"617 139 OFFCURVE",
"586 139 CURVE SMOOTH",
"563 139 OFFCURVE",
"541 137 OFFCURVE",
"520 133 CURVE SMOOTH",
"499 129 OFFCURVE",
"483 124 OFFCURVE",
"470 118 CURVE SMOOTH",
"457 112 OFFCURVE",
"445 106 OFFCURVE",
"436 100 CURVE",
"426 94 OFFCURVE",
"418 89 OFFCURVE",
"413 85 CURVE",
"407 81 OFFCURVE",
"403 79 OFFCURVE",
"402 79 CURVE SMOOTH",
"400 79 OFFCURVE",
"396 82 OFFCURVE",
"391 87 CURVE SMOOTH",
"386 92 OFFCURVE",
"379 99 OFFCURVE",
"371 106 CURVE SMOOTH",
"363 113 OFFCURVE",
"349 119 OFFCURVE",
"330 124 CURVE SMOOTH",
"311 129 OFFCURVE",
"288 132 OFFCURVE",
"263 132 CURVE SMOOTH",
"231 132 OFFCURVE",
"197 122 OFFCURVE",
"160 101 CURVE SMOOTH",
"123 80 OFFCURVE",
"94 54 OFFCURVE",
"73 25 CURVE",
"74 100 OFFCURVE",
"75 150 OFFCURVE",
"75 174 CURVE SMOOTH",
"75 240 LINE",
"73 240 OFFCURVE",
"61 231 OFFCURVE",
"39 213 CURVE SMOOTH",
"17 195 OFFCURVE",
"6 185 OFFCURVE",
"6 183 CURVE SMOOTH",
"6 182 OFFCURVE",
"6 177 OFFCURVE",
"5 166 CURVE",
"5 125 LINE SMOOTH",
"5 108 OFFCURVE",
"5 88 OFFCURVE",
"4 66 CURVE",
"4 43 OFFCURVE",
"4 20 OFFCURVE",
"3 -4 CURVE",
"3 -77 LINE",
"3 -147 LINE",
"3 -205 LINE",
"4 -222 OFFCURVE",
"4 -235 OFFCURVE",
"4 -245 CURVE",
"5 -255 OFFCURVE",
"5 -260 OFFCURVE",
"6 -260 CURVE SMOOTH",
"7 -260 OFFCURVE",
"12 -257 OFFCURVE",
"22 -251 CURVE SMOOTH",
"32 -245 OFFCURVE",
"42 -239 OFFCURVE",
"52 -232 CURVE SMOOTH",
"62 -225 OFFCURVE",
"67 -221 OFFCURVE",
"67 -220 CURVE SMOOTH",
"67 -217 LINE",
"67 -209 LINE",
"68 -205 OFFCURVE",
"68 -201 OFFCURVE",
"68 -196 CURVE SMOOTH",
"68 -178 LINE",
"68 -157 LINE",
"69 -150 OFFCURVE",
"69 -142 OFFCURVE",
"69 -133 CURVE SMOOTH",
"69 -124 OFFCURVE",
"69 -114 OFFCURVE",
"70 -105 CURVE",
"97 -132 OFFCURVE",
"141 -146 OFFCURVE",
"203 -146 CURVE SMOOTH",
"228 -146 OFFCURVE",
"251 -142 OFFCURVE",
"274 -134 CURVE SMOOTH",
"296 -126 OFFCURVE",
"313 -117 OFFCURVE",
"326 -108 CURVE SMOOTH",
"339 -99 OFFCURVE",
"350 -90 OFFCURVE",
"360 -82 CURVE",
"369 -74 OFFCURVE",
"375 -70 OFFCURVE",
"376 -70 CURVE SMOOTH",
"377 -70 OFFCURVE",
"379 -72 OFFCURVE",
"382 -76 CURVE SMOOTH",
"385 -80 OFFCURVE",
"391 -85 OFFCURVE",
"398 -91 CURVE",
"405 -96 OFFCURVE",
"413 -102 OFFCURVE",
"423 -108 CURVE",
"433 -113 OFFCURVE",
"447 -118 OFFCURVE",
"465 -122 CURVE SMOOTH",
"483 -126 OFFCURVE",
"503 -128 OFFCURVE",
"525 -128 CURVE SMOOTH",
"551 -128 OFFCURVE",
"574 -126 OFFCURVE",
"595 -122 CURVE",
"616 -117 OFFCURVE",
"632 -112 OFFCURVE",
"643 -106 CURVE",
"654 -99 OFFCURVE",
"663 -93 OFFCURVE",
"670 -87 CURVE",
"686 -71 LINE",
"689 -66 OFFCURVE",
"692 -64 OFFCURVE",
"694 -64 CURVE SMOOTH",
"696 -64 OFFCURVE",
"698 -66 OFFCURVE",
"700 -71 CURVE",
"702 -75 OFFCURVE",
"706 -80 OFFCURVE",
"711 -86 CURVE SMOOTH",
"716 -92 OFFCURVE",
"723 -98 OFFCURVE",
"733 -104 CURVE",
"742 -110 OFFCURVE",
"757 -115 OFFCURVE",
"778 -120 CURVE",
"799 -124 OFFCURVE",
"823 -126 OFFCURVE",
"852 -126 CURVE SMOOTH",
"879 -126 OFFCURVE",
"906 -119 OFFCURVE",
"934 -106 CURVE SMOOTH",
"962 -93 OFFCURVE",
"987 -76 OFFCURVE",
"1009 -56 CURVE",
"1006 -488 OFFCURVE",
"1007 -704 OFFCURVE",
"1010 -704 CURVE SMOOTH",
"1011 -704 OFFCURVE",
"1022 -698 OFFCURVE",
"1042 -685 CURVE SMOOTH",
"1061 -672 OFFCURVE",
"1071 -665 OFFCURVE",
"1071 -663 CURVE SMOOTH",
"1072 -612 LINE SMOOTH",
"1072 -578 OFFCURVE",
"1072 -535 OFFCURVE",
"1073 -482 CURVE SMOOTH",
"1074 -429 OFFCURVE",
"1075 -370 OFFCURVE",
"1076 -305 CURVE SMOOTH",
"1077 -240 OFFCURVE",
"1077 -176 OFFCURVE",
"1078 -112 CURVE SMOOTH",
"1079 -47 OFFCURVE",
"1079 12 OFFCURVE",
"1080 65 CURVE SMOOTH",
"1080 195 LINE SMOOTH",
"1080 228 OFFCURVE",
"1080 245 OFFCURVE",
"1079 245 CURVE SMOOTH"
);
},
{
closed = 1;
nodes = (
"197 -77 OFFCURVE",
"175 -74 OFFCURVE",
"155 -69 CURVE SMOOTH",
"134 -63 OFFCURVE",
"118 -55 OFFCURVE",
"107 -46 CURVE SMOOTH",
"96 -37 OFFCURVE",
"90 -27 OFFCURVE",
"90 -17 CURVE SMOOTH",
"90 -2 OFFCURVE",
"103 16 OFFCURVE",
"128 35 CURVE SMOOTH",
"153 54 OFFCURVE",
"187 63 OFFCURVE",
"229 63 CURVE SMOOTH",
"252 63 OFFCURVE",
"275 58 OFFCURVE",
"296 48 CURVE",
"317 37 OFFCURVE",
"332 26 OFFCURVE",
"343 14 CURVE",
"354 1 OFFCURVE",
"359 -9 OFFCURVE",
"359 -18 CURVE SMOOTH",
"359 -35 OFFCURVE",
"347 -50 OFFCURVE",
"324 -61 CURVE SMOOTH",
"300 -72 OFFCURVE",
"265 -77 OFFCURVE",
"220 -77 CURVE SMOOTH"
);
},
{
closed = 1;
nodes = (
"541 -49 OFFCURVE",
"509 -41 OFFCURVE",
"474 -24 CURVE SMOOTH",
"439 -7 OFFCURVE",
"421 11 OFFCURVE",
"421 29 CURVE SMOOTH",
"421 40 OFFCURVE",
"433 50 OFFCURVE",
"458 59 CURVE SMOOTH",
"483 68 OFFCURVE",
"514 72 OFFCURVE",
"551 72 CURVE SMOOTH",
"569 72 OFFCURVE",
"589 67 OFFCURVE",
"611 58 CURVE SMOOTH",
"633 49 OFFCURVE",
"651 38 OFFCURVE",
"666 26 CURVE",
"680 13 OFFCURVE",
"687 3 OFFCURVE",
"687 -6 CURVE SMOOTH",
"687 -23 OFFCURVE",
"678 -34 OFFCURVE",
"660 -40 CURVE SMOOTH",
"642 -46 OFFCURVE",
"613 -49 OFFCURVE",
"572 -49 CURVE SMOOTH"
);
},
{
closed = 1;
nodes = (
"844 -61 OFFCURVE",
"820 -54 OFFCURVE",
"797 -40 CURVE SMOOTH",
"774 -25 OFFCURVE",
"763 -10 OFFCURVE",
"763 5 CURVE SMOOTH",
"763 15 OFFCURVE",
"767 25 OFFCURVE",
"775 34 CURVE",
"782 43 OFFCURVE",
"795 52 OFFCURVE",
"813 59 CURVE SMOOTH",
"831 66 OFFCURVE",
"852 69 OFFCURVE",
"876 69 CURVE SMOOTH",
"908 69 OFFCURVE",
"937 62 OFFCURVE",
"963 48 CURVE",
"988 33 OFFCURVE",
"1001 18 OFFCURVE",
"1001 3 CURVE SMOOTH",
"1001 -16 OFFCURVE",
"988 -31 OFFCURVE",
"963 -43 CURVE SMOOTH",
"937 -55 OFFCURVE",
"906 -61 OFFCURVE",
"871 -61 CURVE SMOOTH"
);
}
);
width = 1086;
}
);
note = q;
unicode = F092;
},
{
glyphname = uniF093;
lastChange = "2018-05-24 11:53:36 +0000";
layers = (
{
layerId = "02376AAC-77FF-49DA-9399-294AF7A35492";
paths = (
{
closed = 1;
nodes = (
"985 32 OFFCURVE",
"998 17 OFFCURVE",
"998 -2 CURVE",
"998 -17 OFFCURVE",
"985 -32 OFFCURVE",
"960 -47 CURVE",
"934 -61 OFFCURVE",
"905 -68 OFFCURVE",
"873 -68 CURVE",
"849 -68 OFFCURVE",
"828 -65 OFFCURVE",
"810 -58 CURVE",
"792 -51 OFFCURVE",
"779 -42 OFFCURVE",
"772 -33 CURVE",
"764 -24 OFFCURVE",
"760 -14 OFFCURVE",
"760 -4 CURVE",
"760 11 OFFCURVE",
"771 26 OFFCURVE",
"794 41 CURVE",
"817 55 OFFCURVE",
"841 62 OFFCURVE",
"868 62 CURVE",
"903 62 OFFCURVE",
"934 56 OFFCURVE",
"960 44 CURVE"
);
},
{
closed = 1;
nodes = (
"675 35 OFFCURVE",
"684 24 OFFCURVE",
"684 7 CURVE",
"684 -2 OFFCURVE",
"677 -12 OFFCURVE",
"663 -25 CURVE",
"648 -37 OFFCURVE",
"630 -48 OFFCURVE",
"608 -57 CURVE",
"586 -66 OFFCURVE",
"566 -71 OFFCURVE",
"548 -71 CURVE",
"511 -71 OFFCURVE",
"480 -67 OFFCURVE",
"455 -58 CURVE",
"430 -49 OFFCURVE",
"418 -39 OFFCURVE",
"418 -28 CURVE",
"418 -10 OFFCURVE",
"436 8 OFFCURVE",
"471 25 CURVE",
"506 42 OFFCURVE",
"538 50 OFFCURVE",
"569 50 CURVE",
"610 50 OFFCURVE",
"639 47 OFFCURVE",
"657 41 CURVE"
);
},
{
closed = 1;
nodes = (
"344 51 OFFCURVE",
"356 36 OFFCURVE",
"356 19 CURVE",
"356 10 OFFCURVE",
"351 0 OFFCURVE",
"340 -13 CURVE",
"329 -25 OFFCURVE",
"314 -36 OFFCURVE",
"293 -47 CURVE",
"272 -57 OFFCURVE",
"249 -62 OFFCURVE",
"226 -62 CURVE",
"184 -62 OFFCURVE",
"150 -53 OFFCURVE",
"125 -34 CURVE",
"100 -15 OFFCURVE",
"87 3 OFFCURVE",
"87 18 CURVE",
"87 28 OFFCURVE",
"93 38 OFFCURVE",
"104 47 CURVE",
"115 56 OFFCURVE",
"131 64 OFFCURVE",
"152 70 CURVE",
"172 75 OFFCURVE",
"194 78 OFFCURVE",
"217 78 CURVE",
"262 78 OFFCURVE",
"297 73 OFFCURVE",
"321 62 CURVE"
);
},
{
closed = 1;
nodes = (
"1077 -64 LINE",
"1076 -11 OFFCURVE",
"1076 48 OFFCURVE",
"1075 113 CURVE",
"1074 177 OFFCURVE",
"1074 241 OFFCURVE",
"1073 306 CURVE",
"1072 371 OFFCURVE",
"1071 430 OFFCURVE",
"1070 483 CURVE",
"1069 536 OFFCURVE",
"1069 579 OFFCURVE",
"1069 613 CURVE",
"1068 664 LINE",
"1068 666 OFFCURVE",
"1058 673 OFFCURVE",
"1039 686 CURVE",
"1019 699 OFFCURVE",
"1008 705 OFFCURVE",
"1007 705 CURVE",
"1004 705 OFFCURVE",
"1003 489 OFFCURVE",
"1006 57 CURVE",
"984 77 OFFCURVE",
"959 94 OFFCURVE",
"931 107 CURVE",
"903 120 OFFCURVE",
"876 127 OFFCURVE",
"849 127 CURVE",
"820 127 OFFCURVE",
"796 125 OFFCURVE",
"775 121 CURVE",
"754 116 OFFCURVE",
"739 111 OFFCURVE",
"730 105 CURVE",
"720 99 OFFCURVE",
"713 93 OFFCURVE",
"708 87 CURVE",
"703 81 OFFCURVE",
"699 76 OFFCURVE",
"697 72 CURVE",
"695 67 OFFCURVE",
"693 65 OFFCURVE",
"691 65 CURVE",
"689 65 OFFCURVE",
"686 67 OFFCURVE",
"683 72 CURVE",
"667 88 LINE",
"660 94 OFFCURVE",
"651 100 OFFCURVE",
"640 107 CURVE",
"629 113 OFFCURVE",
"613 118 OFFCURVE",
"592 123 CURVE",
"571 127 OFFCURVE",
"548 129 OFFCURVE",
"522 129 CURVE",
"500 129 OFFCURVE",
"480 127 OFFCURVE",
"462 123 CURVE",
"444 119 OFFCURVE",
"430 114 OFFCURVE",
"420 109 CURVE",
"410 103 OFFCURVE",
"402 97 OFFCURVE",
"395 92 CURVE",
"388 86 OFFCURVE",
"382 81 OFFCURVE",
"379 77 CURVE",
"376 73 OFFCURVE",
"374 71 OFFCURVE",
"373 71 CURVE",
"372 71 OFFCURVE",
"366 75 OFFCURVE",
"357 83 CURVE",
"347 91 OFFCURVE",
"336 100 OFFCURVE",
"323 109 CURVE",
"310 118 OFFCURVE",
"293 127 OFFCURVE",
"271 135 CURVE",
"248 143 OFFCURVE",
"225 147 OFFCURVE",
"200 147 CURVE",
"138 147 OFFCURVE",
"94 133 OFFCURVE",
"67 106 CURVE",
"66 115 OFFCURVE",
"66 125 OFFCURVE",
"66 134 CURVE",
"66 143 OFFCURVE",
"66 151 OFFCURVE",
"65 158 CURVE",
"65 179 LINE",
"65 197 LINE",
"65 202 OFFCURVE",
"65 206 OFFCURVE",
"64 210 CURVE",
"64 218 LINE",
"64 221 LINE",
"64 222 OFFCURVE",
"59 226 OFFCURVE",
"49 233 CURVE",
"39 240 OFFCURVE",
"29 246 OFFCURVE",
"19 252 CURVE",
"9 258 OFFCURVE",
"4 261 OFFCURVE",
"3 261 CURVE",
"2 261 OFFCURVE",
"2 256 OFFCURVE",
"1 246 CURVE",
"1 236 OFFCURVE",
"1 223 OFFCURVE",
"0 206 CURVE",
"0 148 LINE",
"0 78 LINE",
"0 5 LINE",
"1 -19 OFFCURVE",
"1 -42 OFFCURVE",
"1 -65 CURVE",
"2 -87 OFFCURVE",
"2 -107 OFFCURVE",
"2 -124 CURVE",
"2 -165 LINE",
"3 -176 OFFCURVE",
"3 -181 OFFCURVE",
"3 -182 CURVE",
"3 -184 OFFCURVE",
"14 -194 OFFCURVE",
"36 -212 CURVE",
"58 -230 OFFCURVE",
"70 -239 OFFCURVE",
"72 -239 CURVE",
"72 -173 LINE",
"72 -149 OFFCURVE",
"71 -99 OFFCURVE",
"70 -24 CURVE",
"91 -53 OFFCURVE",
"120 -79 OFFCURVE",
"157 -100 CURVE",
"194 -121 OFFCURVE",
"228 -131 OFFCURVE",
"260 -131 CURVE",
"285 -131 OFFCURVE",
"308 -128 OFFCURVE",
"327 -123 CURVE",
"346 -118 OFFCURVE",
"360 -112 OFFCURVE",
"368 -105 CURVE",
"376 -98 OFFCURVE",
"383 -91 OFFCURVE",
"388 -86 CURVE",
"393 -81 OFFCURVE",
"397 -78 OFFCURVE",
"399 -78 CURVE",
"400 -78 OFFCURVE",
"404 -80 OFFCURVE",
"410 -84 CURVE",
"415 -88 OFFCURVE",
"423 -93 OFFCURVE",
"433 -99 CURVE",
"442 -105 OFFCURVE",
"454 -111 OFFCURVE",
"467 -117 CURVE",
"480 -123 OFFCURVE",
"496 -128 OFFCURVE",
"517 -132 CURVE",
"538 -136 OFFCURVE",
"560 -138 OFFCURVE",
"583 -138 CURVE",
"614 -138 OFFCURVE",
"641 -134 OFFCURVE",
"664 -127 CURVE",
"687 -119 OFFCURVE",
"704 -110 OFFCURVE",
"714 -101 CURVE",
"723 -92 OFFCURVE",
"731 -83 OFFCURVE",
"738 -76 CURVE",
"745 -68 OFFCURVE",
"749 -64 OFFCURVE",
"751 -64 CURVE",
"754 -64 OFFCURVE",
"760 -68 OFFCURVE",
"767 -75 CURVE",
"791 -99 LINE",
"800 -108 OFFCURVE",
"814 -116 OFFCURVE",
"835 -123 CURVE",
"856 -130 OFFCURVE",
"880 -133 OFFCURVE",
"908 -133 CURVE",
"949 -133 OFFCURVE",
"982 -127 OFFCURVE",
"1007 -116 CURVE",
"1007 -140 LINE",
"1007 -159 LINE",
"1007 -174 LINE",
"1007 -178 OFFCURVE",
"1007 -181 OFFCURVE",
"1008 -184 CURVE",
"1008 -187 LINE",
"1008 -188 OFFCURVE",
"1014 -193 OFFCURVE",
"1025 -203 CURVE",
"1036 -212 OFFCURVE",
"1047 -222 OFFCURVE",
"1058 -231 CURVE",
"1069 -240 OFFCURVE",
"1075 -244 OFFCURVE",
"1076 -244 CURVE",
"1077 -244 OFFCURVE",
"1077 -227 OFFCURVE",
"1077 -194 CURVE"
);
}
);
width = 1077;
}
);
unicode = F093;
},
{
glyphname = uniE95C;
lastChange = "2018-05-31 18:23:23 +0000";
layers = (
{
layerId = "02376AAC-77FF-49DA-9399-294AF7A35492";
paths = (
{
closed = 1;
nodes = (
"522 -75 OFFCURVE",
"492 -81 OFFCURVE",
"461 -81 CURVE",
"426 -81 OFFCURVE",
"400 -73 OFFCURVE",
"385 -58 CURVE",
"370 -43 OFFCURVE",
"362 -26 OFFCURVE",
"362 -8 CURVE",
"362 11 OFFCURVE",
"374 28 OFFCURVE",
"397 41 CURVE",
"420 55 OFFCURVE",
"448 62 OFFCURVE",
"481 62 CURVE",
"512 62 OFFCURVE",
"539 53 OFFCURVE",
"561 36 CURVE",
"583 19 OFFCURVE",
"594 2 OFFCURVE",
"594 -15 CURVE",
"594 -34 OFFCURVE",
"580 -50 OFFCURVE",
"551 -63 CURVE"
);
},
{
closed = 1;
nodes = (
"224 -66 OFFCURVE",
"196 -74 OFFCURVE",
"167 -74 CURVE",
"147 -74 OFFCURVE",
"128 -67 OFFCURVE",
"109 -52 CURVE",
"89 -37 OFFCURVE",
"80 -18 OFFCURVE",
"80 6 CURVE",
"80 20 OFFCURVE",
"89 33 OFFCURVE",
"107 45 CURVE",
"124 58 OFFCURVE",
"145 64 OFFCURVE",
"170 64 CURVE",
"205 64 OFFCURVE",
"234 58 OFFCURVE",
"257 46 CURVE",
"280 35 OFFCURVE",
"292 19 OFFCURVE",
"292 0 CURVE",
"292 -18 OFFCURVE",
"278 -35 OFFCURVE",
"251 -51 CURVE"
);
},
{
closed = 1;
nodes = (
"674 193 OFFCURVE",
"674 209 OFFCURVE",
"673 209 CURVE",
"672 209 OFFCURVE",
"662 200 OFFCURVE",
"643 183 CURVE",
"624 166 OFFCURVE",
"614 156 OFFCURVE",
"614 155 CURVE",
"614 137 OFFCURVE",
"614 114 OFFCURVE",
"613 86 CURVE",
"590 109 OFFCURVE",
"552 120 OFFCURVE",
"497 120 CURVE",
"482 120 OFFCURVE",
"465 117 OFFCURVE",
"448 110 CURVE",
"430 103 OFFCURVE",
"415 95 OFFCURVE",
"403 87 CURVE",
"390 79 OFFCURVE",
"379 72 OFFCURVE",
"370 65 CURVE",
"361 58 OFFCURVE",
"355 55 OFFCURVE",
"354 55 CURVE",
"353 55 OFFCURVE",
"352 57 OFFCURVE",
"349 62 CURVE",
"346 67 OFFCURVE",
"341 73 OFFCURVE",
"336 80 CURVE",
"330 87 OFFCURVE",
"322 94 OFFCURVE",
"313 101 CURVE",
"304 108 OFFCURVE",
"290 114 OFFCURVE",
"273 119 CURVE",
"256 124 OFFCURVE",
"236 126 OFFCURVE",
"214 126 CURVE",
"150 126 OFFCURVE",
"99 101 OFFCURVE",
"60 52 CURVE",
"61 81 OFFCURVE",
"62 108 OFFCURVE",
"62 135 CURVE",
"62 198 LINE",
"62 213 OFFCURVE",
"62 220 OFFCURVE",
"61 220 CURVE",
"60 220 OFFCURVE",
"50 211 OFFCURVE",
"31 194 CURVE",
"12 177 OFFCURVE",
"2 167 OFFCURVE",
"2 166 CURVE",
"1 142 LINE",
"1 81 LINE",
"1 56 OFFCURVE",
"1 29 OFFCURVE",
"0 0 CURVE",
"0 -90 LINE",
"0 -171 LINE",
"0 -230 LINE",
"0 -245 OFFCURVE",
"0 -253 OFFCURVE",
"1 -253 CURVE",
"2 -253 OFFCURVE",
"12 -247 OFFCURVE",
"29 -236 CURVE",
"46 -224 OFFCURVE",
"55 -217 OFFCURVE",
"55 -216 CURVE",
"55 -183 OFFCURVE",
"56 -144 OFFCURVE",
"57 -100 CURVE",
"76 -123 OFFCURVE",
"105 -134 OFFCURVE",
"143 -134 CURVE",
"161 -134 OFFCURVE",
"178 -131 OFFCURVE",
"195 -125 CURVE",
"212 -118 OFFCURVE",
"226 -111 OFFCURVE",
"238 -102 CURVE",
"249 -93 OFFCURVE",
"260 -84 OFFCURVE",
"269 -75 CURVE",
"278 -66 OFFCURVE",
"285 -58 OFFCURVE",
"290 -52 CURVE",
"295 -45 OFFCURVE",
"297 -42 OFFCURVE",
"298 -42 CURVE",
"299 -42 OFFCURVE",
"299 -44 OFFCURVE",
"300 -48 CURVE",
"300 -51 OFFCURVE",
"301 -56 OFFCURVE",
"302 -62 CURVE",
"303 -68 OFFCURVE",
"305 -75 OFFCURVE",
"308 -82 CURVE",
"310 -89 OFFCURVE",
"314 -96 OFFCURVE",
"320 -103 CURVE",
"325 -110 OFFCURVE",
"332 -117 OFFCURVE",
"341 -123 CURVE",
"349 -129 OFFCURVE",
"360 -134 OFFCURVE",
"375 -138 CURVE",
"389 -141 OFFCURVE",
"405 -143 OFFCURVE",
"424 -143 CURVE",
"461 -143 OFFCURVE",
"496 -135 OFFCURVE",
"531 -120 CURVE",
"566 -104 OFFCURVE",
"593 -84 OFFCURVE",
"612 -59 CURVE",
"612 -319 LINE",
"611 -442 OFFCURVE",
"611 -534 OFFCURVE",
"612 -596 CURVE",
"612 -658 OFFCURVE",
"612 -689 OFFCURVE",
"613 -689 CURVE",
"614 -689 OFFCURVE",
"624 -683 OFFCURVE",
"641 -671 CURVE",
"658 -659 OFFCURVE",
"667 -652 OFFCURVE",
"667 -651 CURVE",
"668 -603 LINE",
"668 -570 OFFCURVE",
"668 -529 OFFCURVE",
"669 -479 CURVE",
"670 -428 OFFCURVE",
"670 -372 OFFCURVE",
"671 -311 CURVE",
"672 -250 OFFCURVE",
"672 -189 OFFCURVE",
"673 -128 CURVE",
"673 -67 OFFCURVE",
"673 -12 OFFCURVE",
"674 39 CURVE",
"674 162 LINE"
);
}
);
width = 674;
}
);
note = uniE95C;
unicode = E95C;
},
{
glyphname = uniF094;
lastChange = "2018-05-24 15:53:56 +0000";
layers = (
{
layerId = "02376AAC-77FF-49DA-9399-294AF7A35492";
paths = (
{
closed = 1;
nodes = (
"580 49 OFFCURVE",
"594 33 OFFCURVE",
"594 14 CURVE",
"594 -3 OFFCURVE",
"583 -20 OFFCURVE",
"561 -37 CURVE",
"539 -54 OFFCURVE",
"512 -63 OFFCURVE",
"481 -63 CURVE",
"448 -63 OFFCURVE",
"420 -56 OFFCURVE",
"397 -42 CURVE",
"374 -29 OFFCURVE",
"362 -12 OFFCURVE",
"362 7 CURVE",
"362 25 OFFCURVE",
"370 42 OFFCURVE",
"385 57 CURVE",
"400 72 OFFCURVE",
"426 80 OFFCURVE",
"461 80 CURVE",
"492 80 OFFCURVE",
"522 74 OFFCURVE",
"551 62 CURVE"
);
},
{
closed = 1;
nodes = (
"278 34 OFFCURVE",
"292 17 OFFCURVE",
"292 -1 CURVE",
"292 -20 OFFCURVE",
"280 -36 OFFCURVE",
"257 -47 CURVE",
"234 -59 OFFCURVE",
"205 -65 OFFCURVE",
"170 -65 CURVE",
"145 -65 OFFCURVE",
"124 -59 OFFCURVE",
"107 -46 CURVE",
"89 -34 OFFCURVE",
"80 -21 OFFCURVE",
"80 -7 CURVE",
"80 17 OFFCURVE",
"89 36 OFFCURVE",
"109 51 CURVE",
"128 66 OFFCURVE",
"147 73 OFFCURVE",
"167 73 CURVE",
"196 73 OFFCURVE",
"224 65 OFFCURVE",
"251 50 CURVE"
);
},
{
closed = 1;
nodes = (
"674 -40 LINE",
"673 11 OFFCURVE",
"673 66 OFFCURVE",
"673 127 CURVE",
"672 188 OFFCURVE",
"672 249 OFFCURVE",
"671 310 CURVE",
"670 371 OFFCURVE",
"670 427 OFFCURVE",
"669 478 CURVE",
"668 528 OFFCURVE",
"668 569 OFFCURVE",
"668 602 CURVE",
"667 650 LINE",
"667 651 OFFCURVE",
"658 658 OFFCURVE",
"641 670 CURVE",
"624 682 OFFCURVE",
"614 688 OFFCURVE",
"613 688 CURVE",
"612 688 OFFCURVE",
"612 657 OFFCURVE",
"612 595 CURVE",
"611 533 OFFCURVE",
"611 441 OFFCURVE",
"612 318 CURVE",
"612 58 LINE",
"593 83 OFFCURVE",
"566 103 OFFCURVE",
"531 119 CURVE",
"496 134 OFFCURVE",
"461 142 OFFCURVE",
"424 142 CURVE",
"405 142 OFFCURVE",
"389 140 OFFCURVE",
"375 137 CURVE",
"360 133 OFFCURVE",
"349 128 OFFCURVE",
"341 122 CURVE",
"332 116 OFFCURVE",
"325 109 OFFCURVE",
"320 102 CURVE",
"314 95 OFFCURVE",
"310 88 OFFCURVE",
"308 81 CURVE",
"305 74 OFFCURVE",
"303 67 OFFCURVE",
"302 61 CURVE",
"301 55 OFFCURVE",
"300 50 OFFCURVE",
"300 47 CURVE",
"299 43 OFFCURVE",
"299 41 OFFCURVE",
"298 41 CURVE",
"297 41 OFFCURVE",
"295 44 OFFCURVE",
"290 51 CURVE",
"285 57 OFFCURVE",
"278 65 OFFCURVE",
"269 74 CURVE",
"260 83 OFFCURVE",
"249 92 OFFCURVE",
"238 101 CURVE",
"226 110 OFFCURVE",
"212 117 OFFCURVE",
"195 124 CURVE",
"178 130 OFFCURVE",
"161 133 OFFCURVE",
"143 133 CURVE",
"105 133 OFFCURVE",
"76 122 OFFCURVE",
"57 99 CURVE",
"56 143 OFFCURVE",
"55 182 OFFCURVE",
"55 215 CURVE",
"55 216 OFFCURVE",
"46 223 OFFCURVE",
"29 235 CURVE",
"12 246 OFFCURVE",
"2 252 OFFCURVE",
"1 252 CURVE",
"0 252 OFFCURVE",
"0 244 OFFCURVE",
"0 229 CURVE",
"0 170 LINE",
"0 89 LINE",
"0 -1 LINE",
"1 -30 OFFCURVE",
"1 -57 OFFCURVE",
"1 -82 CURVE",
"1 -143 LINE",
"2 -167 LINE",
"2 -168 OFFCURVE",
"12 -178 OFFCURVE",
"31 -195 CURVE",
"50 -212 OFFCURVE",
"60 -221 OFFCURVE",
"61 -221 CURVE",
"62 -221 OFFCURVE",
"62 -214 OFFCURVE",
"62 -199 CURVE",
"62 -136 LINE",
"62 -109 OFFCURVE",
"61 -82 OFFCURVE",
"60 -53 CURVE",
"99 -102 OFFCURVE",
"150 -127 OFFCURVE",
"214 -127 CURVE",
"236 -127 OFFCURVE",
"256 -125 OFFCURVE",
"273 -120 CURVE",
"290 -115 OFFCURVE",
"304 -109 OFFCURVE",
"313 -102 CURVE",
"322 -95 OFFCURVE",
"330 -88 OFFCURVE",
"336 -81 CURVE",
"341 -74 OFFCURVE",
"346 -68 OFFCURVE",
"349 -63 CURVE",
"352 -58 OFFCURVE",
"353 -56 OFFCURVE",
"354 -56 CURVE",
"355 -56 OFFCURVE",
"361 -59 OFFCURVE",
"370 -66 CURVE",
"379 -73 OFFCURVE",
"390 -80 OFFCURVE",
"403 -88 CURVE",
"415 -96 OFFCURVE",
"430 -104 OFFCURVE",
"448 -111 CURVE",
"465 -118 OFFCURVE",
"482 -121 OFFCURVE",
"497 -121 CURVE",
"552 -121 OFFCURVE",
"590 -110 OFFCURVE",
"613 -87 CURVE",
"614 -115 OFFCURVE",
"614 -138 OFFCURVE",
"614 -156 CURVE",
"614 -157 OFFCURVE",
"624 -167 OFFCURVE",
"643 -184 CURVE",
"662 -201 OFFCURVE",
"672 -210 OFFCURVE",
"673 -210 CURVE",
"674 -210 OFFCURVE",
"674 -194 OFFCURVE",
"674 -163 CURVE"
);
}
);
width = 674;
}
);
unicode = F094;
},
{
glyphname = uniE933;
lastChange = "2019-03-27 08:28:30 +0000";
layers = (
{
layerId = "02376AAC-77FF-49DA-9399-294AF7A35492";
paths = (
{
closed = 1;
nodes = (
"763 260 OFFCURVE",
"701 204 OFFCURVE",
"701 201 CURVE SMOOTH",
"701 198 OFFCURVE",
"700 150 OFFCURVE",
"699 85 CURVE",
"677 117 OFFCURVE",
"628 152 OFFCURVE",
"543 152 CURVE SMOOTH",
"429 152 OFFCURVE",
"391 75 OFFCURVE",
"377 75 CURVE SMOOTH",
"367 75 OFFCURVE",
"345 156 OFFCURVE",
"201 156 CURVE SMOOTH",
"143 156 OFFCURVE",
"97 123 OFFCURVE",
"68 83 CURVE",
"71 179 OFFCURVE",
"71 260 OFFCURVE",
"69 260 CURVE SMOOTH",
"65 260 OFFCURVE",
"3 204 OFFCURVE",
"3 201 CURVE SMOOTH",
"3 194 OFFCURVE",
"-2 -265 OFFCURVE",
"2 -265 CURVE SMOOTH",
"5 -265 OFFCURVE",
"62 -226 OFFCURVE",
"62 -222 CURVE SMOOTH",
"62 -222 OFFCURVE",
"62 -174 OFFCURVE",
"64 -106 CURVE",
"88 -137 OFFCURVE",
"127 -161 OFFCURVE",
"195 -161 CURVE SMOOTH",
"300 -161 OFFCURVE",
"352 -73 OFFCURVE",
"362 -73 CURVE SMOOTH",
"369 -73 OFFCURVE",
"415 -139 OFFCURVE",
"512 -139 CURVE SMOOTH",
"570 -139 OFFCURVE",
"660 -83 OFFCURVE",
"698 -14 CURVE",
"698 -136 OFFCURVE",
"697 -265 OFFCURVE",
"700 -265 CURVE SMOOTH",
"703 -265 OFFCURVE",
"759 -226 OFFCURVE",
"759 -222 CURVE SMOOTH",
"759 -219 OFFCURVE",
"771 260 OFFCURVE",
"767 260 CURVE SMOOTH"
);
},
{
closed = 1;
nodes = (
"128 -94 OFFCURVE",
"77 -43 OFFCURVE",
"77 8 CURVE SMOOTH",
"77 65 OFFCURVE",
"117 96 OFFCURVE",
"180 96 CURVE SMOOTH",
"231 96 OFFCURVE",
"334 22 OFFCURVE",
"334 -26 CURVE SMOOTH",
"334 -63 OFFCURVE",
"282 -94 OFFCURVE",
"209 -94 CURVE SMOOTH"
);
},
{
closed = 1;
nodes = (
"466 -65 OFFCURVE",
"412 -9 OFFCURVE",
"412 22 CURVE SMOOTH",
"412 57 OFFCURVE",
"440 86 OFFCURVE",
"528 86 CURVE SMOOTH",
"595 86 OFFCURVE",
"645 23 OFFCURVE",
"645 -4 CURVE SMOOTH",
"645 -37 OFFCURVE",
"585 -65 OFFCURVE",
"518 -65 CURVE SMOOTH"
);
}
);
width = 768;
}
);
unicode = E933;
},
{
glyphname = uniE95D;
lastChange = "2018-02-06 19:39:42 +0000";
layers = (
{
layerId = "02376AAC-77FF-49DA-9399-294AF7A35492";
paths = (
{
closed = 1;
nodes = (
"412 211 OFFCURVE",
"402 202 OFFCURVE",
"383 185 CURVE SMOOTH",
"364 168 OFFCURVE",
"354 158 OFFCURVE",
"354 157 CURVE SMOOTH",
"354 139 OFFCURVE",
"354 116 OFFCURVE",
"353 88 CURVE",
"330 111 OFFCURVE",
"292 122 OFFCURVE",
"237 122 CURVE SMOOTH",
"222 122 OFFCURVE",
"205 119 OFFCURVE",
"188 112 CURVE SMOOTH",
"170 105 OFFCURVE",
"155 97 OFFCURVE",
"143 89 CURVE",
"130 81 OFFCURVE",
"119 74 OFFCURVE",
"110 67 CURVE SMOOTH",
"101 60 OFFCURVE",
"95 57 OFFCURVE",
"94 57 CURVE",
"62 31 LINE",
"63 60 OFFCURVE",
"62 110 OFFCURVE",
"62 137 CURVE SMOOTH",
"62 200 LINE SMOOTH",
"62 215 OFFCURVE",
"62 222 OFFCURVE",
"61 222 CURVE SMOOTH",
"60 222 OFFCURVE",
"50 213 OFFCURVE",
"31 196 CURVE SMOOTH",
"12 179 OFFCURVE",
"2 169 OFFCURVE",
"2 168 CURVE",
"1 144 LINE",
"1 83 LINE SMOOTH",
"1 58 OFFCURVE",
"0 31 OFFCURVE",
"0 2 CURVE SMOOTH",
"0 -88 LINE",
"0 -169 LINE",
"0 -228 LINE SMOOTH",
"0 -243 OFFCURVE",
"0 -251 OFFCURVE",
"1 -251 CURVE SMOOTH",
"2 -251 OFFCURVE",
"12 -245 OFFCURVE",
"29 -234 CURVE",
"46 -222 OFFCURVE",
"55 -215 OFFCURVE",
"55 -214 CURVE SMOOTH",
"55 -181 OFFCURVE",
"56 -142 OFFCURVE",
"57 -98 CURVE",
"60 -101 LINE",
"65 -108 OFFCURVE",
"72 -115 OFFCURVE",
"81 -121 CURVE",
"89 -127 OFFCURVE",
"100 -132 OFFCURVE",
"115 -136 CURVE",
"129 -139 OFFCURVE",
"145 -141 OFFCURVE",
"164 -141 CURVE SMOOTH",
"201 -141 OFFCURVE",
"236 -133 OFFCURVE",
"271 -118 CURVE SMOOTH",
"306 -102 OFFCURVE",
"333 -82 OFFCURVE",
"352 -57 CURVE",
"352 -317 LINE SMOOTH",
"351 -440 OFFCURVE",
"351 -532 OFFCURVE",
"352 -594 CURVE SMOOTH",
"352 -656 OFFCURVE",
"352 -687 OFFCURVE",
"353 -687 CURVE SMOOTH",
"354 -687 OFFCURVE",
"364 -681 OFFCURVE",
"381 -669 CURVE SMOOTH",
"398 -657 OFFCURVE",
"407 -650 OFFCURVE",
"407 -649 CURVE SMOOTH",
"408 -601 LINE SMOOTH",
"408 -568 OFFCURVE",
"408 -527 OFFCURVE",
"409 -477 CURVE SMOOTH",
"410 -426 OFFCURVE",
"410 -370 OFFCURVE",
"411 -309 CURVE SMOOTH",
"412 -248 OFFCURVE",
"412 -187 OFFCURVE",
"413 -126 CURVE SMOOTH",
"413 -65 OFFCURVE",
"413 -10 OFFCURVE",
"414 41 CURVE SMOOTH",
"414 164 LINE SMOOTH",
"414 195 OFFCURVE",
"414 211 OFFCURVE",
"413 211 CURVE SMOOTH"
);
},
{
closed = 1;
nodes = (
"166 -79 OFFCURVE",
"140 -71 OFFCURVE",
"125 -56 CURVE SMOOTH",
"110 -41 OFFCURVE",
"102 -24 OFFCURVE",
"102 -6 CURVE SMOOTH",
"102 13 OFFCURVE",
"114 30 OFFCURVE",
"137 43 CURVE SMOOTH",
"160 57 OFFCURVE",
"188 64 OFFCURVE",
"221 64 CURVE SMOOTH",
"252 64 OFFCURVE",
"279 55 OFFCURVE",
"301 38 CURVE SMOOTH",
"323 21 OFFCURVE",
"334 4 OFFCURVE",
"334 -13 CURVE SMOOTH",
"334 -32 OFFCURVE",
"320 -48 OFFCURVE",
"291 -61 CURVE SMOOTH",
"262 -73 OFFCURVE",
"232 -79 OFFCURVE",
"201 -79 CURVE SMOOTH"
);
}
);
width = 414;
}
);
note = uniE95D;
unicode = E95D;
},
{
glyphname = uniF096;
lastChange = "2018-06-06 20:04:26 +0000";
layers = (
{
layerId = "02376AAC-77FF-49DA-9399-294AF7A35492";
paths = (
{
closed = 1;
nodes = (
"407 816 OFFCURVE",
"340 756 OFFCURVE",
"340 751 CURVE SMOOTH",
"340 748 OFFCURVE",
"337 388 OFFCURVE",
"337 101 CURVE",
"311 125 OFFCURVE",
"274 141 OFFCURVE",
"229 141 CURVE SMOOTH",
"158 141 OFFCURVE",
"105 112 OFFCURVE",
"71 72 CURVE",
"74 195 OFFCURVE",
"75 313 OFFCURVE",
"73 313 CURVE SMOOTH",
"70 313 OFFCURVE",
"2 254 OFFCURVE",
"2 249 CURVE SMOOTH",
"2 244 OFFCURVE",
"-3 -249 OFFCURVE",
"2 -249 CURVE SMOOTH",
"5 -249 OFFCURVE",
"65 -208 OFFCURVE",
"65 -204 CURVE SMOOTH",
"65 -203 OFFCURVE",
"65 -175 OFFCURVE",
"66 -131 CURVE",
"89 -157 OFFCURVE",
"122 -177 OFFCURVE",
"181 -177 CURVE SMOOTH",
"260 -177 OFFCURVE",
"308 -143 OFFCURVE",
"337 -102 CURVE",
"337 -191 OFFCURVE",
"338 -250 OFFCURVE",
"339 -250 CURVE SMOOTH",
"342 -250 OFFCURVE",
"402 -209 OFFCURVE",
"402 -205 CURVE SMOOTH",
"402 -201 OFFCURVE",
"414 816 OFFCURVE",
"410 816 CURVE SMOOTH"
);
},
{
closed = 1;
nodes = (
"129 -112 OFFCURVE",
"86 -32 OFFCURVE",
"86 -2 CURVE SMOOTH",
"86 37 OFFCURVE",
"116 73 OFFCURVE",
"208 73 CURVE SMOOTH",
"270 73 OFFCURVE",
"315 41 OFFCURVE",
"337 10 CURVE",
"337 -76 LINE",
"318 -101 OFFCURVE",
"281 -112 OFFCURVE",
"208 -112 CURVE SMOOTH"
);
}
);
width = 411;
}
);
unicode = F096;
},
{
glyphname = uniE937;
lastChange = "2019-03-27 08:28:58 +0000";
layers = (
{
layerId = "02376AAC-77FF-49DA-9399-294AF7A35492";
paths = (
{
closed = 1;
nodes = (
"393 247 OFFCURVE",
"381 238 OFFCURVE",
"360 219 CURVE SMOOTH",
"339 200 OFFCURVE",
"328 189 OFFCURVE",
"328 187 CURVE SMOOTH",
"328 164 OFFCURVE",
"328 137 OFFCURVE",
"327 104 CURVE",
"297 127 OFFCURVE",
"255 139 OFFCURVE",
"201 139 CURVE SMOOTH",
"182 139 OFFCURVE",
"159 134 OFFCURVE",
"134 125 CURVE SMOOTH",
"109 116 OFFCURVE",
"87 103 OFFCURVE",
"69 87 CURVE",
"69 110 OFFCURVE",
"69 136 OFFCURVE",
"70 166 CURVE SMOOTH",
"70 229 LINE SMOOTH",
"70 241 OFFCURVE",
"70 247 OFFCURVE",
"69 247 CURVE SMOOTH",
"68 247 OFFCURVE",
"56 238 OFFCURVE",
"35 219 CURVE SMOOTH",
"14 200 OFFCURVE",
"3 189 OFFCURVE",
"3 187 CURVE SMOOTH",
"3 159 LINE",
"2 141 OFFCURVE",
"2 118 OFFCURVE",
"2 91 CURVE",
"1 64 OFFCURVE",
"1 33 OFFCURVE",
"1 0 CURVE SMOOTH",
"1 -100 LINE SMOOTH",
"0 -133 OFFCURVE",
"0 -163 OFFCURVE",
"0 -190 CURVE SMOOTH",
"0 -217 OFFCURVE",
"0 -240 OFFCURVE",
"1 -257 CURVE",
"1 -274 OFFCURVE",
"1 -282 OFFCURVE",
"2 -282 CURVE SMOOTH",
"4 -282 OFFCURVE",
"15 -276 OFFCURVE",
"34 -263 CURVE SMOOTH",
"53 -250 OFFCURVE",
"62 -242 OFFCURVE",
"62 -240 CURVE",
"63 -222 LINE",
"63 -210 OFFCURVE",
"63 -193 OFFCURVE",
"64 -171 CURVE",
"64 -103 LINE",
"91 -130 OFFCURVE",
"131 -143 OFFCURVE",
"184 -143 CURVE SMOOTH",
"243 -143 OFFCURVE",
"290 -124 OFFCURVE",
"325 -85 CURVE",
"325 -216 OFFCURVE",
"326 -282 OFFCURVE",
"328 -282 CURVE SMOOTH",
"329 -282 OFFCURVE",
"340 -275 OFFCURVE",
"359 -262 CURVE SMOOTH",
"378 -249 OFFCURVE",
"387 -241 OFFCURVE",
"387 -240 CURVE SMOOTH",
"388 -188 LINE SMOOTH",
"389 -153 OFFCURVE",
"390 -112 OFFCURVE",
"391 -67 CURVE SMOOTH",
"392 -21 OFFCURVE",
"393 27 OFFCURVE",
"394 77 CURVE SMOOTH",
"395 127 OFFCURVE",
"395 167 OFFCURVE",
"395 198 CURVE SMOOTH",
"395 228 OFFCURVE",
"395 244 OFFCURVE",
"394 247 CURVE"
);
},
{
closed = 1;
nodes = (
"170 -80 OFFCURVE",
"145 -75 OFFCURVE",
"122 -64 CURVE SMOOTH",
"99 -53 OFFCURVE",
"80 -39 OFFCURVE",
"66 -23 CURVE",
"68 46 LINE",
"91 61 OFFCURVE",
"130 68 OFFCURVE",
"186 68 CURVE SMOOTH",
"211 68 OFFCURVE",
"237 64 OFFCURVE",
"264 55 CURVE SMOOTH",
"291 46 OFFCURVE",
"311 34 OFFCURVE",
"326 21 CURVE",
"326 -57 LINE",
"305 -72 OFFCURVE",
"262 -80 OFFCURVE",
"199 -80 CURVE SMOOTH"
);
}
);
width = 395;
}
);
note = uniE95E;
unicode = E937;
},
{
glyphname = uniE934;
lastChange = "2019-03-27 08:28:36 +0000";
layers = (
{
layerId = "02376AAC-77FF-49DA-9399-294AF7A35492";
paths = (
{
closed = 1;
nodes = (
"371 244 OFFCURVE",
"360 235 OFFCURVE",
"340 217 CURVE SMOOTH",
"319 198 OFFCURVE",
"309 188 OFFCURVE",
"309 187 CURVE SMOOTH",
"309 182 LINE",
"309 169 LINE",
"309 150 LINE",
"308 143 OFFCURVE",
"308 134 OFFCURVE",
"308 124 CURVE SMOOTH",
"308 95 LINE",
"277 119 OFFCURVE",
"242 131 OFFCURVE",
"201 131 CURVE SMOOTH",
"180 131 OFFCURVE",
"155 123 OFFCURVE",
"128 107 CURVE SMOOTH",
"101 91 OFFCURVE",
"79 72 OFFCURVE",
"63 51 CURVE",
"64 102 OFFCURVE",
"65 147 OFFCURVE",
"66 186 CURVE SMOOTH",
"66 225 OFFCURVE",
"66 244 OFFCURVE",
"65 244 CURVE SMOOTH",
"64 244 OFFCURVE",
"53 235 OFFCURVE",
"33 217 CURVE SMOOTH",
"12 198 OFFCURVE",
"2 188 OFFCURVE",
"2 187 CURVE SMOOTH",
"2 161 LINE SMOOTH",
"2 144 OFFCURVE",
"2 122 OFFCURVE",
"1 97 CURVE",
"1 71 OFFCURVE",
"1 42 OFFCURVE",
"0 11 CURVE SMOOTH",
"0 -83 LINE",
"0 -168 LINE",
"0 -231 LINE",
"1 -247 OFFCURVE",
"1 -255 OFFCURVE",
"2 -255 CURVE SMOOTH",
"3 -255 OFFCURVE",
"13 -249 OFFCURVE",
"31 -237 CURVE",
"49 -224 OFFCURVE",
"58 -217 OFFCURVE",
"58 -215 CURVE SMOOTH",
"58 -199 OFFCURVE",
"59 -153 OFFCURVE",
"61 -76 CURVE",
"80 -116 OFFCURVE",
"118 -136 OFFCURVE",
"176 -136 CURVE SMOOTH",
"229 -136 OFFCURVE",
"272 -118 OFFCURVE",
"307 -83 CURVE",
"307 -198 OFFCURVE",
"307 -255 OFFCURVE",
"308 -255 CURVE SMOOTH",
"310 -255 OFFCURVE",
"320 -249 OFFCURVE",
"338 -237 CURVE",
"356 -224 OFFCURVE",
"365 -217 OFFCURVE",
"365 -215 CURVE SMOOTH",
"366 -166 LINE SMOOTH",
"367 -133 OFFCURVE",
"368 -95 OFFCURVE",
"369 -52 CURVE SMOOTH",
"370 -9 OFFCURVE",
"370 37 OFFCURVE",
"371 84 CURVE SMOOTH",
"372 131 OFFCURVE",
"372 168 OFFCURVE",
"373 197 CURVE SMOOTH",
"373 226 OFFCURVE",
"373 241 OFFCURVE",
"372 244 CURVE"
);
}
);
width = 375;
}
);
note = k;
unicode = E934;
},
{
glyphname = uniE939;
lastChange = "2019-03-27 08:29:17 +0000";
layers = (
{
layerId = "02376AAC-77FF-49DA-9399-294AF7A35492";
paths = (
{
closed = 1;
nodes = (
"153 139 OFFCURVE",
"108 125 OFFCURVE",
"65 97 CURVE SMOOTH",
"22 68 OFFCURVE",
"0 36 OFFCURVE",
"0 -1 CURVE SMOOTH",
"0 -46 OFFCURVE",
"18 -81 OFFCURVE",
"53 -105 CURVE SMOOTH",
"88 -129 OFFCURVE",
"132 -141 OFFCURVE",
"186 -141 CURVE SMOOTH",
"220 -141 OFFCURVE",
"254 -135 OFFCURVE",
"289 -123 CURVE SMOOTH",
"324 -111 OFFCURVE",
"354 -93 OFFCURVE",
"379 -70 CURVE SMOOTH",
"404 -46 OFFCURVE",
"416 -20 OFFCURVE",
"416 9 CURVE SMOOTH",
"416 32 OFFCURVE",
"409 53 OFFCURVE",
"395 70 CURVE SMOOTH",
"381 87 OFFCURVE",
"363 101 OFFCURVE",
"341 111 CURVE",
"318 120 OFFCURVE",
"295 127 OFFCURVE",
"272 132 CURVE SMOOTH",
"248 137 OFFCURVE",
"224 139 OFFCURVE",
"201 139 CURVE SMOOTH"
);
},
{
closed = 1;
nodes = (
"196 -108 OFFCURVE",
"167 -96 OFFCURVE",
"133 -72 CURVE SMOOTH",
"99 -48 OFFCURVE",
"82 -23 OFFCURVE",
"82 4 CURVE SMOOTH",
"82 25 OFFCURVE",
"86 42 OFFCURVE",
"94 57 CURVE",
"101 72 OFFCURVE",
"111 82 OFFCURVE",
"123 89 CURVE SMOOTH",
"135 96 OFFCURVE",
"146 100 OFFCURVE",
"156 103 CURVE",
"166 105 OFFCURVE",
"175 106 OFFCURVE",
"184 106 CURVE SMOOTH",
"210 106 OFFCURVE",
"242 94 OFFCURVE",
"281 69 CURVE SMOOTH",
"319 44 OFFCURVE",
"338 19 OFFCURVE",
"338 -6 CURVE SMOOTH",
"338 -41 OFFCURVE",
"327 -66 OFFCURVE",
"304 -83 CURVE SMOOTH",
"281 -100 OFFCURVE",
"253 -108 OFFCURVE",
"221 -108 CURVE SMOOTH"
);
}
);
width = 416;
}
);
note = uniE957;
unicode = E939;
},
{
glyphname = uniE938;
lastChange = "2019-03-27 08:29:07 +0000";
layers = (
{
layerId = "02376AAC-77FF-49DA-9399-294AF7A35492";
paths = (
{
closed = 1;
nodes = (
"173 141 OFFCURVE",
"142 135 OFFCURVE",
"111 123 CURVE SMOOTH",
"80 110 OFFCURVE",
"54 93 OFFCURVE",
"33 71 CURVE SMOOTH",
"12 49 OFFCURVE",
"1 25 OFFCURVE",
"1 0 CURVE SMOOTH",
"1 -45 OFFCURVE",
"19 -79 OFFCURVE",
"55 -104 CURVE SMOOTH",
"90 -129 OFFCURVE",
"135 -141 OFFCURVE",
"189 -141 CURVE SMOOTH",
"223 -141 OFFCURVE",
"258 -135 OFFCURVE",
"293 -123 CURVE SMOOTH",
"328 -110 OFFCURVE",
"358 -92 OFFCURVE",
"383 -68 CURVE SMOOTH",
"408 -44 OFFCURVE",
"420 -18 OFFCURVE",
"420 11 CURVE SMOOTH",
"420 34 OFFCURVE",
"413 54 OFFCURVE",
"399 72 CURVE SMOOTH",
"385 89 OFFCURVE",
"367 103 OFFCURVE",
"345 113 CURVE",
"322 122 OFFCURVE",
"299 129 OFFCURVE",
"276 134 CURVE SMOOTH",
"252 139 OFFCURVE",
"228 141 OFFCURVE",
"204 141 CURVE SMOOTH"
);
}
);
width = 420;
}
);
note = l;
unicode = E938;
},
{
glyphname = uniE959;
lastChange = "2019-03-26 11:40:12 +0000";
layers = (
{
layerId = "02376AAC-77FF-49DA-9399-294AF7A35492";
paths = (
{
closed = 1;
nodes = (
"329 157 OFFCURVE",
"247 160 OFFCURVE",
"140 114 CURVE",
"36 71 OFFCURVE",
"-4 -4 OFFCURVE",
"0 -59 CURVE",
"0 -146 OFFCURVE",
"10 -706 OFFCURVE",
"21 -704 CURVE",
"33 -701 OFFCURVE",
"82 -675 OFFCURVE",
"89 -651 CURVE",
"94 -632 OFFCURVE",
"75 -253 OFFCURVE",
"69 -138 CURVE",
"113 -151 OFFCURVE",
"177 -144 OFFCURVE",
"260 -107 CURVE",
"390 -46 OFFCURVE",
"411 65 OFFCURVE",
"365 117 CURVE"
);
}
);
width = 387;
}
);
note = m;
unicode = E959;
},
{
glyphname = uniE954;
lastChange = "2019-03-27 08:29:24 +0000";
layers = (
{
layerId = "02376AAC-77FF-49DA-9399-294AF7A35492";
paths = (
{
closed = 1;
nodes = (
"344 -174 OFFCURVE",
"344 -47 CURVE SMOOTH",
"344 21 OFFCURVE",
"339 109 OFFCURVE",
"331 218 CURVE SMOOTH",
"323 325 OFFCURVE",
"317 407 OFFCURVE",
"312 464 CURVE SMOOTH",
"308 520 OFFCURVE",
"303 574 OFFCURVE",
"298 627 CURVE",
"298 633 LINE",
"298 634 LINE SMOOTH",
"298 638 OFFCURVE",
"286 649 OFFCURVE",
"264 669 CURVE SMOOTH",
"242 689 OFFCURVE",
"228 698 OFFCURVE",
"225 698 CURVE",
"264 64 LINE SMOOTH",
"264 63 OFFCURVE",
"263 64 OFFCURVE",
"262 65 CURVE SMOOTH",
"261 66 OFFCURVE",
"258 66 OFFCURVE",
"255 69 CURVE",
"252 71 OFFCURVE",
"248 74 OFFCURVE",
"244 77 CURVE",
"239 79 OFFCURVE",
"234 82 OFFCURVE",
"227 86 CURVE",
"221 88 OFFCURVE",
"215 92 OFFCURVE",
"208 96 CURVE",
"201 98 OFFCURVE",
"192 102 OFFCURVE",
"183 104 CURVE SMOOTH",
"156 112 LINE SMOOTH",
"146 114 OFFCURVE",
"135 116 OFFCURVE",
"123 117 CURVE",
"111 117 OFFCURVE",
"99 118 OFFCURVE",
"87 117 CURVE SMOOTH",
"52 115 OFFCURVE",
"29 107 OFFCURVE",
"17 93 CURVE",
"4 78 OFFCURVE",
"-1 58 OFFCURVE",
"0 31 CURVE SMOOTH",
"1 20 OFFCURVE",
"3 9 OFFCURVE",
"7 -3 CURVE SMOOTH",
"11 -15 OFFCURVE",
"17 -29 OFFCURVE",
"26 -45 CURVE SMOOTH",
"34 -59 OFFCURVE",
"47 -73 OFFCURVE",
"64 -87 CURVE",
"80 -99 OFFCURVE",
"100 -111 OFFCURVE",
"123 -121 CURVE SMOOTH",
"145 -132 OFFCURVE",
"174 -146 OFFCURVE",
"210 -146 CURVE SMOOTH",
"323 -146 OFFCURVE"
);
}
);
width = 344;
}
);
note = uniE960;
unicode = E954;
},
{
glyphname = uniF963;
lastChange = "2018-04-12 17:31:46 +0000";
layers = (
{
guideLines = (
{
position = "{398, 183}";
},
{
position = "{266, -911}";
}
);
layerId = "02376AAC-77FF-49DA-9399-294AF7A35492";
paths = (
{
closed = 1;
nodes = (
"594 -43 OFFCURVE",
"613 56 OFFCURVE",
"561 119 CURVE",
"525 164 OFFCURVE",
"408 142 OFFCURVE",
"330 95 CURVE",
"273 61 OFFCURVE",
"237 4 OFFCURVE",
"235 -44 CURVE",
"235 -44 OFFCURVE",
"235 -46 OFFCURVE",
"235 -46 CURVE",
"233 -51 OFFCURVE",
"227 -444 OFFCURVE",
"223 -651 CURVE",
"204 -674 OFFCURVE",
"183 -698 OFFCURVE",
"164 -720 CURVE",
"135 -682 OFFCURVE",
"106 -639 OFFCURVE",
"106 -627 CURVE",
"106 -613 OFFCURVE",
"152 -570 OFFCURVE",
"168 -563 CURVE",
"180 -556 OFFCURVE",
"149 -555 OFFCURVE",
"125 -563 CURVE",
"96 -575 OFFCURVE",
"28 -644 OFFCURVE",
"28 -679 CURVE",
"28 -699 OFFCURVE",
"58 -748 OFFCURVE",
"96 -798 CURVE",
"46 -855 OFFCURVE",
"9 -898 OFFCURVE",
"4 -901 CURVE",
"-1 -906 OFFCURVE",
"-1 -953 OFFCURVE",
"2 -953 CURVE",
"4 -953 OFFCURVE",
"54 -901 OFFCURVE",
"121 -832 CURVE",
"170 -894 OFFCURVE",
"223 -949 OFFCURVE",
"237 -949 CURVE",
"261 -948 OFFCURVE",
"299 -918 OFFCURVE",
"299 -879 CURVE",
"299 -870 OFFCURVE",
"299 -772 OFFCURVE",
"297 -648 CURVE",
"394 -546 OFFCURVE",
"476 -456 OFFCURVE",
"476 -451 CURVE",
"476 -446 OFFCURVE",
"428 -446 OFFCURVE",
"411 -448 CURVE",
"406 -450 OFFCURVE",
"358 -501 OFFCURVE",
"295 -570 CURVE",
"294 -393 OFFCURVE",
"292 -194 OFFCURVE",
"292 -132 CURVE",
"330 -148 OFFCURVE",
"389 -150 OFFCURVE",
"464 -110 CURVE"
);
},
{
closed = 1;
nodes = (
"221 -784 OFFCURVE",
"209 -774 OFFCURVE",
"194 -756 CURVE",
"204 -746 OFFCURVE",
"213 -736 OFFCURVE",
"223 -725 CURVE",
"221 -755 OFFCURVE",
"221 -774 OFFCURVE",
"221 -775 CURVE"
);
}
);
width = 588;
}
);
note = uniE961;
unicode = F963;
},
{
glyphname = uniF962;
lastChange = "2018-06-01 15:02:43 +0000";
layers = (
{
guideLines = (
{
position = "{517, 917}";
},
{
position = "{417, -134}";
}
);
layerId = "02376AAC-77FF-49DA-9399-294AF7A35492";
paths = (
{
closed = 1;
nodes = (
"481 915 OFFCURVE",
"453 885 OFFCURVE",
"414 841 CURVE",
"389 885 OFFCURVE",
"367 917 OFFCURVE",
"358 917 CURVE",
"358 917 LINE",
"353 917 OFFCURVE",
"292 898 OFFCURVE",
"292 885 CURVE",
"292 882 OFFCURVE",
"292 807 OFFCURVE",
"292 704 CURVE",
"201 602 OFFCURVE",
"112 499 OFFCURVE",
"105 492 CURVE",
"101 487 OFFCURVE",
"101 445 OFFCURVE",
"103 445 CURVE",
"105 445 OFFCURVE",
"195 535 OFFCURVE",
"292 637 CURVE",
"292 424 OFFCURVE",
"290 153 OFFCURVE",
"289 153 CURVE",
"111 153 OFFCURVE",
"0 49 OFFCURVE",
"0 -33 CURVE",
"0 -95 OFFCURVE",
"26 -130 OFFCURVE",
"109 -130 CURVE",
"212 -130 OFFCURVE",
"363 -28 OFFCURVE",
"363 74 CURVE",
"363 74 OFFCURVE",
"360 458 OFFCURVE",
"359 708 CURVE",
"366 714 OFFCURVE",
"371 719 OFFCURVE",
"376 726 CURVE",
"412 679 OFFCURVE",
"481 543 OFFCURVE",
"481 529 CURVE",
"481 502 OFFCURVE",
"433 487 OFFCURVE",
"458 487 CURVE",
"515 487 OFFCURVE",
"544 538 OFFCURVE",
"544 551 CURVE",
"544 571 OFFCURVE",
"491 695 OFFCURVE",
"440 794 CURVE",
"502 860 OFFCURVE",
"547 909 OFFCURVE",
"547 912 CURVE",
"547 917 OFFCURVE",
"502 917 OFFCURVE",
"486 915 CURVE"
);
}
);
width = 547;
}
);
note = uniE961;
unicode = F962;
},
{
glyphname = uniE9F2;
lastChange = "2018-05-24 17:39:37 +0000";
layers = (
{
layerId = "02376AAC-77FF-49DA-9399-294AF7A35492";
paths = (
{
closed = 1;
nodes = (
"0 135 OFFCURVE",
"0 -29 OFFCURVE",
"7 -29 CURVE SMOOTH",
"13 -29 OFFCURVE",
"20 -27 OFFCURVE",
"39 -20 CURVE SMOOTH",
"92 -3 LINE",
"145 15 LINE",
"158 21 OFFCURVE",
"164 24 OFFCURVE",
"164 26 CURVE SMOOTH",
"164 351 OFFCURVE",
"164 514 OFFCURVE",
"158 514 CURVE SMOOTH",
"151 514 OFFCURVE",
"125 505 OFFCURVE",
"79 489 CURVE",
"26 474 OFFCURVE",
"0 465 OFFCURVE",
"0 463 CURVE SMOOTH"
);
}
);
width = 164;
}
);
note = uniE9F2;
unicode = E9F2;
},
{
glyphname = uniE9F1;
lastChange = "2018-06-06 20:15:29 +0000";
layers = (
{
layerId = "02376AAC-77FF-49DA-9399-294AF7A35492";
paths = (
{
closed = 1;
nodes = (
"39 794 OFFCURVE",
"3 785 OFFCURVE",
"1 785 CURVE",
"-1 784 OFFCURVE",
"1 647 OFFCURVE",
"5 373 CURVE SMOOTH",
"9 99 OFFCURVE",
"8 -38 OFFCURVE",
"10 -38 CURVE SMOOTH",
"12 -38 OFFCURVE",
"29 -32 OFFCURVE",
"61 -17 CURVE SMOOTH",
"93 -2 OFFCURVE",
"110 3 OFFCURVE",
"110 4 CURVE SMOOTH",
"110 4 OFFCURVE",
"110 138 OFFCURVE",
"108 407 CURVE SMOOTH",
"106 676 OFFCURVE",
"105 810 OFFCURVE",
"105 812 CURVE"
);
}
);
width = 117;
}
);
note = uniE9F1;
unicode = E9F1;
},
{
glyphname = uniE9F3;
lastChange = "2018-02-06 22:03:37 +0000";
layers = (
{
layerId = "02376AAC-77FF-49DA-9399-294AF7A35492";
paths = (
{
closed = 1;
nodes = (
"0 76 OFFCURVE",
"0 1 OFFCURVE",
"3 1 CURVE SMOOTH",
"6 1 OFFCURVE",
"9 2 OFFCURVE",
"18 5 CURVE SMOOTH",
"42 13 LINE",
"66 21 LINE",
"72 24 OFFCURVE",
"75 25 OFFCURVE",
"75 26 CURVE SMOOTH",
"75 175 OFFCURVE",
"75 249 OFFCURVE",
"72 249 CURVE SMOOTH",
"69 249 OFFCURVE",
"57 245 OFFCURVE",
"36 238 CURVE",
"12 231 OFFCURVE",
"0 227 OFFCURVE",
"0 226 CURVE SMOOTH"
);
}
);
width = 75;
}
);
note = uniE9F3;
unicode = E9F3;
},
{
glyphname = uniE9F4;
lastChange = "2018-05-24 16:10:31 +0000";
layers = (
{
layerId = "02376AAC-77FF-49DA-9399-294AF7A35492";
paths = (
{
closed = 1;
nodes = (
"0 -91 OFFCURVE",
"0 -125 OFFCURVE",
"3 -125 CURVE SMOOTH",
"6 -125 OFFCURVE",
"18 -121 OFFCURVE",
"42 -113 CURVE SMOOTH",
"66 -105 OFFCURVE",
"78 -101 OFFCURVE",
"78 -100 CURVE SMOOTH",
"78 -33 OFFCURVE",
"78 0 OFFCURVE",
"75 0 CURVE SMOOTH",
"72 0 OFFCURVE",
"60 -4 OFFCURVE",
"36 -11 CURVE",
"12 -19 OFFCURVE",
"0 -23 OFFCURVE",
"0 -24 CURVE SMOOTH"
);
}
);
width = 78;
}
);
note = uniE9F4;
unicode = E9F4;
},
{
glyphname = uniE9F5;
lastChange = "2018-02-06 22:03:56 +0000";
layers = (
{
layerId = "02376AAC-77FF-49DA-9399-294AF7A35492";
paths = (
{
closed = 1;
nodes = (
"0 -1 LINE",
"3 -1 OFFCURVE",
"21 4 OFFCURVE",
"51 14 CURVE SMOOTH",
"81 24 OFFCURVE",
"96 30 OFFCURVE",
"96 31 CURVE SMOOTH",
"99 94 OFFCURVE",
"99 125 OFFCURVE",
"96 125 CURVE SMOOTH",
"93 125 OFFCURVE",
"78 120 OFFCURVE",
"48 111 CURVE SMOOTH",
"15 101 OFFCURVE",
"0 96 OFFCURVE",
"0 95 CURVE SMOOTH"
);
}
);
width = 98;
}
);
note = uniE9F5;
unicode = E9F5;
},
{
glyphname = uniE9F6;
lastChange = "2018-02-06 19:47:49 +0000";
layers = (
{
layerId = "02376AAC-77FF-49DA-9399-294AF7A35492";
paths = (
{
closed = 1;
nodes = (
"137 169 OFFCURVE",
"124 163 OFFCURVE",
"99 151 CURVE SMOOTH",
"73 138 OFFCURVE",
"52 128 OFFCURVE",
"36 120 CURVE",
"36 147 OFFCURVE",
"36 160 OFFCURVE",
"35 160 CURVE SMOOTH",
"34 160 OFFCURVE",
"28 154 OFFCURVE",
"17 142 CURVE SMOOTH",
"6 130 OFFCURVE",
"0 124 OFFCURVE",
"0 123 CURVE SMOOTH",
"0 41 OFFCURVE",
"0 0 OFFCURVE",
"1 0 CURVE SMOOTH",
"2 0 OFFCURVE",
"9 6 OFFCURVE",
"20 19 CURVE SMOOTH",
"31 32 OFFCURVE",
"37 39 OFFCURVE",
"37 40 CURVE SMOOTH",
"37 85 LINE",
"117 129 LINE",
"130 154 OFFCURVE",
"137 167 OFFCURVE",
"137 168 CURVE SMOOTH"
);
}
);
width = 137;
}
);
note = uniE9F6;
unicode = E9F6;
},
{
glyphname = uniE9F7;
lastChange = "2018-02-06 19:48:07 +0000";
layers = (
{
layerId = "02376AAC-77FF-49DA-9399-294AF7A35492";
paths = (
{
closed = 1;
nodes = (
"148 158 OFFCURVE",
"145 155 OFFCURVE",
"140 150 CURVE",
"134 145 OFFCURVE",
"128 139 OFFCURVE",
"122 133 CURVE",
"115 127 OFFCURVE",
"112 123 OFFCURVE",
"111 122 CURVE",
"92 131 OFFCURVE",
"68 141 OFFCURVE",
"41 153 CURVE SMOOTH",
"14 164 OFFCURVE",
"0 169 OFFCURVE",
"0 168 CURVE",
"22 131 LINE",
"63 111 OFFCURVE",
"92 96 OFFCURVE",
"111 87 CURVE",
"111 29 OFFCURVE",
"111 0 OFFCURVE",
"112 0 CURVE SMOOTH",
"113 0 OFFCURVE",
"120 6 OFFCURVE",
"133 19 CURVE SMOOTH",
"145 31 OFFCURVE",
"151 38 OFFCURVE",
"151 39 CURVE SMOOTH",
"151 118 OFFCURVE",
"150 158 OFFCURVE",
"149 158 CURVE SMOOTH"
);
}
);
width = 151;
}
);
note = uniE9F7;
unicode = E9F7;
},
{
glyphname = uniE9F8;
lastChange = "2018-05-24 16:24:49 +0000";
layers = (
{
layerId = "02376AAC-77FF-49DA-9399-294AF7A35492";
paths = (
{
closed = 1;
nodes = (
"268 136 OFFCURVE",
"207 78 OFFCURVE",
"202 70 CURVE",
"144 96 OFFCURVE",
"0 158 OFFCURVE",
"0 155 CURVE",
"0 155 OFFCURVE",
"0 153 OFFCURVE",
"40 87 CURVE",
"151 32 OFFCURVE",
"201 7 OFFCURVE",
"201 7 CURVE",
"201 0 OFFCURVE",
"201 -8 OFFCURVE",
"201 -16 CURVE",
"156 4 OFFCURVE",
"65 42 OFFCURVE",
"65 40 CURVE",
"65 40 OFFCURVE",
"65 38 OFFCURVE",
"105 -28 CURVE",
"166 -61 OFFCURVE",
"201 -79 OFFCURVE",
"201 -79 CURVE",
"202 -119 OFFCURVE",
"202 -152 OFFCURVE",
"203 -152 CURVE SMOOTH",
"208 -152 OFFCURVE",
"274 -85 OFFCURVE",
"274 -80 CURVE SMOOTH",
"274 136 OFFCURVE",
"271 136 OFFCURVE",
"271 136 CURVE SMOOTH"
);
}
);
width = 274;
}
);
unicode = E9F8;
},
{
glyphname = uniF0A1;
lastChange = "2018-05-24 16:31:10 +0000";
layers = (
{
layerId = "02376AAC-77FF-49DA-9399-294AF7A35492";
paths = (
{
closed = 1;
nodes = (
"0 178 LINE",
"0 502 LINE",
"404 502 LINE",
"404 178 LINE"
);
},
{
closed = 1;
nodes = (
"404 -144 LINE",
"404 178 LINE",
"808 178 LINE",
"808 -144 LINE"
);
},
{
closed = 0;
nodes = (
"0 178 LINE",
"0 -616 LINE"
);
},
{
closed = 1;
nodes = (
"156 -306 LINE",
"156 -393 LINE",
"202 -393 LINE",
"202 -408 LINE",
"141 -408 LINE",
"141 -306 LINE"
);
},
{
closed = 1;
nodes = (
"229 -319 OFFCURVE",
"229 -319 OFFCURVE",
"223 -319 CURVE",
"215 -319 OFFCURVE",
"215 -319 OFFCURVE",
"215 -313 CURVE",
"215 -306 OFFCURVE",
"215 -306 OFFCURVE",
"223 -306 CURVE",
"229 -306 OFFCURVE",
"229 -306 OFFCURVE",
"229 -313 CURVE"
);
},
{
closed = 1;
nodes = (
"215 -334 LINE",
"229 -334 LINE",
"229 -408 LINE",
"215 -408 LINE"
);
},
{
closed = 1;
nodes = (
"309 -340 OFFCURVE",
"309 -346 OFFCURVE",
"309 -353 CURVE",
"309 -393 LINE",
"309 -414 OFFCURVE",
"309 -420 OFFCURVE",
"303 -426 CURVE",
"297 -435 OFFCURVE",
"282 -441 OFFCURVE",
"276 -441 CURVE",
"269 -441 OFFCURVE",
"257 -435 OFFCURVE",
"248 -435 CURVE",
"257 -420 LINE",
"257 -426 OFFCURVE",
"269 -426 OFFCURVE",
"276 -426 CURVE",
"290 -426 OFFCURVE",
"297 -420 OFFCURVE",
"297 -401 CURVE",
"297 -393 LINE",
"297 -393 LINE",
"297 -401 OFFCURVE",
"290 -408 OFFCURVE",
"276 -408 CURVE",
"257 -408 OFFCURVE",
"242 -393 OFFCURVE",
"242 -374 CURVE",
"242 -346 OFFCURVE",
"263 -334 OFFCURVE",
"276 -334 CURVE",
"290 -334 OFFCURVE",
"297 -340 OFFCURVE",
"303 -346 CURVE",
"303 -346 LINE",
"303 -334 LINE",
"316 -334 LINE"
);
},
{
closed = 1;
nodes = (
"297 -359 OFFCURVE",
"297 -359 OFFCURVE",
"297 -353 CURVE",
"297 -346 OFFCURVE",
"290 -340 OFFCURVE",
"282 -340 CURVE",
"269 -340 OFFCURVE",
"257 -353 OFFCURVE",
"257 -368 CURVE",
"257 -386 OFFCURVE",
"263 -393 OFFCURVE",
"282 -393 CURVE",
"290 -393 OFFCURVE",
"297 -393 OFFCURVE",
"297 -380 CURVE",
"297 -380 OFFCURVE",
"297 -380 OFFCURVE",
"297 -374 CURVE",
"297 -359 LINE"
);
},
{
closed = 1;
nodes = (
"377 -401 LINE",
"377 -401 LINE",
"370 -401 OFFCURVE",
"364 -408 OFFCURVE",
"349 -408 CURVE",
"337 -408 OFFCURVE",
"330 -401 OFFCURVE",
"330 -386 CURVE",
"330 -368 OFFCURVE",
"343 -359 OFFCURVE",
"370 -359 CURVE",
"370 -359 LINE",
"370 -353 OFFCURVE",
"370 -340 OFFCURVE",
"358 -340 CURVE",
"349 -340 OFFCURVE",
"343 -346 OFFCURVE",
"337 -346 CURVE",
"337 -340 LINE",
"343 -334 OFFCURVE",
"349 -334 OFFCURVE",
"358 -334 CURVE",
"383 -334 OFFCURVE",
"383 -346 OFFCURVE",
"383 -359 CURVE",
"383 -386 LINE",
"383 -393 OFFCURVE",
"383 -401 OFFCURVE",
"389 -408 CURVE",
"377 -408 LINE"
);
},
{
closed = 1;
nodes = (
"358 -368 OFFCURVE",
"343 -374 OFFCURVE",
"343 -386 CURVE",
"343 -393 OFFCURVE",
"349 -401 OFFCURVE",
"358 -401 CURVE",
"364 -401 OFFCURVE",
"370 -393 OFFCURVE",
"370 -386 CURVE",
"370 -386 OFFCURVE",
"377 -380 OFFCURVE",
"377 -380 CURVE",
"377 -368 LINE"
);
},
{
closed = 1;
nodes = (
"423 -334 LINE",
"444 -334 LINE",
"444 -340 LINE",
"423 -340 LINE",
"423 -380 LINE",
"423 -393 OFFCURVE",
"423 -401 OFFCURVE",
"431 -401 CURVE",
"438 -401 OFFCURVE",
"438 -393 OFFCURVE",
"444 -393 CURVE",
"444 -408 LINE",
"438 -408 OFFCURVE",
"438 -408 OFFCURVE",
"431 -408 CURVE",
"423 -408 OFFCURVE",
"417 -408 OFFCURVE",
"417 -401 CURVE",
"410 -401 OFFCURVE",
"410 -393 OFFCURVE",
"410 -380 CURVE",
"410 -340 LINE",
"398 -340 LINE",
"398 -334 LINE",
"410 -334 LINE",
"410 -313 LINE",
"423 -313 LINE"
);
},
{
closed = 1;
nodes = (
"518 -393 OFFCURVE",
"518 -401 OFFCURVE",
"518 -408 CURVE",
"511 -408 LINE",
"505 -393 LINE",
"505 -393 LINE",
"505 -401 OFFCURVE",
"499 -408 OFFCURVE",
"484 -408 CURVE",
"471 -408 OFFCURVE",
"457 -401 OFFCURVE",
"457 -374 CURVE",
"457 -334 LINE",
"471 -334 LINE",
"471 -374 LINE",
"471 -386 OFFCURVE",
"478 -401 OFFCURVE",
"484 -401 CURVE",
"499 -401 OFFCURVE",
"505 -393 OFFCURVE",
"505 -386 CURVE",
"505 -380 OFFCURVE",
"505 -380 OFFCURVE",
"505 -380 CURVE",
"505 -334 LINE",
"518 -334 LINE",
"518 -386 LINE"
);
},
{
closed = 1;
nodes = (
"545 -346 OFFCURVE",
"545 -340 OFFCURVE",
"539 -334 CURVE",
"551 -334 LINE",
"551 -346 LINE",
"551 -346 LINE",
"558 -340 OFFCURVE",
"566 -334 OFFCURVE",
"573 -334 CURVE",
"579 -334 OFFCURVE",
"579 -334 OFFCURVE",
"579 -334 CURVE",
"579 -346 LINE",
"579 -346 OFFCURVE",
"579 -346 OFFCURVE",
"573 -346 CURVE",
"566 -346 OFFCURVE",
"558 -353 OFFCURVE",
"558 -359 CURVE",
"558 -359 OFFCURVE",
"558 -368 OFFCURVE",
"558 -368 CURVE",
"558 -408 LINE",
"545 -408 LINE",
"545 -353 LINE"
);
},
{
closed = 1;
nodes = (
"600 -393 OFFCURVE",
"613 -401 OFFCURVE",
"625 -401 CURVE",
"634 -401 OFFCURVE",
"640 -393 OFFCURVE",
"646 -393 CURVE",
"646 -401 LINE",
"640 -408 OFFCURVE",
"634 -408 OFFCURVE",
"619 -408 CURVE",
"600 -408 OFFCURVE",
"585 -393 OFFCURVE",
"585 -374 CURVE",
"585 -346 OFFCURVE",
"600 -334 OFFCURVE",
"619 -334 CURVE",
"646 -334 OFFCURVE",
"653 -353 OFFCURVE",
"653 -368 CURVE",
"653 -368 OFFCURVE",
"653 -374 OFFCURVE",
"653 -374 CURVE",
"600 -374 LINE"
);
},
{
closed = 1;
nodes = (
"640 -353 OFFCURVE",
"634 -340 OFFCURVE",
"619 -340 CURVE",
"606 -340 OFFCURVE",
"600 -353 OFFCURVE",
"600 -359 CURVE",
"640 -359 LINE"
);
},
{
closed = 1;
nodes = (
"2 -619 LINE",
"33 -619 LINE",
"33 181 LINE",
"2 181 LINE"
);
}
);
width = 808;
}
);
unicode = F0A1;
},
{
glyphname = uniE9E0;
lastChange = "2019-03-27 08:29:34 +0000";
layers = (
{
layerId = "02376AAC-77FF-49DA-9399-294AF7A35492";
paths = (
{
closed = 1;
nodes = (
"149 147 OFFCURVE",
"141 145 OFFCURVE",
"132 140 CURVE SMOOTH",
"123 135 OFFCURVE",
"114 129 OFFCURVE",
"105 122 CURVE SMOOTH",
"96 115 OFFCURVE",
"87 108 OFFCURVE",
"79 101 CURVE SMOOTH",
"71 94 OFFCURVE",
"64 88 OFFCURVE",
"59 83 CURVE SMOOTH",
"54 78 OFFCURVE",
"51 75 OFFCURVE",
"50 75 CURVE",
"49 87 OFFCURVE",
"48 108 OFFCURVE",
"49 139 CURVE SMOOTH",
"49 169 OFFCURVE",
"49 211 OFFCURVE",
"50 264 CURVE SMOOTH",
"51 317 OFFCURVE",
"51 347 OFFCURVE",
"51 352 CURVE SMOOTH",
"52 400 OFFCURVE",
"65 435 OFFCURVE",
"92 456 CURVE",
"94 457 OFFCURVE",
"95 458 OFFCURVE",
"95 459 CURVE",
"87 460 LINE",
"85 460 LINE SMOOTH",
"28 460 OFFCURVE",
"0 412 OFFCURVE",
"0 317 CURVE SMOOTH",
"0 6 OFFCURVE",
"5 -149 OFFCURVE",
"16 -149 CURVE SMOOTH",
"34 -149 OFFCURVE",
"57 -140 OFFCURVE",
"85 -123 CURVE",
"112 -105 OFFCURVE",
"137 -82 OFFCURVE",
"159 -54 CURVE SMOOTH",
"180 -26 OFFCURVE",
"191 0 OFFCURVE",
"191 24 CURVE SMOOTH",
"191 51 OFFCURVE",
"190 74 OFFCURVE",
"189 91 CURVE",
"187 108 OFFCURVE",
"184 120 OFFCURVE",
"181 128 CURVE SMOOTH",
"178 136 OFFCURVE",
"174 141 OFFCURVE",
"170 144 CURVE",
"166 146 OFFCURVE",
"161 147 OFFCURVE",
"154 147 CURVE SMOOTH"
);
},
{
closed = 1;
nodes = (
"68 -103 OFFCURVE",
"63 -94 OFFCURVE",
"60 -77 CURVE SMOOTH",
"57 -60 OFFCURVE",
"55 -27 OFFCURVE",
"54 22 CURVE",
"53 31 OFFCURVE",
"53 38 OFFCURVE",
"53 43 CURVE",
"52 50 OFFCURVE",
"60 60 OFFCURVE",
"77 75 CURVE SMOOTH",
"94 89 OFFCURVE",
"106 96 OFFCURVE",
"114 96 CURVE SMOOTH",
"127 96 OFFCURVE",
"135 87 OFFCURVE",
"139 70 CURVE SMOOTH",
"143 53 OFFCURVE",
"145 16 OFFCURVE",
"145 -39 CURVE SMOOTH",
"145 -48 OFFCURVE",
"140 -58 OFFCURVE",
"131 -69 CURVE SMOOTH",
"122 -80 OFFCURVE",
"112 -88 OFFCURVE",
"101 -94 CURVE SMOOTH",
"90 -100 OFFCURVE",
"82 -103 OFFCURVE",
"77 -103 CURVE SMOOTH"
);
}
);
width = 191;
}
);
note = uniE260;
unicode = E9E0;
},
{
glyphname = uniE9E5;
lastChange = "2019-03-27 08:29:43 +0000";
layers = (
{
layerId = "02376AAC-77FF-49DA-9399-294AF7A35492";
paths = (
{
closed = 1;
nodes = (
"158 184 OFFCURVE",
"157 184 OFFCURVE",
"156 183 CURVE",
"141 178 LINE",
"138 178 LINE",
"137 177 LINE",
"120 172 LINE",
"109 168 OFFCURVE",
"97 164 OFFCURVE",
"82 160 CURVE SMOOTH",
"67 156 OFFCURVE",
"55 154 OFFCURVE",
"47 154 CURVE SMOOTH",
"40 154 OFFCURVE",
"37 156 OFFCURVE",
"37 159 CURVE SMOOTH",
"37 326 LINE SMOOTH",
"37 334 OFFCURVE",
"33 338 OFFCURVE",
"25 338 CURVE SMOOTH",
"12 338 LINE SMOOTH",
"4 338 OFFCURVE",
"0 334 OFFCURVE",
"0 326 CURVE SMOOTH",
"0 -189 LINE SMOOTH",
"0 -195 OFFCURVE",
"3 -198 OFFCURVE",
"8 -198 CURVE SMOOTH",
"10 -198 LINE",
"12 -197 LINE",
"15 -196 LINE",
"62 -176 OFFCURVE",
"95 -166 OFFCURVE",
"114 -166 CURVE SMOOTH",
"125 -166 OFFCURVE",
"131 -170 OFFCURVE",
"131 -177 CURVE SMOOTH",
"131 -326 LINE SMOOTH",
"131 -334 OFFCURVE",
"135 -338 OFFCURVE",
"143 -338 CURVE SMOOTH",
"156 -338 LINE SMOOTH",
"164 -338 OFFCURVE",
"168 -334 OFFCURVE",
"168 -326 CURVE SMOOTH",
"168 176 LINE SMOOTH",
"168 181 OFFCURVE",
"165 184 OFFCURVE",
"160 184 CURVE SMOOTH"
);
},
{
closed = 1;
nodes = (
"76 -59 LINE",
"77 -56 OFFCURVE",
"78 -54 OFFCURVE",
"78 -53 CURVE SMOOTH",
"78 -52 OFFCURVE",
"77 -50 OFFCURVE",
"76 -47 CURVE",
"65 -36 LINE",
"62 -35 OFFCURVE",
"60 -34 OFFCURVE",
"59 -34 CURVE SMOOTH",
"57 -34 OFFCURVE",
"55 -35 OFFCURVE",
"54 -36 CURVE SMOOTH",
"37 -52 LINE",
"37 56 LINE SMOOTH",
"37 57 OFFCURVE",
"39 56 OFFCURVE",
"42 53 CURVE SMOOTH",
"45 50 OFFCURVE",
"49 47 OFFCURVE",
"54 42 CURVE",
"61 41 LINE",
"63 41 OFFCURVE",
"64 41 OFFCURVE",
"65 42 CURVE SMOOTH",
"76 53 LINE SMOOTH",
"77 54 OFFCURVE",
"78 56 OFFCURVE",
"78 58 CURVE SMOOTH",
"78 59 OFFCURVE",
"77 61 OFFCURVE",
"76 64 CURVE",
"63 78 LINE",
"86 90 OFFCURVE",
"105 96 OFFCURVE",
"122 96 CURVE SMOOTH",
"127 96 LINE",
"95 64 LINE SMOOTH",
"94 63 OFFCURVE",
"93 61 OFFCURVE",
"93 58 CURVE SMOOTH",
"93 55 OFFCURVE",
"94 54 OFFCURVE",
"95 53 CURVE SMOOTH",
"106 42 LINE SMOOTH",
"107 41 OFFCURVE",
"108 40 OFFCURVE",
"111 40 CURVE SMOOTH",
"114 40 OFFCURVE",
"116 41 OFFCURVE",
"117 42 CURVE SMOOTH",
"131 56 LINE",
"131 -50 LINE",
"117 -36 LINE",
"114 -35 OFFCURVE",
"112 -34 OFFCURVE",
"111 -34 CURVE SMOOTH",
"109 -34 OFFCURVE",
"107 -35 OFFCURVE",
"106 -36 CURVE SMOOTH",
"95 -47 LINE SMOOTH",
"94 -48 OFFCURVE",
"93 -50 OFFCURVE",
"93 -53 CURVE SMOOTH",
"93 -56 OFFCURVE",
"94 -58 OFFCURVE",
"95 -59 CURVE SMOOTH",
"110 -74 LINE",
"86 -87 OFFCURVE",
"66 -93 OFFCURVE",
"49 -93 CURVE SMOOTH",
"46 -93 LINE",
"45 -92 OFFCURVE",
"44 -92 OFFCURVE",
"43 -92 CURVE"
);
}
);
width = 168;
}
);
note = uniE261;
unicode = E9E5;
},
{
glyphname = uniE262;
lastChange = "2018-02-06 16:03:12 +0000";
layers = (
{
layerId = "02376AAC-77FF-49DA-9399-294AF7A35492";
paths = (
{
closed = 1;
nodes = (
"242 44 OFFCURVE",
"242 86 OFFCURVE",
"243 113 CURVE",
"263 123 LINE",
"301 144 LINE",
"302 144 OFFCURVE",
"303 149 OFFCURVE",
"307 158 CURVE",
"309 167 OFFCURVE",
"311 177 OFFCURVE",
"313 185 CURVE",
"314 194 OFFCURVE",
"315 200 OFFCURVE",
"315 201 CURVE SMOOTH",
"315 203 OFFCURVE",
"309 201 OFFCURVE",
"297 196 CURVE",
"284 190 OFFCURVE",
"266 182 OFFCURVE",
"243 169 CURVE",
"243 237 OFFCURVE",
"243 272 OFFCURVE",
"242 272 CURVE SMOOTH",
"239 272 OFFCURVE",
"229 263 OFFCURVE",
"213 246 CURVE SMOOTH",
"197 229 OFFCURVE",
"189 219 OFFCURVE",
"189 218 CURVE SMOOTH",
"189 141 LINE",
"124 106 LINE",
"125 216 OFFCURVE",
"125 272 OFFCURVE",
"124 272 CURVE SMOOTH",
"123 272 OFFCURVE",
"118 268 OFFCURVE",
"109 260 CURVE",
"100 251 OFFCURVE",
"91 241 OFFCURVE",
"84 232 CURVE",
"75 224 OFFCURVE",
"71 219 OFFCURVE",
"71 218 CURVE SMOOTH",
"71 76 LINE",
"34 55 OFFCURVE",
"14 44 OFFCURVE",
"12 44 CURVE SMOOTH",
"10 44 OFFCURVE",
"7 35 OFFCURVE",
"4 19 CURVE SMOOTH",
"1 2 OFFCURVE",
"0 -8 OFFCURVE",
"0 -11 CURVE SMOOTH",
"0 -12 OFFCURVE",
"5 -11 OFFCURVE",
"17 -6 CURVE",
"28 0 OFFCURVE",
"47 9 OFFCURVE",
"71 22 CURVE",
"71 -105 LINE",
"33 -126 OFFCURVE",
"13 -137 OFFCURVE",
"12 -137 CURVE SMOOTH",
"10 -137 OFFCURVE",
"7 -146 OFFCURVE",
"4 -163 CURVE SMOOTH",
"1 -179 OFFCURVE",
"0 -189 OFFCURVE",
"0 -192 CURVE SMOOTH",
"0 -193 OFFCURVE",
"6 -192 OFFCURVE",
"19 -186 CURVE SMOOTH",
"32 -180 OFFCURVE",
"50 -169 OFFCURVE",
"72 -158 CURVE",
"73 -218 OFFCURVE",
"73 -248 OFFCURVE",
"74 -248 CURVE SMOOTH",
"75 -248 OFFCURVE",
"84 -241 OFFCURVE",
"100 -228 CURVE SMOOTH",
"115 -216 OFFCURVE",
"122 -207 OFFCURVE",
"122 -205 CURVE SMOOTH",
"122 -202 LINE SMOOTH",
"122 -199 OFFCURVE",
"122 -195 OFFCURVE",
"123 -192 CURVE",
"123 -177 LINE",
"123 -157 LINE",
"123 -132 LINE",
"148 -120 OFFCURVE",
"171 -107 OFFCURVE",
"189 -96 CURVE",
"189 -197 OFFCURVE",
"190 -248 OFFCURVE",
"192 -248 CURVE SMOOTH",
"193 -248 OFFCURVE",
"201 -241 OFFCURVE",
"217 -228 CURVE SMOOTH",
"234 -215 OFFCURVE",
"241 -207 OFFCURVE",
"241 -205 CURVE SMOOTH",
"241 -166 OFFCURVE",
"241 -120 OFFCURVE",
"242 -69 CURVE",
"244 -68 OFFCURVE",
"247 -65 OFFCURVE",
"252 -63 CURVE",
"257 -60 OFFCURVE",
"260 -59 OFFCURVE",
"262 -58 CURVE",
"265 -57 OFFCURVE",
"269 -54 OFFCURVE",
"275 -52 CURVE",
"279 -48 OFFCURVE",
"283 -45 OFFCURVE",
"288 -43 CURVE",
"294 -39 OFFCURVE",
"298 -37 OFFCURVE",
"301 -35 CURVE",
"302 -35 OFFCURVE",
"305 -27 OFFCURVE",
"310 -11 CURVE",
"313 7 OFFCURVE",
"315 17 OFFCURVE",
"315 20 CURVE SMOOTH",
"315 22 OFFCURVE",
"312 21 OFFCURVE",
"305 19 CURVE SMOOTH",
"299 17 OFFCURVE",
"291 13 OFFCURVE",
"280 7 CURVE",
"268 0 OFFCURVE",
"256 -6 OFFCURVE",
"242 -13 CURVE"
);
},
{
closed = 1;
nodes = (
"124 -16 LINE",
"124 50 LINE",
"189 84 LINE",
"189 -40 LINE",
"181 -44 OFFCURVE",
"171 -50 OFFCURVE",
"157 -59 CURVE",
"142 -66 OFFCURVE",
"131 -73 OFFCURVE",
"124 -76 CURVE"
);
}
);
width = 315;
}
);
note = uniE262;
unicode = E262;
},
{
glyphname = uniE030;
lastChange = "2018-06-11 07:16:04 +0000";
layers = (
{
layerId = "02376AAC-77FF-49DA-9399-294AF7A35492";
paths = (
{
closed = 1;
nodes = (
"2 986 OFFCURVE",
"1 986 OFFCURVE",
"1 986 CURVE SMOOTH",
"-2 986 OFFCURVE",
"3 -27 OFFCURVE",
"5 -27 CURVE SMOOTH",
"7 -27 OFFCURVE",
"60 20 OFFCURVE",
"60 21 CURVE SMOOTH",
"60 24 OFFCURVE",
"57 1014 OFFCURVE",
"57 1020 CURVE"
);
}
);
width = 60;
}
);
unicode = E030;
},
{
glyphname = uniE043;
lastChange = "2018-05-24 12:09:50 +0000";
layers = (
{
layerId = "02376AAC-77FF-49DA-9399-294AF7A35492";
paths = (
{
closed = 1;
nodes = (
"91 -98 OFFCURVE",
"71 -77 OFFCURVE",
"46 -77 CURVE SMOOTH",
"20 -77 OFFCURVE",
"0 -98 OFFCURVE",
"0 -123 CURVE SMOOTH",
"0 -148 OFFCURVE",
"20 -169 OFFCURVE",
"46 -169 CURVE SMOOTH",
"71 -169 OFFCURVE",
"91 -148 OFFCURVE",
"91 -123 CURVE SMOOTH"
);
},
{
closed = 1;
nodes = (
"91 118 OFFCURVE",
"71 139 OFFCURVE",
"46 139 CURVE SMOOTH",
"20 139 OFFCURVE",
"0 118 OFFCURVE",
"0 93 CURVE SMOOTH",
"0 68 OFFCURVE",
"20 47 OFFCURVE",
"46 47 CURVE SMOOTH",
"71 47 OFFCURVE",
"91 68 OFFCURVE",
"91 93 CURVE SMOOTH"
);
}
);
width = 91;
}
);
unicode = E043;
},
{
glyphname = uniEA02;
lastChange = "2018-06-06 20:16:40 +0000";
layers = (
{
layerId = "02376AAC-77FF-49DA-9399-294AF7A35492";
paths = (
{
closed = 1;
nodes = (
"67 19 OFFCURVE",
"110 4 OFFCURVE",
"133 -13 CURVE SMOOTH",
"157 -31 OFFCURVE",
"199 28 OFFCURVE",
"199 28 CURVE SMOOTH",
"199 28 OFFCURVE",
"230 -63 OFFCURVE",
"321 -76 CURVE SMOOTH",
"405 -88 OFFCURVE",
"422 -63 OFFCURVE",
"525 -17 CURVE SMOOTH",
"667 47 OFFCURVE",
"828 154 OFFCURVE",
"893 94 CURVE SMOOTH",
"987 8 OFFCURVE",
"841 -100 OFFCURVE",
"840 -89 CURVE",
"833 -61 OFFCURVE",
"868 19 OFFCURVE",
"795 46 CURVE SMOOTH",
"743 65 OFFCURVE",
"628 41 OFFCURVE",
"487 -82 CURVE SMOOTH",
"264 -277 OFFCURVE",
"209 -109 OFFCURVE",
"182 -84 CURVE",
"154 -61 OFFCURVE",
"154 -49 OFFCURVE",
"139 -52 CURVE",
"124 -56 OFFCURVE",
"88 -64 OFFCURVE",
"67 -37 CURVE SMOOTH",
"47 -11 OFFCURVE",
"-13 -9 OFFCURVE",
"3 4 CURVE SMOOTH",
"26 22 OFFCURVE",
"67 19 OFFCURVE",
"67 19 CURVE SMOOTH"
);
}
);
width = 925;
}
);
note = uniEA02;
unicode = EA02;
},
{
glyphname = uniE1FC;
lastChange = "2019-03-27 09:48:31 +0000";
layers = (
{
layerId = "02376AAC-77FF-49DA-9399-294AF7A35492";
paths = (
{
closed = 1;
nodes = (
"72 -53 OFFCURVE",
"84 -48 OFFCURVE",
"95 -38 CURVE",
"105 -28 OFFCURVE",
"110 -14 OFFCURVE",
"110 1 CURVE SMOOTH",
"110 16 OFFCURVE",
"105 29 OFFCURVE",
"95 39 CURVE",
"84 49 OFFCURVE",
"72 54 OFFCURVE",
"57 54 CURVE SMOOTH",
"42 54 OFFCURVE",
"30 50 OFFCURVE",
"18 39 CURVE SMOOTH",
"7 29 OFFCURVE",
"0 16 OFFCURVE",
"0 1 CURVE SMOOTH",
"0 -14 OFFCURVE",
"5 -27 OFFCURVE",
"17 -38 CURVE SMOOTH",
"28 -48 OFFCURVE",
"42 -53 OFFCURVE",
"57 -53 CURVE SMOOTH"
);
}
);
width = 110;
}
);
note = uniE1FC;
unicode = E1FC;
},
{
glyphname = uniE4C0;
lastChange = "2018-06-26 09:55:14 +0000";
layers = (
{
layerId = "02376AAC-77FF-49DA-9399-294AF7A35492";
paths = (
{
closed = 1;
nodes = (
"11 -135 OFFCURVE",
"13 -130 OFFCURVE",
"18 -121 CURVE SMOOTH",
"23 -112 OFFCURVE",
"29 -100 OFFCURVE",
"38 -85 CURVE SMOOTH",
"47 -70 OFFCURVE",
"57 -54 OFFCURVE",
"70 -36 CURVE SMOOTH",
"83 -19 OFFCURVE",
"98 -1 OFFCURVE",
"116 17 CURVE SMOOTH",
"134 35 OFFCURVE",
"153 50 OFFCURVE",
"174 65 CURVE SMOOTH",
"194 80 OFFCURVE",
"218 92 OFFCURVE",
"245 101 CURVE SMOOTH",
"272 110 OFFCURVE",
"300 115 OFFCURVE",
"329 115 CURVE SMOOTH",
"364 115 OFFCURVE",
"396 111 OFFCURVE",
"425 104 CURVE SMOOTH",
"454 97 OFFCURVE",
"479 88 OFFCURVE",
"498 77 CURVE SMOOTH",
"517 66 OFFCURVE",
"534 53 OFFCURVE",
"550 37 CURVE",
"565 20 OFFCURVE",
"577 5 OFFCURVE",
"585 -8 CURVE SMOOTH",
"593 -21 OFFCURVE",
"600 -37 OFFCURVE",
"607 -55 CURVE",
"613 -73 OFFCURVE",
"617 -86 OFFCURVE",
"619 -94 CURVE",
"620 -102 OFFCURVE",
"622 -112 OFFCURVE",
"624 -123 CURVE",
"625 -130 OFFCURVE",
"626 -134 OFFCURVE",
"627 -134 CURVE SMOOTH",
"629 -134 OFFCURVE",
"638 -121 OFFCURVE",
"654 -94 CURVE SMOOTH",
"669 -68 OFFCURVE",
"677 -53 OFFCURVE",
"677 -49 CURVE SMOOTH",
"677 -47 OFFCURVE",
"676 -42 OFFCURVE",
"674 -34 CURVE SMOOTH",
"672 -26 OFFCURVE",
"668 -15 OFFCURVE",
"662 0 CURVE SMOOTH",
"656 15 OFFCURVE",
"649 30 OFFCURVE",
"640 46 CURVE SMOOTH",
"631 62 OFFCURVE",
"618 79 OFFCURVE",
"602 96 CURVE SMOOTH",
"586 114 OFFCURVE",
"567 128 OFFCURVE",
"546 141 CURVE SMOOTH",
"525 154 OFFCURVE",
"500 165 OFFCURVE",
"469 174 CURVE SMOOTH",
"438 183 OFFCURVE",
"405 186 OFFCURVE",
"369 186 CURVE SMOOTH",
"329 186 OFFCURVE",
"291 180 OFFCURVE",
"256 169 CURVE SMOOTH",
"221 158 OFFCURVE",
"191 143 OFFCURVE",
"167 126 CURVE SMOOTH",
"142 108 OFFCURVE",
"120 88 OFFCURVE",
"100 66 CURVE SMOOTH",
"80 44 OFFCURVE",
"64 23 OFFCURVE",
"52 2 CURVE SMOOTH",
"40 -19 OFFCURVE",
"30 -39 OFFCURVE",
"22 -58 CURVE SMOOTH",
"14 -77 OFFCURVE",
"8 -92 OFFCURVE",
"5 -103 CURVE SMOOTH",
"2 -114 OFFCURVE",
"0 -120 OFFCURVE",
"0 -121 CURVE SMOOTH",
"0 -123 OFFCURVE",
"1 -126 OFFCURVE",
"4 -129 CURVE",
"7 -133 OFFCURVE",
"9 -135 OFFCURVE",
"10 -135 CURVE SMOOTH"
);
},
{
closed = 1;
nodes = (
"371 -11 OFFCURVE",
"367 -21 OFFCURVE",
"360 -28 CURVE SMOOTH",
"352 -36 OFFCURVE",
"342 -40 OFFCURVE",
"330 -40 CURVE SMOOTH",
"319 -40 OFFCURVE",
"309 -36 OFFCURVE",
"301 -28 CURVE",
"292 -21 OFFCURVE",
"288 -11 OFFCURVE",
"288 1 CURVE SMOOTH",
"288 12 OFFCURVE",
"292 22 OFFCURVE",
"301 31 CURVE SMOOTH",
"309 39 OFFCURVE",
"319 43 OFFCURVE",
"330 43 CURVE SMOOTH",
"338 43 OFFCURVE",
"345 41 OFFCURVE",
"352 38 CURVE",
"358 34 OFFCURVE",
"363 29 OFFCURVE",
"366 23 CURVE",
"369 16 OFFCURVE",
"371 9 OFFCURVE",
"371 1 CURVE SMOOTH"
);
}
);
width = 677;
}
);
note = uniE4C0;
unicode = E4C0;
},
{
glyphname = uniE4C1;
lastChange = "2018-06-26 09:55:49 +0000";
layers = (
{
layerId = "02376AAC-77FF-49DA-9399-294AF7A35492";
paths = (
{
closed = 1;
nodes = (
"639 97 LINE SMOOTH",
"637 87 OFFCURVE",
"634 74 OFFCURVE",
"629 57 CURVE SMOOTH",
"624 41 OFFCURVE",
"617 23 OFFCURVE",
"609 3 CURVE SMOOTH",
"601 -17 OFFCURVE",
"590 -37 OFFCURVE",
"577 -57 CURVE SMOOTH",
"564 -77 OFFCURVE",
"547 -95 OFFCURVE",
"530 -112 CURVE",
"512 -128 OFFCURVE",
"490 -141 OFFCURVE",
"464 -152 CURVE",
"437 -162 OFFCURVE",
"408 -167 OFFCURVE",
"377 -167 CURVE SMOOTH",
"334 -167 OFFCURVE",
"296 -162 OFFCURVE",
"261 -152 CURVE SMOOTH",
"226 -142 OFFCURVE",
"197 -129 OFFCURVE",
"176 -114 CURVE SMOOTH",
"154 -98 OFFCURVE",
"135 -80 OFFCURVE",
"120 -61 CURVE SMOOTH",
"105 -42 OFFCURVE",
"92 -23 OFFCURVE",
"84 -4 CURVE SMOOTH",
"76 15 OFFCURVE",
"70 33 OFFCURVE",
"65 49 CURVE",
"61 65 OFFCURVE",
"58 78 OFFCURVE",
"57 88 CURVE SMOOTH",
"56 98 OFFCURVE",
"55 103 OFFCURVE",
"54 103 CURVE SMOOTH",
"53 103 OFFCURVE",
"50 98 OFFCURVE",
"44 89 CURVE SMOOTH",
"38 80 OFFCURVE",
"32 71 OFFCURVE",
"25 60 CURVE SMOOTH",
"18 49 OFFCURVE",
"12 39 OFFCURVE",
"7 29 CURVE",
"2 20 OFFCURVE",
"0 14 OFFCURVE",
"0 12 CURVE SMOOTH",
"0 9 OFFCURVE",
"1 4 OFFCURVE",
"3 -5 CURVE SMOOTH",
"5 -14 OFFCURVE",
"9 -26 OFFCURVE",
"16 -42 CURVE SMOOTH",
"23 -58 OFFCURVE",
"31 -75 OFFCURVE",
"40 -92 CURVE",
"50 -109 OFFCURVE",
"64 -127 OFFCURVE",
"81 -146 CURVE",
"99 -164 OFFCURVE",
"119 -180 OFFCURVE",
"142 -195 CURVE SMOOTH",
"164 -209 OFFCURVE",
"192 -221 OFFCURVE",
"225 -230 CURVE SMOOTH",
"258 -239 OFFCURVE",
"294 -243 OFFCURVE",
"333 -243 CURVE SMOOTH",
"376 -243 OFFCURVE",
"416 -237 OFFCURVE",
"451 -224 CURVE SMOOTH",
"486 -211 OFFCURVE",
"515 -197 OFFCURVE",
"537 -177 CURVE SMOOTH",
"558 -158 OFFCURVE",
"577 -135 OFFCURVE",
"593 -109 CURVE SMOOTH",
"609 -83 OFFCURVE",
"621 -59 OFFCURVE",
"628 -38 CURVE SMOOTH",
"635 -16 OFFCURVE",
"641 7 OFFCURVE",
"645 30 CURVE SMOOTH",
"649 54 OFFCURVE",
"651 70 OFFCURVE",
"652 78 CURVE SMOOTH",
"653 87 OFFCURVE",
"653 94 OFFCURVE",
"653 99 CURVE SMOOTH",
"653 100 OFFCURVE",
"652 103 OFFCURVE",
"649 107 CURVE SMOOTH",
"646 111 OFFCURVE",
"644 113 OFFCURVE",
"642 113 CURVE"
);
},
{
closed = 1;
nodes = (
"357 -47 OFFCURVE",
"367 -43 OFFCURVE",
"376 -34 CURVE SMOOTH",
"385 -25 OFFCURVE",
"389 -15 OFFCURVE",
"389 -2 CURVE SMOOTH",
"389 11 OFFCURVE",
"385 21 OFFCURVE",
"376 30 CURVE SMOOTH",
"367 39 OFFCURVE",
"357 43 OFFCURVE",
"344 43 CURVE SMOOTH",
"332 43 OFFCURVE",
"322 38 OFFCURVE",
"313 29 CURVE SMOOTH",
"304 20 OFFCURVE",
"299 10 OFFCURVE",
"299 -2 CURVE SMOOTH",
"299 -14 OFFCURVE",
"304 -25 OFFCURVE",
"313 -34 CURVE SMOOTH",
"322 -43 OFFCURVE",
"332 -47 OFFCURVE",
"344 -47 CURVE SMOOTH"
);
}
);
width = 653;
}
);
note = uniE4C1;
unicode = E4C1;
},
{
glyphname = uniEA00;
lastChange = "2019-03-08 17:02:29 +0000";
layers = (
{
layerId = "02376AAC-77FF-49DA-9399-294AF7A35492";
paths = (
{
closed = 1;
nodes = (
"341 -206 OFFCURVE",
"321 -225 OFFCURVE",
"321 -252 CURVE SMOOTH",
"321 -277 OFFCURVE",
"341 -297 OFFCURVE",
"366 -297 CURVE SMOOTH",
"393 -297 OFFCURVE",
"412 -277 OFFCURVE",
"412 -252 CURVE SMOOTH",
"412 -225 OFFCURVE",
"393 -206 OFFCURVE",
"366 -206 CURVE SMOOTH"
);
},
{
closed = 1;
nodes = (
"21 89 OFFCURVE",
"0 70 OFFCURVE",
"0 43 CURVE SMOOTH",
"0 18 OFFCURVE",
"21 -2 OFFCURVE",
"46 -2 CURVE SMOOTH",
"71 -2 OFFCURVE",
"92 18 OFFCURVE",
"92 43 CURVE SMOOTH",
"92 70 OFFCURVE",
"71 89 OFFCURVE",
"46 89 CURVE SMOOTH"
);
},
{
closed = 1;
nodes = (
"626 89 OFFCURVE",
"605 70 OFFCURVE",
"605 43 CURVE SMOOTH",
"605 18 OFFCURVE",
"626 -2 OFFCURVE",
"651 -2 CURVE SMOOTH",
"676 -2 OFFCURVE",
"697 18 OFFCURVE",
"697 43 CURVE SMOOTH",
"697 70 OFFCURVE",
"676 89 OFFCURVE",
"651 89 CURVE SMOOTH"
);
},
{
closed = 1;
nodes = (
"356 282 OFFCURVE",
"273 178 OFFCURVE",
"273 135 CURVE SMOOTH",
"273 61 OFFCURVE",
"367 33 OFFCURVE",
"367 -7 CURVE SMOOTH",
"367 -24 OFFCURVE",
"356 -45 OFFCURVE",
"331 -45 CURVE SMOOTH",
"289 -45 OFFCURVE",
"278 1 OFFCURVE",
"278 34 CURVE SMOOTH",
"278 50 OFFCURVE",
"198 -33 OFFCURVE",
"198 -50 CURVE SMOOTH",
"198 -71 OFFCURVE",
"223 -114 OFFCURVE",
"298 -114 CURVE SMOOTH",
"370 -114 OFFCURVE",
"444 -18 OFFCURVE",
"444 43 CURVE SMOOTH",
"444 99 OFFCURVE",
"359 154 OFFCURVE",
"359 191 CURVE SMOOTH",
"359 208 OFFCURVE",
"379 221 OFFCURVE",
"396 221 CURVE SMOOTH",
"432 221 OFFCURVE",
"428 146 OFFCURVE",
"432 146 CURVE SMOOTH",
"437 146 OFFCURVE",
"487 187 OFFCURVE",
"487 195 CURVE SMOOTH",
"487 200 OFFCURVE",
"495 282 OFFCURVE",
"429 282 CURVE SMOOTH"
);
}
);
width = 697;
}
);
unicode = EA00;
},
{
glyphname = uniE8E4;
lastChange = "2019-03-27 08:26:24 +0000";
layers = (
{
layerId = "02376AAC-77FF-49DA-9399-294AF7A35492";
paths = (
{
closed = 1;
nodes = (
"931 498 OFFCURVE",
"914 501 OFFCURVE",
"920 522 CURVE",
"926 540 OFFCURVE",
"939 552 OFFCURVE",
"950 566 CURVE",
"363 522 OFFCURVE",
"0 5 OFFCURVE",
"0 0 CURVE",
"24 0 LINE",
"49 0 OFFCURVE",
"359 381 OFFCURVE",
"925 409 CURVE",
"925 437 OFFCURVE",
"928 466 OFFCURVE",
"942 489 CURVE"
);
}
);
width = 950;
}
);
unicode = E8E4;
},
{
glyphname = uniE8E5;
lastChange = "2019-03-27 08:26:33 +0000";
layers = (
{
layerId = "02376AAC-77FF-49DA-9399-294AF7A35492";
paths = (
{
closed = 1;
nodes = (
"14 526 OFFCURVE",
"33 528 OFFCURVE",
"26 550 CURVE",
"19 570 OFFCURVE",
"6 583 OFFCURVE",
"-6 597 CURVE",
"625 550 OFFCURVE",
"1014 4 OFFCURVE",
"1014 -1 CURVE",
"989 -1 LINE",
"962 -1 OFFCURVE",
"628 402 OFFCURVE",
"21 429 CURVE",
"21 461 OFFCURVE",
"18 491 OFFCURVE",
"2 516 CURVE"
);
}
);
width = 1020;
}
);
unicode = E8E5;
},
{
glyphname = uniF0A0;
lastChange = "2018-05-24 15:38:52 +0000";
layers = (
{
layerId = "02376AAC-77FF-49DA-9399-294AF7A35492";
paths = (
{
closed = 1;
nodes = (
"-1 233 OFFCURVE",
"-7 -68 OFFCURVE",
"7 -368 CURVE",
"7 -382 OFFCURVE",
"32 -382 OFFCURVE",
"32 -368 CURVE",
"41 -112 OFFCURVE",
"70 149 OFFCURVE",
"120 402 CURVE",
"109 402 OFFCURVE",
"104 405 OFFCURVE",
"95 405 CURVE",
"104 210 OFFCURVE",
"109 12 OFFCURVE",
"104 -184 CURVE",
"104 -193 OFFCURVE",
"113 -196 OFFCURVE",
"125 -193 CURVE",
"172 -170 OFFCURVE",
"186 -107 OFFCURVE",
"202 -63 CURVE",
"216 12 OFFCURVE",
"230 82 OFFCURVE",
"239 158 CURVE",
"265 303 OFFCURVE",
"270 454 OFFCURVE",
"258 603 CURVE",
"258 617 OFFCURVE",
"235 617 OFFCURVE",
"235 603 CURVE",
"211 321 OFFCURVE",
"207 39 OFFCURVE",
"216 -244 CURVE",
"216 -258 OFFCURVE",
"235 -261 OFFCURVE",
"239 -249 CURVE",
"298 -14 OFFCURVE",
"332 225 OFFCURVE",
"342 463 CURVE",
"342 477 OFFCURVE",
"318 477 OFFCURVE",
"318 468 CURVE",
"279 303 OFFCURVE",
"246 123 OFFCURVE",
"342 -28 CURVE",
"346 -37 OFFCURVE",
"356 -37 OFFCURVE",
"365 -28 CURVE",
"463 96 OFFCURVE",
"488 263 OFFCURVE",
"428 405 CURVE",
"425 414 OFFCURVE",
"404 419 OFFCURVE",
"404 405 CURVE",
"372 205 OFFCURVE",
"372 -2 OFFCURVE",
"404 -205 CURVE",
"404 -214 OFFCURVE",
"425 -214 OFFCURVE",
"428 -205 CURVE",
"488 -54 OFFCURVE",
"521 105 OFFCURVE",
"518 263 CURVE",
"518 277 OFFCURVE",
"498 277 OFFCURVE",
"498 268 CURVE",
"458 149 OFFCURVE",
"448 30 OFFCURVE",
"472 -89 CURVE",
"472 -98 OFFCURVE",
"491 -103 OFFCURVE",
"491 -95 CURVE",
"570 61 OFFCURVE",
"593 228 OFFCURVE",
"623 396 CURVE",
"612 396 OFFCURVE",
"604 396 OFFCURVE",
"598 396 CURVE",
"593 205 OFFCURVE",
"593 16 OFFCURVE",
"590 -174 CURVE",
"598 -174 OFFCURVE",
"604 -174 OFFCURVE",
"612 -174 CURVE",
"612 -138 OFFCURVE",
"612 -103 OFFCURVE",
"612 -72 CURVE",
"612 -54 OFFCURVE",
"590 -54 OFFCURVE",
"590 -72 CURVE",
"590 -103 OFFCURVE",
"590 -138 OFFCURVE",
"590 -174 CURVE",
"590 -188 OFFCURVE",
"612 -188 OFFCURVE",
"612 -174 CURVE",
"618 16 OFFCURVE",
"618 205 OFFCURVE",
"623 396 CURVE",
"623 410 OFFCURVE",
"598 414 OFFCURVE",
"598 402 CURVE",
"574 237 OFFCURVE",
"546 70 OFFCURVE",
"472 -81 CURVE",
"483 -86 OFFCURVE",
"488 -86 OFFCURVE",
"498 -86 CURVE",
"472 30 OFFCURVE",
"483 149 OFFCURVE",
"518 260 CURVE",
"511 263 OFFCURVE",
"502 263 OFFCURVE",
"491 263 CURVE",
"498 105 OFFCURVE",
"463 -51 OFFCURVE",
"404 -196 CURVE",
"416 -196 OFFCURVE",
"419 -196 OFFCURVE",
"428 -196 CURVE",
"395 -2 OFFCURVE",
"395 202 OFFCURVE",
"428 402 CURVE",
"419 402 OFFCURVE",
"416 402 OFFCURVE",
"404 402 CURVE",
"458 263 OFFCURVE",
"439 105 OFFCURVE",
"342 -19 CURVE",
"353 -19 OFFCURVE",
"356 -19 OFFCURVE",
"365 -19 CURVE",
"270 128 OFFCURVE",
"302 303 OFFCURVE",
"342 459 CURVE",
"332 463 OFFCURVE",
"321 463 OFFCURVE",
"318 463 CURVE",
"309 225 OFFCURVE",
"274 -10 OFFCURVE",
"216 -238 CURVE",
"221 -244 OFFCURVE",
"230 -244 OFFCURVE",
"239 -244 CURVE",
"230 39 OFFCURVE",
"235 321 OFFCURVE",
"258 603 CURVE",
"255 603 OFFCURVE",
"246 603 OFFCURVE",
"235 603 CURVE",
"246 468 OFFCURVE",
"239 326 OFFCURVE",
"221 188 CURVE",
"211 119 OFFCURVE",
"202 53 OFFCURVE",
"186 -19 CURVE",
"172 -68 OFFCURVE",
"167 -147 OFFCURVE",
"109 -174 CURVE",
"113 -174 OFFCURVE",
"120 -179 OFFCURVE",
"128 -184 CURVE",
"134 12 OFFCURVE",
"128 210 OFFCURVE",
"120 405 CURVE",
"120 414 OFFCURVE",
"100 419 OFFCURVE",
"95 410 CURVE",
"46 149 OFFCURVE",
"18 -107 OFFCURVE",
"7 -368 CURVE",
"18 -368 OFFCURVE",
"27 -368 OFFCURVE",
"32 -368 CURVE",
"18 -68 OFFCURVE",
"21 233 OFFCURVE",
"53 528 CURVE",
"56 542 OFFCURVE",
"32 542 OFFCURVE",
"27 528 CURVE"
);
},
{
closed = 1;
nodes = (
"158 402 OFFCURVE",
"249 277 OFFCURVE",
"353 158 CURVE",
"458 35 OFFCURVE",
"565 -95 OFFCURVE",
"672 -217 CURVE",
"681 -226 OFFCURVE",
"700 -214 OFFCURVE",
"691 -202 CURVE",
"584 -77 OFFCURVE",
"472 47 OFFCURVE",
"365 175 CURVE",
"270 295 OFFCURVE",
"176 414 OFFCURVE",
"109 551 CURVE",
"104 565 OFFCURVE",
"85 556 OFFCURVE",
"90 542 CURVE"
);
},
{
closed = 1;
nodes = (
"518 459 OFFCURVE",
"391 344 OFFCURVE",
"284 210 CURVE",
"176 82 OFFCURVE",
"90 -60 OFFCURVE",
"32 -210 CURVE",
"27 -221 OFFCURVE",
"53 -230 OFFCURVE",
"56 -217 CURVE",
"113 -63 OFFCURVE",
"202 79 OFFCURVE",
"309 205 CURVE",
"416 335 OFFCURVE",
"535 451 OFFCURVE",
"633 586 CURVE",
"644 600 OFFCURVE",
"618 609 OFFCURVE",
"612 595 CURVE"
);
}
);
width = 693;
}
);
unicode = F0A0;
},
{
glyphname = uniF0A6;
lastChange = "2018-05-24 15:49:04 +0000";
layers = (
{
layerId = "02376AAC-77FF-49DA-9399-294AF7A35492";
paths = (
{
closed = 1;
nodes = (
"308 -397 OFFCURVE",
"301 -400 OFFCURVE",
"294 -403 CURVE",
"289 -405 OFFCURVE",
"285 -406 OFFCURVE",
"280 -407 CURVE",
"278 -397 OFFCURVE",
"279 -387 OFFCURVE",
"274 -382 CURVE",
"269 -377 OFFCURVE",
"259 -377 OFFCURVE",
"250 -374 CURVE",
"249 -383 OFFCURVE",
"248 -389 OFFCURVE",
"248 -394 CURVE",
"238 -396 OFFCURVE",
"238 -395 OFFCURVE",
"231 -377 CURVE",
"226 -376 OFFCURVE",
"221 -376 OFFCURVE",
"213 -375 CURVE",
"214 -368 OFFCURVE",
"215 -361 OFFCURVE",
"217 -355 CURVE",
"221 -346 OFFCURVE",
"217 -338 OFFCURVE",
"207 -336 CURVE",
"207 -336 OFFCURVE",
"206 -336 OFFCURVE",
"206 -336 CURVE",
"197 -328 OFFCURVE",
"189 -323 OFFCURVE",
"177 -331 CURVE",
"176 -331 OFFCURVE",
"172 -327 OFFCURVE",
"169 -324 CURVE",
"184 -312 OFFCURVE",
"170 -304 OFFCURVE",
"164 -299 CURVE",
"157 -293 OFFCURVE",
"146 -292 OFFCURVE",
"135 -288 CURVE",
"136 -278 OFFCURVE",
"148 -266 OFFCURVE",
"135 -255 CURVE",
"156 -234 OFFCURVE",
"151 -211 OFFCURVE",
"146 -187 CURVE",
"145 -185 OFFCURVE",
"145 -184 OFFCURVE",
"145 -182 CURVE",
"145 -175 OFFCURVE",
"166 -163 OFFCURVE",
"173 -166 CURVE",
"175 -157 OFFCURVE",
"176 -148 OFFCURVE",
"178 -139 CURVE",
"158 -142 OFFCURVE",
"140 -146 OFFCURVE",
"120 -150 CURVE",
"113 -143 OFFCURVE",
"113 -139 OFFCURVE",
"123 -133 CURVE",
"127 -131 OFFCURVE",
"131 -127 OFFCURVE",
"134 -123 CURVE",
"129 -120 OFFCURVE",
"123 -115 OFFCURVE",
"117 -114 CURVE",
"109 -112 OFFCURVE",
"100 -114 OFFCURVE",
"90 -114 CURVE",
"96 -103 OFFCURVE",
"114 -99 OFFCURVE",
"126 -105 CURVE",
"139 -110 OFFCURVE",
"171 -99 OFFCURVE",
"177 -87 CURVE",
"182 -79 OFFCURVE",
"177 -69 OFFCURVE",
"169 -64 CURVE",
"159 -58 OFFCURVE",
"148 -52 OFFCURVE",
"149 -37 CURVE",
"140 -32 OFFCURVE",
"137 -24 OFFCURVE",
"141 -15 CURVE",
"149 2 OFFCURVE",
"146 10 OFFCURVE",
"129 15 CURVE",
"126 16 OFFCURVE",
"123 20 OFFCURVE",
"120 22 CURVE",
"120 23 OFFCURVE",
"120 24 OFFCURVE",
"120 26 CURVE",
"126 27 OFFCURVE",
"133 31 OFFCURVE",
"138 29 CURVE",
"144 26 OFFCURVE",
"148 23 OFFCURVE",
"151 30 CURVE",
"154 36 OFFCURVE",
"155 44 OFFCURVE",
"153 49 CURVE",
"144 65 OFFCURVE",
"125 66 OFFCURVE",
"110 74 CURVE",
"109 75 OFFCURVE",
"105 72 OFFCURVE",
"102 70 CURVE",
"104 72 OFFCURVE",
"106 75 OFFCURVE",
"108 77 CURVE",
"103 82 OFFCURVE",
"98 88 OFFCURVE",
"93 94 CURVE",
"91 91 OFFCURVE",
"89 89 OFFCURVE",
"87 87 CURVE",
"84 95 OFFCURVE",
"80 102 OFFCURVE",
"77 110 CURVE",
"74 117 OFFCURVE",
"72 123 OFFCURVE",
"70 130 CURVE",
"68 139 OFFCURVE",
"58 144 OFFCURVE",
"49 140 CURVE",
"40 135 OFFCURVE",
"31 129 OFFCURVE",
"22 125 CURVE",
"16 123 OFFCURVE",
"8 124 OFFCURVE",
"0 124 CURVE",
"9 136 OFFCURVE",
"9 136 OFFCURVE",
"52 153 CURVE",
"47 160 OFFCURVE",
"44 170 OFFCURVE",
"38 171 CURVE",
"30 173 OFFCURVE",
"21 168 OFFCURVE",
"12 165 CURVE",
"11 166 OFFCURVE",
"8 168 OFFCURVE",
"3 172 CURVE",
"10 175 OFFCURVE",
"15 176 OFFCURVE",
"19 179 CURVE",
"23 182 OFFCURVE",
"30 187 OFFCURVE",
"30 191 CURVE",
"29 195 OFFCURVE",
"23 199 OFFCURVE",
"18 203 CURVE",
"16 205 OFFCURVE",
"13 206 OFFCURVE",
"11 208 CURVE",
"13 209 OFFCURVE",
"15 212 OFFCURVE",
"17 213 CURVE",
"22 217 OFFCURVE",
"22 225 OFFCURVE",
"16 228 CURVE",
"14 229 OFFCURVE",
"12 230 OFFCURVE",
"10 231 CURVE",
"7 234 OFFCURVE",
"4 237 OFFCURVE",
"1 240 CURVE",
"5 242 OFFCURVE",
"9 243 OFFCURVE",
"15 246 CURVE",
"25 258 OFFCURVE",
"13 268 OFFCURVE",
"7 278 CURVE",
"-1 291 OFFCURVE",
"-1 292 OFFCURVE",
"12 298 CURVE",
"20 302 OFFCURVE",
"20 310 OFFCURVE",
"23 318 CURVE",
"27 331 OFFCURVE",
"19 336 OFFCURVE",
"12 343 CURVE",
"11 345 OFFCURVE",
"11 348 OFFCURVE",
"11 350 CURVE",
"12 351 OFFCURVE",
"13 352 OFFCURVE",
"14 351 CURVE",
"34 346 OFFCURVE",
"38 362 OFFCURVE",
"45 375 CURVE",
"48 382 OFFCURVE",
"48 389 OFFCURVE",
"50 396 CURVE",
"51 399 OFFCURVE",
"53 402 OFFCURVE",
"55 404 CURVE",
"63 413 OFFCURVE",
"75 421 OFFCURVE",
"65 436 CURVE",
"64 438 OFFCURVE",
"66 443 OFFCURVE",
"66 446 CURVE",
"67 446 OFFCURVE",
"68 447 OFFCURVE",
"70 448 CURVE",
"74 441 OFFCURVE",
"78 434 OFFCURVE",
"81 428 CURVE",
"103 450 OFFCURVE",
"125 472 OFFCURVE",
"148 495 CURVE",
"153 491 OFFCURVE",
"159 487 OFFCURVE",
"165 483 CURVE",
"172 479 OFFCURVE",
"183 482 OFFCURVE",
"183 490 CURVE",
"183 497 OFFCURVE",
"180 505 OFFCURVE",
"178 513 CURVE",
"178 517 OFFCURVE",
"177 522 OFFCURVE",
"177 526 CURVE",
"178 528 OFFCURVE",
"183 530 OFFCURVE",
"185 530 CURVE",
"187 530 OFFCURVE",
"190 525 OFFCURVE",
"189 523 CURVE",
"189 510 OFFCURVE",
"202 506 OFFCURVE",
"207 497 CURVE",
"208 496 OFFCURVE",
"220 499 OFFCURVE",
"223 503 CURVE",
"230 511 OFFCURVE",
"235 513 OFFCURVE",
"243 505 CURVE",
"247 501 OFFCURVE",
"256 500 OFFCURVE",
"261 502 CURVE",
"272 506 OFFCURVE",
"282 512 OFFCURVE",
"293 517 CURVE",
"293 525 OFFCURVE",
"293 531 OFFCURVE",
"293 540 CURVE",
"297 539 OFFCURVE",
"302 538 OFFCURVE",
"302 537 CURVE",
"302 532 OFFCURVE",
"303 525 OFFCURVE",
"300 520 CURVE",
"294 506 OFFCURVE",
"295 500 OFFCURVE",
"308 494 CURVE",
"312 492 OFFCURVE",
"317 494 OFFCURVE",
"323 494 CURVE",
"316 501 OFFCURVE",
"312 505 OFFCURVE",
"309 510 CURVE",
"308 511 OFFCURVE",
"311 516 OFFCURVE",
"314 519 CURVE",
"314 520 OFFCURVE",
"317 521 OFFCURVE",
"318 521 CURVE",
"325 517 OFFCURVE",
"331 510 OFFCURVE",
"340 515 CURVE",
"341 510 OFFCURVE",
"342 505 OFFCURVE",
"341 501 CURVE",
"341 498 OFFCURVE",
"337 496 OFFCURVE",
"335 493 CURVE",
"343 477 OFFCURVE",
"346 476 OFFCURVE",
"369 477 CURVE",
"375 484 OFFCURVE",
"375 500 OFFCURVE",
"391 495 CURVE",
"387 484 OFFCURVE",
"384 474 OFFCURVE",
"380 461 CURVE",
"392 462 OFFCURVE",
"399 461 OFFCURVE",
"406 463 CURVE",
"414 465 OFFCURVE",
"416 462 OFFCURVE",
"417 456 CURVE",
"417 452 OFFCURVE",
"417 449 OFFCURVE",
"417 446 CURVE",
"417 428 OFFCURVE",
"425 420 OFFCURVE",
"442 416 CURVE",
"454 413 OFFCURVE",
"465 406 OFFCURVE",
"476 401 CURVE",
"475 398 OFFCURVE",
"475 397 OFFCURVE",
"475 397 CURVE",
"458 381 OFFCURVE",
"458 378 OFFCURVE",
"474 362 CURVE",
"480 356 OFFCURVE",
"483 350 OFFCURVE",
"483 340 CURVE",
"484 334 OFFCURVE",
"494 327 OFFCURVE",
"501 323 CURVE",
"508 319 OFFCURVE",
"507 317 OFFCURVE",
"503 311 CURVE",
"500 307 OFFCURVE",
"498 302 OFFCURVE",
"495 296 CURVE",
"504 292 OFFCURVE",
"514 291 OFFCURVE",
"511 278 CURVE",
"505 278 OFFCURVE",
"499 278 OFFCURVE",
"490 277 CURVE",
"497 265 OFFCURVE",
"506 253 OFFCURVE",
"493 239 CURVE",
"479 240 OFFCURVE",
"480 224 OFFCURVE",
"479 216 CURVE",
"478 208 OFFCURVE",
"485 196 OFFCURVE",
"499 198 CURVE",
"498 193 OFFCURVE",
"497 188 OFFCURVE",
"495 182 CURVE",
"489 184 OFFCURVE",
"484 185 OFFCURVE",
"476 188 CURVE",
"475 183 OFFCURVE",
"474 178 OFFCURVE",
"475 173 CURVE",
"476 168 OFFCURVE",
"480 163 OFFCURVE",
"483 157 CURVE",
"475 153 OFFCURVE",
"469 150 OFFCURVE",
"462 147 CURVE",
"464 138 OFFCURVE",
"466 130 OFFCURVE",
"468 119 CURVE",
"480 128 OFFCURVE",
"491 137 OFFCURVE",
"503 144 CURVE",
"511 149 OFFCURVE",
"521 153 OFFCURVE",
"531 154 CURVE",
"542 157 OFFCURVE",
"558 171 OFFCURVE",
"561 183 CURVE",
"564 191 OFFCURVE",
"571 197 OFFCURVE",
"575 205 CURVE",
"581 216 OFFCURVE",
"577 232 OFFCURVE",
"570 241 CURVE",
"561 252 OFFCURVE",
"554 263 OFFCURVE",
"546 274 CURVE",
"536 287 OFFCURVE",
"544 296 OFFCURVE",
"551 305 CURVE",
"553 307 OFFCURVE",
"555 309 OFFCURVE",
"558 312 CURVE",
"560 311 OFFCURVE",
"562 308 OFFCURVE",
"564 308 CURVE",
"578 309 OFFCURVE",
"584 304 OFFCURVE",
"588 291 CURVE",
"591 280 OFFCURVE",
"592 271 OFFCURVE",
"587 260 CURVE",
"578 239 OFFCURVE",
"581 216 OFFCURVE",
"595 207 CURVE",
"604 201 OFFCURVE",
"614 196 OFFCURVE",
"624 190 CURVE",
"626 189 OFFCURVE",
"629 190 OFFCURVE",
"631 191 CURVE",
"636 192 OFFCURVE",
"642 194 OFFCURVE",
"648 193 CURVE",
"666 190 OFFCURVE",
"678 200 OFFCURVE",
"690 212 CURVE",
"691 214 OFFCURVE",
"693 216 OFFCURVE",
"694 218 CURVE",
"699 241 OFFCURVE",
"715 239 OFFCURVE",
"730 229 CURVE",
"739 222 OFFCURVE",
"745 222 OFFCURVE",
"753 230 CURVE",
"768 244 OFFCURVE",
"785 256 OFFCURVE",
"801 268 CURVE",
"802 269 OFFCURVE",
"805 268 OFFCURVE",
"808 268 CURVE",
"808 267 OFFCURVE",
"809 266 OFFCURVE",
"810 265 CURVE",
"793 250 OFFCURVE",
"777 236 OFFCURVE",
"761 222 CURVE",
"750 213 OFFCURVE",
"739 203 OFFCURVE",
"728 195 CURVE",
"718 187 OFFCURVE",
"706 180 OFFCURVE",
"696 172 CURVE",
"686 163 OFFCURVE",
"678 153 OFFCURVE",
"669 143 CURVE",
"661 134 OFFCURVE",
"653 125 OFFCURVE",
"644 115 CURVE",
"634 103 OFFCURVE",
"623 91 OFFCURVE",
"612 79 CURVE",
"611 77 OFFCURVE",
"610 74 OFFCURVE",
"610 71 CURVE",
"609 69 OFFCURVE",
"610 65 OFFCURVE",
"609 64 CURVE",
"591 51 OFFCURVE",
"611 47 OFFCURVE",
"613 37 CURVE",
"605 22 OFFCURVE",
"610 0 OFFCURVE",
"627 -8 CURVE",
"630 -9 OFFCURVE",
"635 -6 OFFCURVE",
"639 -4 CURVE",
"640 -4 OFFCURVE",
"641 0 OFFCURVE",
"642 0 CURVE",
"660 -1 OFFCURVE",
"661 18 OFFCURVE",
"671 26 CURVE",
"679 32 OFFCURVE",
"681 45 OFFCURVE",
"686 56 CURVE",
"689 51 OFFCURVE",
"692 47 OFFCURVE",
"694 44 CURVE",
"697 36 OFFCURVE",
"694 28 OFFCURVE",
"686 25 CURVE",
"666 18 OFFCURVE",
"660 -8 OFFCURVE",
"666 -24 CURVE",
"668 -28 OFFCURVE",
"663 -37 OFFCURVE",
"661 -37 CURVE",
"650 -36 OFFCURVE",
"649 -43 OFFCURVE",
"650 -50 CURVE",
"653 -61 OFFCURVE",
"664 -68 OFFCURVE",
"672 -62 CURVE",
"681 -56 OFFCURVE",
"684 -60 OFFCURVE",
"690 -66 CURVE",
"684 -71 OFFCURVE",
"679 -76 OFFCURVE",
"684 -85 CURVE",
"685 -86 OFFCURVE",
"682 -92 OFFCURVE",
"679 -94 CURVE",
"667 -103 OFFCURVE",
"666 -106 OFFCURVE",
"677 -118 CURVE",
"690 -131 OFFCURVE",
"693 -146 OFFCURVE",
"687 -164 CURVE",
"685 -171 OFFCURVE",
"685 -180 OFFCURVE",
"685 -188 CURVE",
"683 -219 OFFCURVE",
"681 -250 OFFCURVE",
"680 -280 CURVE",
"679 -284 OFFCURVE",
"679 -287 OFFCURVE",
"679 -291 CURVE",
"668 -291 OFFCURVE",
"657 -292 OFFCURVE",
"654 -305 CURVE",
"653 -305 OFFCURVE",
"645 -314 OFFCURVE",
"637 -308 CURVE",
"631 -303 OFFCURVE",
"619 -310 OFFCURVE",
"615 -320 CURVE",
"613 -325 OFFCURVE",
"606 -331 OFFCURVE",
"613 -338 CURVE",
"614 -339 OFFCURVE",
"610 -346 OFFCURVE",
"607 -350 CURVE",
"606 -350 OFFCURVE",
"601 -349 OFFCURVE",
"599 -347 CURVE",
"587 -342 OFFCURVE",
"569 -352 OFFCURVE",
"566 -365 CURVE",
"565 -369 OFFCURVE",
"562 -372 OFFCURVE",
"562 -373 CURVE",
"549 -373 OFFCURVE",
"536 -369 OFFCURVE",
"527 -374 CURVE",
"519 -378 OFFCURVE",
"516 -391 OFFCURVE",
"511 -399 CURVE",
"504 -394 OFFCURVE",
"495 -385 OFFCURVE",
"491 -387 CURVE",
"483 -392 OFFCURVE",
"470 -389 OFFCURVE",
"465 -403 CURVE",
"462 -411 OFFCURVE",
"447 -415 OFFCURVE",
"437 -421 CURVE",
"435 -422 OFFCURVE",
"432 -424 OFFCURVE",
"432 -426 CURVE",
"433 -436 OFFCURVE",
"425 -439 OFFCURVE",
"418 -442 CURVE",
"406 -447 OFFCURVE",
"395 -442 OFFCURVE",
"392 -431 CURVE",
"389 -424 OFFCURVE",
"386 -412 OFFCURVE",
"382 -412 CURVE",
"370 -410 OFFCURVE",
"357 -411 OFFCURVE",
"344 -414 CURVE",
"340 -415 OFFCURVE",
"339 -425 OFFCURVE",
"335 -434 CURVE",
"344 -434 OFFCURVE",
"350 -434 OFFCURVE",
"357 -434 CURVE",
"357 -431 OFFCURVE",
"357 -427 OFFCURVE",
"358 -425 CURVE",
"360 -421 OFFCURVE",
"363 -416 OFFCURVE",
"367 -415 CURVE",
"369 -415 OFFCURVE",
"375 -418 OFFCURVE",
"376 -421 CURVE",
"377 -424 OFFCURVE",
"375 -428 OFFCURVE",
"373 -432 CURVE",
"370 -439 OFFCURVE",
"366 -445 OFFCURVE",
"364 -453 CURVE",
"360 -464 OFFCURVE",
"352 -469 OFFCURVE",
"342 -472 CURVE",
"340 -472 OFFCURVE",
"334 -470 OFFCURVE",
"334 -469 CURVE",
"333 -455 OFFCURVE",
"317 -446 OFFCURVE",
"322 -430 CURVE",
"324 -426 OFFCURVE",
"326 -423 OFFCURVE",
"326 -419 CURVE",
"326 -415 OFFCURVE",
"324 -410 OFFCURVE",
"322 -406 CURVE",
"320 -403 OFFCURVE",
"318 -400 OFFCURVE",
"314 -394 CURVE"
);
},
{
closed = 1;
nodes = (
"891 124 OFFCURVE",
"885 125 OFFCURVE",
"880 127 CURVE",
"869 132 OFFCURVE",
"869 144 OFFCURVE",
"879 151 CURVE",
"889 158 OFFCURVE",
"899 167 OFFCURVE",
"914 164 CURVE",
"923 162 OFFCURVE",
"927 159 OFFCURVE",
"928 150 CURVE",
"928 136 OFFCURVE",
"914 124 OFFCURVE",
"897 122 CURVE"
);
},
{
closed = 1;
nodes = (
"936 120 OFFCURVE",
"941 121 OFFCURVE",
"944 119 CURVE",
"949 117 OFFCURVE",
"955 113 OFFCURVE",
"957 108 CURVE",
"959 102 OFFCURVE",
"956 97 OFFCURVE",
"948 94 CURVE",
"937 91 OFFCURVE",
"927 82 OFFCURVE",
"914 85 CURVE",
"903 86 OFFCURVE",
"892 102 OFFCURVE",
"899 108 CURVE",
"904 114 OFFCURVE",
"912 117 OFFCURVE",
"920 119 CURVE",
"923 121 OFFCURVE",
"928 120 OFFCURVE",
"932 120 CURVE",
"932 120 OFFCURVE",
"932 120 OFFCURVE",
"932 120 CURVE"
);
},
{
closed = 1;
nodes = (
"784 148 OFFCURVE",
"762 119 OFFCURVE",
"755 119 CURVE",
"750 119 OFFCURVE",
"743 122 OFFCURVE",
"741 126 CURVE",
"738 129 OFFCURVE",
"738 138 OFFCURVE",
"741 141 CURVE",
"750 151 OFFCURVE",
"760 160 OFFCURVE",
"771 168 CURVE",
"776 172 OFFCURVE",
"784 163 OFFCURVE",
"784 156 CURVE"
);
},
{
closed = 1;
nodes = (
"802 -38 OFFCURVE",
"808 -25 OFFCURVE",
"812 -12 CURVE",
"815 -2 OFFCURVE",
"822 -3 OFFCURVE",
"827 -6 CURVE",
"831 -8 OFFCURVE",
"833 -16 OFFCURVE",
"832 -21 CURVE",
"831 -28 OFFCURVE",
"826 -35 OFFCURVE",
"823 -42 CURVE",
"819 -53 OFFCURVE",
"810 -55 OFFCURVE",
"797 -54 CURVE"
);
},
{
closed = 1;
nodes = (
"862 310 OFFCURVE",
"903 347 OFFCURVE",
"923 346 CURVE",
"903 328 OFFCURVE",
"884 310 OFFCURVE",
"864 290 CURVE"
);
},
{
closed = 1;
nodes = (
"572 -399 OFFCURVE",
"580 -388 OFFCURVE",
"590 -373 CURVE",
"592 -382 OFFCURVE",
"597 -389 OFFCURVE",
"595 -393 CURVE",
"590 -401 OFFCURVE",
"583 -409 OFFCURVE",
"575 -415 CURVE",
"573 -417 OFFCURVE",
"566 -414 OFFCURVE",
"563 -413 CURVE"
);
},
{
closed = 1;
nodes = (
"826 330 OFFCURVE",
"827 342 OFFCURVE",
"842 347 CURVE",
"845 348 OFFCURVE",
"852 343 OFFCURVE",
"852 342 CURVE",
"849 333 OFFCURVE",
"846 325 OFFCURVE",
"842 315 CURVE"
);
},
{
closed = 1;
nodes = (
"104 -271 OFFCURVE",
"98 -273 OFFCURVE",
"93 -271 CURVE",
"88 -269 OFFCURVE",
"84 -265 OFFCURVE",
"80 -261 CURVE",
"84 -258 OFFCURVE",
"88 -253 OFFCURVE",
"93 -252 CURVE",
"101 -250 OFFCURVE",
"110 -261 OFFCURVE",
"109 -271 CURVE"
);
},
{
closed = 1;
nodes = (
"681 80 OFFCURVE",
"673 80 OFFCURVE",
"666 80 CURVE",
"664 94 OFFCURVE",
"669 97 OFFCURVE",
"689 94 CURVE",
"689 90 OFFCURVE",
"689 86 OFFCURVE",
"690 80 CURVE"
);
},
{
closed = 1;
nodes = (
"96 -171 OFFCURVE",
"81 -183 OFFCURVE",
"64 -181 CURVE",
"75 -172 OFFCURVE",
"83 -164 OFFCURVE",
"94 -155 CURVE"
);
},
{
closed = 1;
nodes = (
"656 72 OFFCURVE",
"660 70 OFFCURVE",
"664 68 CURVE",
"664 64 OFFCURVE",
"664 60 OFFCURVE",
"664 56 CURVE",
"644 53 OFFCURVE",
"644 54 OFFCURVE",
"651 74 CURVE"
);
},
{
closed = 1;
nodes = (
"145 568 OFFCURVE",
"149 574 OFFCURVE",
"157 566 CURVE",
"163 560 OFFCURVE",
"160 556 OFFCURVE",
"155 552 CURVE",
"150 548 OFFCURVE",
"150 548 OFFCURVE",
"140 563 CURVE"
);
},
{
closed = 1;
nodes = (
"911 465 OFFCURVE",
"922 481 OFFCURVE",
"932 480 CURVE",
"927 470 OFFCURVE",
"922 461 OFFCURVE",
"915 449 CURVE"
);
},
{
closed = 1;
nodes = (
"775 396 OFFCURVE",
"780 394 OFFCURVE",
"784 391 CURVE",
"780 388 OFFCURVE",
"777 385 OFFCURVE",
"773 381 CURVE",
"771 385 OFFCURVE",
"769 389 OFFCURVE",
"766 393 CURVE",
"768 395 OFFCURVE",
"769 397 OFFCURVE",
"771 398 CURVE"
);
},
{
closed = 1;
nodes = (
"987 383 OFFCURVE",
"980 377 OFFCURVE",
"973 370 CURVE",
"971 383 OFFCURVE",
"980 392 OFFCURVE",
"994 389 CURVE"
);
},
{
closed = 1;
nodes = (
"526 220 OFFCURVE",
"526 226 OFFCURVE",
"526 232 CURVE",
"527 233 OFFCURVE",
"528 233 OFFCURVE",
"529 234 CURVE",
"532 231 OFFCURVE",
"537 228 OFFCURVE",
"537 226 CURVE",
"536 221 OFFCURVE",
"540 210 OFFCURVE",
"526 214 CURVE"
);
},
{
closed = 1;
nodes = (
"709 -54 OFFCURVE",
"707 -57 OFFCURVE",
"705 -59 CURVE",
"703 -57 OFFCURVE",
"700 -54 OFFCURVE",
"700 -52 CURVE",
"700 -49 OFFCURVE",
"702 -46 OFFCURVE",
"704 -44 CURVE",
"706 -46 OFFCURVE",
"708 -48 OFFCURVE",
"712 -51 CURVE"
);
}
);
width = 994;
}
);
unicode = F0A6;
},
{
glyphname = uniF0A7;
lastChange = "2018-05-24 15:48:23 +0000";
layers = (
{
layerId = "02376AAC-77FF-49DA-9399-294AF7A35492";
paths = (
{
closed = 1;
nodes = (
"166 -83 OFFCURVE",
"196 -70 OFFCURVE",
"223 -63 CURVE",
"243 -58 OFFCURVE",
"263 -55 OFFCURVE",
"283 -53 CURVE",
"312 -53 OFFCURVE",
"335 -68 OFFCURVE",
"347 -95 CURVE",
"354 -112 OFFCURVE",
"359 -130 OFFCURVE",
"364 -147 CURVE",
"367 -152 OFFCURVE",
"367 -154 OFFCURVE",
"369 -162 CURVE",
"374 -154 OFFCURVE",
"382 -149 OFFCURVE",
"384 -144 CURVE",
"389 -130 OFFCURVE",
"394 -112 OFFCURVE",
"402 -97 CURVE",
"404 -90 OFFCURVE",
"411 -83 OFFCURVE",
"416 -75 CURVE",
"424 -85 OFFCURVE",
"431 -92 OFFCURVE",
"436 -100 CURVE",
"461 -132 OFFCURVE",
"488 -137 OFFCURVE",
"520 -115 CURVE",
"535 -105 OFFCURVE",
"545 -95 OFFCURVE",
"558 -85 CURVE",
"600 -53 OFFCURVE",
"644 -33 OFFCURVE",
"699 -60 CURVE",
"701 -53 OFFCURVE",
"704 -45 OFFCURVE",
"704 -36 CURVE",
"714 -6 OFFCURVE",
"731 19 OFFCURVE",
"753 41 CURVE",
"766 56 OFFCURVE",
"778 69 OFFCURVE",
"790 83 CURVE",
"793 88 OFFCURVE",
"798 93 OFFCURVE",
"800 101 CURVE",
"813 126 OFFCURVE",
"810 128 OFFCURVE",
"790 148 CURVE",
"768 173 OFFCURVE",
"743 195 OFFCURVE",
"721 222 CURVE",
"691 254 OFFCURVE",
"684 291 OFFCURVE",
"691 334 CURVE",
"694 351 OFFCURVE",
"696 366 OFFCURVE",
"701 381 CURVE",
"706 408 OFFCURVE",
"719 433 OFFCURVE",
"738 450 CURVE",
"743 455 OFFCURVE",
"746 460 OFFCURVE",
"748 465 CURVE",
"756 480 OFFCURVE",
"751 487 OFFCURVE",
"736 490 CURVE",
"726 490 OFFCURVE",
"714 490 OFFCURVE",
"704 490 CURVE",
"672 490 OFFCURVE",
"637 490 OFFCURVE",
"605 492 CURVE",
"577 492 OFFCURVE",
"555 502 OFFCURVE",
"540 527 CURVE",
"508 507 OFFCURVE",
"473 500 OFFCURVE",
"439 504 CURVE",
"409 509 OFFCURVE",
"382 517 OFFCURVE",
"352 522 CURVE",
"317 529 OFFCURVE",
"285 537 OFFCURVE",
"250 529 CURVE",
"236 527 OFFCURVE",
"231 519 OFFCURVE",
"238 507 CURVE",
"243 497 OFFCURVE",
"248 487 OFFCURVE",
"253 477 CURVE",
"265 452 OFFCURVE",
"260 438 OFFCURVE",
"233 433 CURVE",
"203 428 OFFCURVE",
"171 428 OFFCURVE",
"139 428 CURVE",
"119 425 OFFCURVE",
"97 428 OFFCURVE",
"80 430 CURVE",
"92 420 OFFCURVE",
"109 410 OFFCURVE",
"122 398 CURVE",
"146 371 OFFCURVE",
"144 336 OFFCURVE",
"134 304 CURVE",
"122 257 OFFCURVE",
"94 215 OFFCURVE",
"65 178 CURVE",
"45 150 OFFCURVE",
"20 126 OFFCURVE",
"0 101 CURVE",
"15 106 OFFCURVE",
"32 113 OFFCURVE",
"52 118 CURVE",
"85 126 OFFCURVE",
"117 126 OFFCURVE",
"146 111 CURVE",
"193 83 OFFCURVE",
"213 24 OFFCURVE",
"186 -28 CURVE",
"176 -53 OFFCURVE",
"159 -73 OFFCURVE",
"134 -92 CURVE"
);
}
);
width = 808;
}
);
unicode = F0A7;
},
{
glyphname = uniF0A2;
lastChange = "2018-06-06 20:06:11 +0000";
layers = (
{
layerId = "02376AAC-77FF-49DA-9399-294AF7A35492";
paths = (
{
closed = 1;
nodes = (
"377 654 OFFCURVE",
"721 772 OFFCURVE",
"722 772 CURVE",
"723 772 OFFCURVE",
"729 885 OFFCURVE",
"729 885 CURVE",
"729 889 OFFCURVE",
"395 762 OFFCURVE",
"370 752 CURVE",
"369 752 LINE",
"363 752 OFFCURVE",
"293 709 OFFCURVE",
"293 700 CURVE",
"293 679 OFFCURVE",
"288 139 OFFCURVE",
"287 139 CURVE",
"151 139 OFFCURVE",
"0 32 OFFCURVE",
"0 -68 CURVE",
"0 -133 OFFCURVE",
"28 -154 OFFCURVE",
"122 -154 CURVE",
"251 -154 OFFCURVE",
"364 -15 OFFCURVE",
"364 89 CURVE",
"374 660 LINE"
);
}
);
width = 729;
}
);
unicode = F0A2;
},
{
glyphname = uniF0A8;
lastChange = "2018-06-06 20:06:44 +0000";
layers = (
{
layerId = "02376AAC-77FF-49DA-9399-294AF7A35492";
paths = (
{
closed = 1;
nodes = (
"553 -650 LINE",
"553 -550 LINE",
"336 -605 LINE",
"336 -127 LINE",
"336 -31 OFFCURVE",
"232 98 OFFCURVE",
"112 98 CURVE",
"26 98 OFFCURVE",
"0 80 OFFCURVE",
"0 19 CURVE",
"0 -74 OFFCURVE",
"139 -173 OFFCURVE",
"265 -173 CURVE",
"266 -672 LINE",
"265 -708 LINE"
);
}
);
width = 553;
}
);
unicode = F0A8;
},
{
glyphname = uniE1F3;
lastChange = "2019-03-27 07:58:28 +0000";
layers = (
{
layerId = "02376AAC-77FF-49DA-9399-294AF7A35492";
paths = (
{
closed = 1;
nodes = (
"220 670 OFFCURVE",
"13 600 OFFCURVE",
"0 595 CURVE",
"0 515 LINE",
"335 606 LINE",
"345 438 LINE",
"344 277 OFFCURVE",
"341 128 OFFCURVE",
"340 128 CURVE",
"209 128 OFFCURVE",
"63 23 OFFCURVE",
"63 -73 CURVE",
"63 -137 OFFCURVE",
"90 -156 OFFCURVE",
"182 -156 CURVE",
"304 -156 OFFCURVE",
"414 -21 OFFCURVE",
"414 79 CURVE",
"425 628 LINE",
"417 734 LINE"
);
}
);
width = 425;
}
);
unicode = E1F3;
},
{
glyphname = uniF0A9;
lastChange = "2018-06-26 09:53:45 +0000";
layers = (
{
layerId = "02376AAC-77FF-49DA-9399-294AF7A35492";
paths = (
{
closed = 1;
nodes = (
"341 -124 LINE",
"341 -33 OFFCURVE",
"243 89 OFFCURVE",
"130 89 CURVE",
"48 89 OFFCURVE",
"23 72 OFFCURVE",
"23 14 CURVE",
"23 -73 OFFCURVE",
"155 -168 OFFCURVE",
"275 -168 CURVE",
"276 -641 LINE",
"171 -666 OFFCURVE",
"-2 -710 OFFCURVE",
"0 -710 CURVE",
"1 -710 OFFCURVE",
"3 -808 OFFCURVE",
"3 -810 CURVE",
"3 -813 OFFCURVE",
"369 -714 OFFCURVE",
"347 -704 CURVE",
"346 -704 LINE",
"341 -704 OFFCURVE",
"356 -650 OFFCURVE",
"353 -628 CURVE"
);
},
{
closed = 1;
nodes = (
"278 -640 OFFCURVE",
"273 -641 OFFCURVE",
"276 -641 CURVE"
);
}
);
width = 353;
}
);
unicode = F0A9;
},
{
glyphname = uniF0B0;
lastChange = "2018-06-06 20:11:16 +0000";
layers = (
{
layerId = "02376AAC-77FF-49DA-9399-294AF7A35492";
paths = (
{
closed = 1;
nodes = (
"403 575 OFFCURVE",
"652 692 OFFCURVE",
"712 692 CURVE",
"714 692 OFFCURVE",
"717 793 OFFCURVE",
"717 794 CURVE",
"717 798 OFFCURVE",
"21 567 OFFCURVE",
"0 560 CURVE",
"0 484 LINE",
"313 570 LINE",
"315 494 LINE",
"315 494 LINE",
"322 412 LINE",
"322 412 LINE",
"321 261 OFFCURVE",
"320 120 OFFCURVE",
"319 120 CURVE",
"196 120 OFFCURVE",
"59 22 OFFCURVE",
"59 -68 CURVE",
"59 -128 OFFCURVE",
"83 -146 OFFCURVE",
"169 -146 CURVE",
"285 -146 OFFCURVE",
"388 -20 OFFCURVE",
"388 74 CURVE",
"394 426 LINE",
"398 591 LINE"
);
}
);
width = 717;
}
);
unicode = F0B0;
},
{
glyphname = uniF0B1;
lastChange = "2018-06-06 20:10:50 +0000";
layers = (
{
layerId = "02376AAC-77FF-49DA-9399-294AF7A35492";
paths = (
{
closed = 1;
nodes = (
"430 -603 OFFCURVE",
"667 -541 OFFCURVE",
"731 -541 CURVE",
"733 -541 OFFCURVE",
"736 -648 OFFCURVE",
"736 -651 CURVE",
"736 -653 OFFCURVE",
"21 -862 OFFCURVE",
"0 -853 CURVE",
"0 -773 LINE",
"332 -637 LINE",
"333 -558 LINE",
"333 -558 LINE",
"341 -470 LINE",
"341 -470 LINE",
"340 -310 OFFCURVE",
"339 -161 OFFCURVE",
"337 -161 CURVE",
"208 -161 OFFCURVE",
"63 -58 OFFCURVE",
"63 37 CURVE",
"63 101 OFFCURVE",
"89 120 OFFCURVE",
"180 120 CURVE",
"302 120 OFFCURVE",
"411 -14 OFFCURVE",
"411 -113 CURVE",
"417 -485 LINE",
"426 -620 LINE"
);
}
);
width = 736;
}
);
unicode = F0B1;
},
{
glyphname = uniF0A4;
lastChange = "2018-06-06 20:05:24 +0000";
layers = (
{
layerId = "02376AAC-77FF-49DA-9399-294AF7A35492";
paths = (
{
closed = 1;
nodes = (
"385 480 OFFCURVE",
"732 599 OFFCURVE",
"734 599 CURVE",
"734 599 OFFCURVE",
"738 711 OFFCURVE",
"738 712 CURVE",
"738 716 OFFCURVE",
"402 589 OFFCURVE",
"379 579 CURVE",
"375 578 LINE",
"377 669 LINE",
"382 651 OFFCURVE",
"660 782 OFFCURVE",
"727 782 CURVE",
"728 782 OFFCURVE",
"733 894 OFFCURVE",
"733 897 CURVE",
"733 899 OFFCURVE",
"396 771 OFFCURVE",
"373 763 CURVE",
"371 762 LINE",
"366 762 OFFCURVE",
"296 718 OFFCURVE",
"296 711 CURVE",
"296 688 OFFCURVE",
"291 146 OFFCURVE",
"289 146 CURVE",
"152 146 OFFCURVE",
"0 37 OFFCURVE",
"0 -63 CURVE",
"0 -130 OFFCURVE",
"28 -150 OFFCURVE",
"123 -150 CURVE",
"252 -150 OFFCURVE",
"366 -10 OFFCURVE",
"366 95 CURVE",
"374 486 LINE",
"383 486 LINE"
);
}
);
width = 738;
}
);
unicode = F0A4;
},
{
glyphname = uniF0B3;
lastChange = "2018-06-26 09:54:33 +0000";
layers = (
{
layerId = "02376AAC-77FF-49DA-9399-294AF7A35492";
paths = (
{
closed = 1;
nodes = (
"364 -499 OFFCURVE",
"691 -612 OFFCURVE",
"693 -612 CURVE",
"694 -612 OFFCURVE",
"698 -717 OFFCURVE",
"698 -718 CURVE",
"698 -723 OFFCURVE",
"380 -602 OFFCURVE",
"358 -593 CURVE",
"353 -592 LINE",
"356 -678 LINE",
"362 -662 OFFCURVE",
"625 -785 OFFCURVE",
"686 -785 CURVE",
"688 -785 OFFCURVE",
"692 -890 OFFCURVE",
"692 -893 CURVE",
"692 -896 OFFCURVE",
"374 -775 OFFCURVE",
"353 -767 CURVE",
"351 -766 LINE",
"345 -766 OFFCURVE",
"279 -724 OFFCURVE",
"279 -717 CURVE",
"279 -697 OFFCURVE",
"275 -183 OFFCURVE",
"272 -183 CURVE",
"143 -183 OFFCURVE",
"0 -81 OFFCURVE",
"0 15 CURVE",
"0 77 OFFCURVE",
"26 96 OFFCURVE",
"117 96 CURVE",
"238 96 OFFCURVE",
"346 -36 OFFCURVE",
"346 -136 CURVE",
"353 -505 LINE",
"363 -505 LINE"
);
}
);
width = 698;
}
);
unicode = F0B3;
},
{
glyphname = uniE1F5;
lastChange = "2019-03-27 07:58:28 +0000";
layers = (
{
layerId = "02376AAC-77FF-49DA-9399-294AF7A35492";
paths = (
{
closed = 1;
nodes = (
"321 666 OFFCURVE",
"326 665 OFFCURVE",
"324 665 CURVE"
);
},
{
closed = 1;
nodes = (
"324 584 LINE",
"323 594 OFFCURVE",
"5 682 OFFCURVE",
"5 678 CURVE",
"5 676 OFFCURVE",
"1 568 OFFCURVE",
"0 568 CURVE",
"-1 568 OFFCURVE",
"194 517 OFFCURVE",
"309 489 CURVE",
"324 489 LINE",
"323 136 LINE",
"189 136 OFFCURVE",
"41 30 OFFCURVE",
"41 -67 CURVE",
"41 -132 OFFCURVE",
"69 -153 OFFCURVE",
"161 -153 CURVE",
"287 -153 OFFCURVE",
"398 -14 OFFCURVE",
"398 87 CURVE",
"411 652 LINE",
"415 674 OFFCURVE",
"398 737 OFFCURVE",
"403 737 CURVE",
"404 738 LINE",
"428 746 OFFCURVE",
"19 858 OFFCURVE",
"19 854 CURVE",
"19 853 OFFCURVE",
"15 744 OFFCURVE",
"14 744 CURVE",
"13 744 OFFCURVE",
"208 693 OFFCURVE",
"324 665 CURVE",
"324 584 LINE"
);
}
);
width = 412;
}
);
unicode = E1F5;
},
{
glyphname = uniF0B4;
lastChange = "2018-06-06 20:10:17 +0000";
layers = (
{
layerId = "02376AAC-77FF-49DA-9399-294AF7A35492";
paths = (
{
closed = 1;
nodes = (
"193 -657 OFFCURVE",
"12 -704 OFFCURVE",
"13 -704 CURVE",
"14 -704 OFFCURVE",
"18 -806 OFFCURVE",
"18 -807 CURVE",
"18 -810 OFFCURVE",
"398 -706 OFFCURVE",
"375 -698 CURVE",
"374 -697 LINE",
"370 -697 OFFCURVE",
"385 -639 OFFCURVE",
"382 -618 CURVE",
"370 -92 LINE",
"370 2 OFFCURVE",
"267 130 OFFCURVE",
"149 130 CURVE",
"63 130 OFFCURVE",
"37 110 OFFCURVE",
"37 51 CURVE",
"37 -39 OFFCURVE",
"175 -139 OFFCURVE",
"300 -139 CURVE",
"301 -466 LINE",
"287 -466 LINE",
"180 -493 OFFCURVE",
"-1 -540 OFFCURVE",
"0 -540 CURVE",
"1 -540 OFFCURVE",
"4 -641 OFFCURVE",
"4 -642 CURVE",
"4 -647 OFFCURVE",
"300 -565 OFFCURVE",
"301 -555 CURVE",
"301 -555 LINE",
"301 -631 LINE"
);
},
{
closed = 1;
nodes = (
"302 -631 OFFCURVE",
"298 -632 OFFCURVE",
"301 -631 CURVE"
);
}
);
width = 382;
}
);
unicode = F0B4;
},
{
glyphname = uniF0B2;
lastChange = "2018-06-06 20:09:02 +0000";
layers = (
{
layerId = "02376AAC-77FF-49DA-9399-294AF7A35492";
paths = (
{
closed = 1;
nodes = (
"338 275 OFFCURVE",
"336 128 OFFCURVE",
"335 128 CURVE",
"206 128 OFFCURVE",
"62 25 OFFCURVE",
"62 -70 CURVE",
"62 -133 OFFCURVE",
"88 -152 OFFCURVE",
"178 -152 CURVE",
"300 -152 OFFCURVE",
"408 -19 OFFCURVE",
"408 79 CURVE",
"415 448 LINE",
"424 448 LINE",
"425 442 OFFCURVE",
"683 531 OFFCURVE",
"684 531 CURVE",
"685 531 OFFCURVE",
"642 618 OFFCURVE",
"642 620 CURVE",
"642 623 OFFCURVE",
"442 545 OFFCURVE",
"420 536 CURVE",
"416 535 LINE",
"418 620 LINE",
"423 604 OFFCURVE",
"685 727 OFFCURVE",
"748 727 CURVE",
"749 727 OFFCURVE",
"754 833 OFFCURVE",
"754 835 CURVE",
"754 838 OFFCURVE",
"22 596 OFFCURVE",
"0 588 CURVE",
"0 509 LINE",
"329 598 LINE",
"331 520 LINE",
"136 469 LINE",
"97 375 LINE",
"340 433 LINE"
);
}
);
width = 754;
}
);
unicode = F0B2;
},
{
glyphname = uniF0B5;
lastChange = "2018-06-06 20:09:51 +0000";
layers = (
{
layerId = "02376AAC-77FF-49DA-9399-294AF7A35492";
paths = (
{
closed = 1;
nodes = (
"352 -335 OFFCURVE",
"347 -159 OFFCURVE",
"346 -159 CURVE",
"212 -159 OFFCURVE",
"64 -52 OFFCURVE",
"64 45 CURVE",
"64 109 OFFCURVE",
"91 129 OFFCURVE",
"185 129 CURVE",
"310 129 OFFCURVE",
"421 -8 OFFCURVE",
"421 -109 CURVE",
"429 -490 LINE",
"437 -490 LINE",
"439 -485 OFFCURVE",
"691 -440 OFFCURVE",
"692 -440 CURVE",
"693 -440 OFFCURVE",
"649 -530 OFFCURVE",
"649 -532 CURVE",
"649 -536 OFFCURVE",
"460 -578 OFFCURVE",
"433 -581 CURVE",
"430 -580 LINE",
"431 -669 LINE",
"437 -651 OFFCURVE",
"694 -642 OFFCURVE",
"758 -642 CURVE",
"760 -642 OFFCURVE",
"764 -752 OFFCURVE",
"764 -755 CURVE",
"764 -758 OFFCURVE",
"23 -825 OFFCURVE",
"0 -817 CURVE",
"0 -735 LINE",
"343 -676 LINE",
"341 -592 LINE",
"103 -639 LINE",
"66 -547 LINE",
"354 -496 LINE"
);
}
);
width = 764;
}
);
unicode = F0B5;
},
{
glyphname = uniE934_uniE93F;
lastChange = "2019-03-26 07:37:27 +0000";
layers = (
{
hints = (
{
horizontal = 1;
place = "{-141, 32}";
type = Stem;
},
{
horizontal = 1;
place = "{109, 32}";
type = Stem;
},
{
place = "{0, 32}";
type = Stem;
},
{
place = "{300, 32}";
type = Stem;
}
);
layerId = "02376AAC-77FF-49DA-9399-294AF7A35492";
paths = (
{
closed = 1;
nodes = (
"3 275 OFFCURVE",
"77 211 OFFCURVE",
"77 207 CURVE SMOOTH",
"77 205 OFFCURVE",
"77 165 OFFCURVE",
"78 107 CURVE",
"104 126 OFFCURVE",
"146 135 OFFCURVE",
"200 135 CURVE SMOOTH",
"264 135 OFFCURVE",
"318 98 OFFCURVE",
"352 52 CURVE",
"351 180 OFFCURVE",
"351 270 OFFCURVE",
"352 270 CURVE SMOOTH",
"355 270 OFFCURVE",
"428 206 OFFCURVE",
"428 202 CURVE SMOOTH",
"428 196 OFFCURVE",
"434 -850 OFFCURVE",
"428 -850 CURVE SMOOTH",
"425 -850 OFFCURVE",
"360 -807 OFFCURVE",
"360 -803 CURVE SMOOTH",
"360 -800 OFFCURVE",
"356 -443 OFFCURVE",
"353 -142 CURVE",
"328 -171 OFFCURVE",
"290 -190 OFFCURVE",
"247 -190 CURVE SMOOTH",
"159 -190 OFFCURVE",
"108 -162 OFFCURVE",
"79 -121 CURVE",
"80 -226 OFFCURVE",
"79 -316 OFFCURVE",
"77 -316 CURVE SMOOTH",
"74 -316 OFFCURVE",
"9 -273 OFFCURVE",
"9 -269 CURVE SMOOTH",
"9 -264 OFFCURVE",
"-4 275 OFFCURVE",
"1 275 CURVE SMOOTH"
);
}
);
width = 431;
}
);
note = uniE934_uniE93F;
unicode = F570;
},
{
glyphname = uniE934_uniE93E;
lastChange = "2019-03-26 07:37:06 +0000";
layers = (
{
hints = (
{
horizontal = 1;
place = "{-141, 282}";
type = Stem;
},
{
place = "{750, 32}";
type = Stem;
}
);
layerId = "02376AAC-77FF-49DA-9399-294AF7A35492";
paths = (
{
closed = 1;
nodes = (
"363 714 OFFCURVE",
"303 660 OFFCURVE",
"303 657 CURVE SMOOTH",
"303 654 OFFCURVE",
"301 336 OFFCURVE",
"300 81 CURVE",
"277 102 OFFCURVE",
"243 117 OFFCURVE",
"205 117 CURVE SMOOTH",
"142 117 OFFCURVE",
"93 92 OFFCURVE",
"63 54 CURVE",
"65 166 OFFCURVE",
"67 269 OFFCURVE",
"64 269 CURVE SMOOTH",
"62 269 OFFCURVE",
"3 216 OFFCURVE",
"3 212 CURVE SMOOTH",
"3 207 OFFCURVE",
"-3 -228 OFFCURVE",
"2 -228 CURVE SMOOTH",
"5 -228 OFFCURVE",
"57 -193 OFFCURVE",
"57 -188 CURVE SMOOTH",
"57 -187 OFFCURVE",
"58 -162 OFFCURVE",
"59 -124 CURVE",
"78 -147 OFFCURVE",
"109 -164 OFFCURVE",
"161 -164 CURVE SMOOTH",
"231 -164 OFFCURVE",
"275 -136 OFFCURVE",
"300 -99 CURVE",
"300 -178 OFFCURVE",
"301 -229 OFFCURVE",
"303 -229 CURVE SMOOTH",
"305 -229 OFFCURVE",
"358 -194 OFFCURVE",
"358 -190 CURVE SMOOTH",
"358 -186 OFFCURVE",
"369 714 OFFCURVE",
"364 714 CURVE SMOOTH"
);
}
);
width = 365;
}
);
note = uniE934_uniE93E;
unicode = F572;
},
{
glyphname = uniE938_uniE94B;
lastChange = "2019-03-26 12:26:01 +0000";
layers = (
{
hints = (
{
horizontal = 1;
place = "{-141, 32}";
type = Stem;
},
{
horizontal = 1;
place = "{109, 32}";
type = Stem;
},
{
place = "{0, 32}";
type = Stem;
},
{
place = "{301, 32}";
type = Stem;
}
);
layerId = "02376AAC-77FF-49DA-9399-294AF7A35492";
paths = (
{
closed = 1;
nodes = (
"473 736 OFFCURVE",
"445 781 OFFCURVE",
"415 824 CURVE",
"386 867 OFFCURVE",
"367 888 OFFCURVE",
"360 888 CURVE",
"353 888 OFFCURVE",
"338 882 OFFCURVE",
"315 870 CURVE",
"292 858 OFFCURVE",
"281 848 OFFCURVE",
"281 840 CURVE",
"281 829 OFFCURVE",
"282 689 OFFCURVE",
"285 419 CURVE",
"286 304 OFFCURVE",
"287 213 OFFCURVE",
"288 146 CURVE",
"274 152 OFFCURVE",
"258 154 OFFCURVE",
"240 154 CURVE",
"187 153 OFFCURVE",
"135 134 OFFCURVE",
"84 97 CURVE",
"28 56 OFFCURVE",
"0 10 OFFCURVE",
"0 -41 CURVE",
"0 -68 OFFCURVE",
"13 -90 OFFCURVE",
"39 -105 CURVE",
"64 -120 OFFCURVE",
"96 -127 OFFCURVE",
"134 -127 CURVE",
"158 -127 OFFCURVE",
"182 -123 OFFCURVE",
"207 -115 CURVE",
"232 -106 OFFCURVE",
"252 -98 OFFCURVE",
"268 -90 CURVE",
"283 -82 OFFCURVE",
"334 -50 OFFCURVE",
"334 -50 CURVE",
"337 157 LINE",
"337 166 OFFCURVE",
"334 179 OFFCURVE",
"333 194 CURVE",
"333 245 LINE",
"333 305 LINE",
"333 369 LINE",
"333 430 LINE",
"333 481 LINE",
"333 518 LINE",
"334 532 LINE",
"334 533 OFFCURVE",
"342 525 OFFCURVE",
"358 508 CURVE",
"375 491 OFFCURVE",
"391 473 OFFCURVE",
"407 454 CURVE",
"423 435 OFFCURVE",
"431 424 OFFCURVE",
"431 421 CURVE",
"431 414 LINE",
"431 410 OFFCURVE",
"431 406 OFFCURVE",
"430 402 CURVE",
"430 390 LINE",
"430 379 LINE",
"431 376 OFFCURVE",
"432 375 OFFCURVE",
"433 375 CURVE",
"437 375 OFFCURVE",
"446 386 OFFCURVE",
"461 407 CURVE",
"476 428 OFFCURVE",
"484 442 OFFCURVE",
"484 451 CURVE",
"484 460 OFFCURVE",
"459 500 OFFCURVE",
"409 570 CURVE",
"359 639 OFFCURVE",
"334 674 OFFCURVE",
"334 675 CURVE",
"334 780 LINE",
"338 779 OFFCURVE",
"366 744 OFFCURVE",
"418 675 CURVE",
"470 606 OFFCURVE",
"496 571 OFFCURVE",
"496 568 CURVE",
"496 567 OFFCURVE",
"495 563 OFFCURVE",
"493 557 CURVE",
"492 550 OFFCURVE",
"491 545 OFFCURVE",
"490 541 CURVE",
"489 537 OFFCURVE",
"490 534 OFFCURVE",
"492 533 CURVE",
"496 533 OFFCURVE",
"505 541 OFFCURVE",
"519 557 CURVE",
"533 572 OFFCURVE",
"540 585 OFFCURVE",
"540 595 CURVE",
"540 608 OFFCURVE",
"527 639 OFFCURVE",
"500 688 CURVE"
);
}
);
width = 540;
}
);
note = uniE938_uniE94B;
unicode = F56A;
},
{
glyphname = uniE938_uniE94C;
lastChange = "2019-03-26 12:25:56 +0000";
layers = (
{
hints = (
{
horizontal = 1;
place = "{-141, 32}";
type = Stem;
},
{
horizontal = 1;
place = "{109, 32}";
type = Stem;
},
{
place = "{0, 32}";
type = Stem;
},
{
place = "{171, 162}";
type = Stem;
},
{
place = "{301, 32}";
type = Stem;
}
);
layerId = "02376AAC-77FF-49DA-9399-294AF7A35492";
paths = (
{
closed = 1;
nodes = (
"0 -82 OFFCURVE",
"13 -104 OFFCURVE",
"39 -119 CURVE SMOOTH",
"64 -134 OFFCURVE",
"96 -141 OFFCURVE",
"134 -141 CURVE SMOOTH",
"158 -141 OFFCURVE",
"182 -137 OFFCURVE",
"207 -129 CURVE",
"232 -120 OFFCURVE",
"252 -112 OFFCURVE",
"268 -104 CURVE",
"293 -92 LINE",
"294 -92 OFFCURVE",
"294 -96 OFFCURVE",
"295 -105 CURVE",
"295 -114 OFFCURVE",
"295 -126 OFFCURVE",
"296 -141 CURVE",
"296 -192 LINE",
"296 -252 LINE",
"296 -316 LINE",
"296 -377 LINE",
"296 -428 LINE",
"296 -465 LINE",
"295 -479 LINE",
"295 -480 OFFCURVE",
"287 -472 OFFCURVE",
"271 -455 CURVE SMOOTH",
"254 -438 OFFCURVE",
"238 -420 OFFCURVE",
"222 -401 CURVE SMOOTH",
"206 -382 OFFCURVE",
"198 -371 OFFCURVE",
"198 -368 CURVE SMOOTH",
"198 -361 LINE SMOOTH",
"198 -357 OFFCURVE",
"198 -353 OFFCURVE",
"199 -349 CURVE",
"199 -337 LINE",
"199 -326 LINE",
"198 -323 OFFCURVE",
"197 -322 OFFCURVE",
"196 -322 CURVE SMOOTH",
"192 -322 OFFCURVE",
"183 -333 OFFCURVE",
"168 -354 CURVE SMOOTH",
"153 -375 OFFCURVE",
"145 -389 OFFCURVE",
"145 -398 CURVE SMOOTH",
"145 -407 OFFCURVE",
"170 -447 OFFCURVE",
"220 -517 CURVE SMOOTH",
"270 -586 OFFCURVE",
"295 -621 OFFCURVE",
"295 -622 CURVE SMOOTH",
"295 -727 LINE",
"291 -726 OFFCURVE",
"263 -691 OFFCURVE",
"211 -622 CURVE SMOOTH",
"159 -553 OFFCURVE",
"133 -518 OFFCURVE",
"133 -515 CURVE SMOOTH",
"133 -514 OFFCURVE",
"134 -510 OFFCURVE",
"136 -504 CURVE",
"137 -497 OFFCURVE",
"138 -492 OFFCURVE",
"139 -488 CURVE SMOOTH",
"140 -484 OFFCURVE",
"139 -481 OFFCURVE",
"137 -480 CURVE",
"133 -480 OFFCURVE",
"124 -488 OFFCURVE",
"110 -504 CURVE SMOOTH",
"96 -519 OFFCURVE",
"89 -532 OFFCURVE",
"89 -542 CURVE SMOOTH",
"89 -555 OFFCURVE",
"102 -586 OFFCURVE",
"129 -635 CURVE SMOOTH",
"156 -683 OFFCURVE",
"184 -728 OFFCURVE",
"214 -771 CURVE SMOOTH",
"243 -814 OFFCURVE",
"262 -835 OFFCURVE",
"269 -835 CURVE SMOOTH",
"276 -835 OFFCURVE",
"291 -829 OFFCURVE",
"314 -817 CURVE SMOOTH",
"337 -805 OFFCURVE",
"348 -795 OFFCURVE",
"348 -787 CURVE SMOOTH",
"348 -776 OFFCURVE",
"347 -636 OFFCURVE",
"344 -366 CURVE SMOOTH",
"341 -96 OFFCURVE",
"339 41 OFFCURVE",
"339 45 CURVE SMOOTH",
"339 55 OFFCURVE",
"338 64 OFFCURVE",
"337 73 CURVE",
"327 118 OFFCURVE",
"295 140 OFFCURVE",
"240 140 CURVE SMOOTH",
"187 139 OFFCURVE",
"135 120 OFFCURVE",
"84 83 CURVE SMOOTH",
"28 42 OFFCURVE",
"0 -4 OFFCURVE",
"0 -55 CURVE SMOOTH"
);
}
);
width = 348;
}
);
note = uniE938_uniE94C;
unicode = F569;
},
{
glyphname = uniE938_uniE94A;
lastChange = "2019-03-27 09:57:21 +0000";
layers = (
{
guideLines = (
{
position = "{342, 170}";
},
{
position = "{455, -929}";
}
);
layerId = "02376AAC-77FF-49DA-9399-294AF7A35492";
paths = (
{
closed = 1;
nodes = (
"491 179 OFFCURVE",
"376 155 OFFCURVE",
"300 110 CURVE",
"244 75 OFFCURVE",
"209 18 OFFCURVE",
"205 -30 CURVE",
"205 -30 OFFCURVE",
"205 -30 OFFCURVE",
"205 -30 CURVE",
"205 -36 OFFCURVE",
"193 -733 OFFCURVE",
"193 -752 CURVE",
"193 -775 OFFCURVE",
"78 -628 OFFCURVE",
"78 -604 CURVE",
"78 -591 OFFCURVE",
"125 -548 OFFCURVE",
"139 -540 CURVE",
"151 -534 OFFCURVE",
"120 -533 OFFCURVE",
"98 -542 CURVE",
"67 -554 OFFCURVE",
"0 -621 OFFCURVE",
"0 -657 CURVE",
"0 -704 OFFCURVE",
"182 -924 OFFCURVE",
"207 -923 CURVE",
"232 -921 OFFCURVE",
"270 -892 OFFCURVE",
"270 -853 CURVE",
"270 -832 OFFCURVE",
"263 -231 OFFCURVE",
"263 -116 CURVE",
"300 -131 OFFCURVE",
"357 -131 OFFCURVE",
"433 -92 CURVE",
"561 -26 OFFCURVE",
"579 71 OFFCURVE",
"527 133 CURVE"
);
}
);
width = 554;
}
);
note = uniE961;
unicode = F5A5;
},
{
glyphname = uniE938_uniE949;
lastChange = "2019-03-27 09:57:29 +0000";
layers = (
{
layerId = "02376AAC-77FF-49DA-9399-294AF7A35492";
paths = (
{
closed = 1;
nodes = (
"340 136 LINE",
"306 427 OFFCURVE",
"290 643 OFFCURVE",
"280 754 CURVE",
"289 753 OFFCURVE",
"312 721 OFFCURVE",
"349 659 CURVE",
"387 596 OFFCURVE",
"407 560 OFFCURVE",
"408 549 CURVE",
"408 548 OFFCURVE",
"408 546 OFFCURVE",
"408 545 CURVE",
"407 537 OFFCURVE",
"400 526 OFFCURVE",
"388 512 CURVE",
"383 506 OFFCURVE",
"383 504 OFFCURVE",
"389 505 CURVE",
"412 507 OFFCURVE",
"430 518 OFFCURVE",
"443 536 CURVE",
"457 556 OFFCURVE",
"464 568 OFFCURVE",
"463 578 CURVE",
"461 590 OFFCURVE",
"446 626 OFFCURVE",
"416 685 CURVE",
"387 745 OFFCURVE",
"355 802 OFFCURVE",
"321 858 CURVE",
"288 913 OFFCURVE",
"267 940 OFFCURVE",
"258 939 CURVE",
"252 938 OFFCURVE",
"240 926 OFFCURVE",
"226 902 CURVE",
"212 877 OFFCURVE",
"205 860 OFFCURVE",
"206 851 CURVE",
"206 845 OFFCURVE",
"208 825 OFFCURVE",
"212 788 CURVE",
"214 751 OFFCURVE",
"219 707 OFFCURVE",
"223 655 CURVE",
"227 603 OFFCURVE",
"232 546 OFFCURVE",
"237 484 CURVE",
"242 421 OFFCURVE",
"248 359 OFFCURVE",
"253 300 CURVE",
"258 245 OFFCURVE",
"246 355 OFFCURVE",
"268 135 CURVE",
"275 68 LINE",
"247 87 OFFCURVE",
"216 100 OFFCURVE",
"184 110 CURVE",
"152 120 OFFCURVE",
"121 122 OFFCURVE",
"92 119 CURVE",
"84 118 OFFCURVE",
"75 116 OFFCURVE",
"65 113 CURVE",
"56 109 OFFCURVE",
"45 104 OFFCURVE",
"35 98 CURVE",
"23 92 OFFCURVE",
"14 82 OFFCURVE",
"8 70 CURVE",
"1 58 OFFCURVE",
"-1 43 OFFCURVE",
"0 26 CURVE",
"3 1 OFFCURVE",
"15 -21 OFFCURVE",
"37 -45 CURVE",
"58 -69 OFFCURVE",
"83 -87 OFFCURVE",
"112 -102 CURVE",
"140 -118 OFFCURVE",
"168 -129 OFFCURVE",
"196 -137 CURVE",
"224 -146 OFFCURVE",
"246 -149 OFFCURVE",
"262 -148 CURVE",
"275 -147 OFFCURVE",
"289 -142 OFFCURVE",
"305 -135 CURVE",
"319 -126 OFFCURVE",
"333 -114 OFFCURVE",
"344 -97 CURVE",
"355 -79 OFFCURVE",
"361 -60 OFFCURVE",
"358 -38 CURVE",
"359 -36 OFFCURVE",
"358 -20 OFFCURVE",
"355 9 CURVE"
);
}
);
width = 463;
}
);
note = uniE961;
unicode = F5A6;
},
{
glyphname = uniE911;
lastChange = "2019-03-25 21:17:53 +0000";
layers = (
{
hints = (
{
horizontal = 1;
place = "{-266, 48}";
type = Stem;
},
{
horizontal = 1;
place = "{217, 48}";
type = Stem;
},
{
place = "{1, 48}";
type = Stem;
},
{
place = "{484, 48}";
type = Stem;
}
);
layerId = "02376AAC-77FF-49DA-9399-294AF7A35492";
paths = (
{
closed = 1;
nodes = (
"337 -266 OFFCURVE",
"404 -238 OFFCURVE",
"454 -188 CURVE SMOOTH",
"504 -138 OFFCURVE",
"532 -71 OFFCURVE",
"532 0 CURVE SMOOTH",
"532 70 OFFCURVE",
"504 137 OFFCURVE",
"454 187 CURVE SMOOTH",
"404 237 OFFCURVE",
"337 265 OFFCURVE",
"266 265 CURVE SMOOTH",
"196 265 OFFCURVE",
"129 237 OFFCURVE",
"79 187 CURVE SMOOTH",
"29 137 OFFCURVE",
"1 70 OFFCURVE",
"1 0 CURVE SMOOTH",
"1 -71 OFFCURVE",
"29 -138 OFFCURVE",
"79 -188 CURVE SMOOTH",
"129 -238 OFFCURVE",
"196 -266 OFFCURVE",
"266 -266 CURVE SMOOTH"
);
},
{
closed = 1;
nodes = (
"324 217 OFFCURVE",
"379 194 OFFCURVE",
"420 153 CURVE SMOOTH",
"461 112 OFFCURVE",
"484 58 OFFCURVE",
"484 0 CURVE SMOOTH",
"484 -58 OFFCURVE",
"461 -113 OFFCURVE",
"420 -154 CURVE SMOOTH",
"379 -195 OFFCURVE",
"324 -218 OFFCURVE",
"266 -218 CURVE SMOOTH",
"208 -218 OFFCURVE",
"154 -195 OFFCURVE",
"113 -154 CURVE SMOOTH",
"72 -113 OFFCURVE",
"49 -58 OFFCURVE",
"49 0 CURVE SMOOTH",
"49 58 OFFCURVE",
"72 112 OFFCURVE",
"113 153 CURVE SMOOTH",
"154 194 OFFCURVE",
"208 217 OFFCURVE",
"266 217 CURVE SMOOTH"
);
}
);
width = 532;
}
);
note = uniE911;
unicode = E911;
},
{
glyphname = uniE939_uniE93E;
lastChange = "2019-03-27 17:39:06 +0000";
layers = (
{
layerId = "02376AAC-77FF-49DA-9399-294AF7A35492";
paths = (
{
closed = 1;
nodes = (
"296 -7 OFFCURVE",
"294 14 OFFCURVE",
"291 51 CURVE SMOOTH",
"289 88 OFFCURVE",
"284 138 OFFCURVE",
"279 199 CURVE SMOOTH",
"274 260 OFFCURVE",
"269 317 OFFCURVE",
"264 375 CURVE SMOOTH",
"260 432 OFFCURVE",
"255 481 OFFCURVE",
"252 523 CURVE SMOOTH",
"249 566 OFFCURVE",
"246 587 OFFCURVE",
"246 588 CURVE SMOOTH",
"246 595 OFFCURVE",
"240 609 OFFCURVE",
"232 630 CURVE",
"222 650 OFFCURVE",
"214 661 OFFCURVE",
"209 660 CURVE SMOOTH",
"205 660 OFFCURVE",
"206 564 OFFCURVE",
"214 371 CURVE SMOOTH",
"224 84 LINE",
"223 84 OFFCURVE",
"215 88 OFFCURVE",
"202 96 CURVE SMOOTH",
"187 104 OFFCURVE",
"168 113 OFFCURVE",
"142 119 CURVE SMOOTH",
"117 127 OFFCURVE",
"92 130 OFFCURVE",
"65 127 CURVE SMOOTH",
"47 126 OFFCURVE",
"32 117 OFFCURVE",
"21 101 CURVE SMOOTH",
"8 84 OFFCURVE",
"2 61 OFFCURVE",
"5 32 CURVE SMOOTH",
"7 7 OFFCURVE",
"16 -17 OFFCURVE",
"33 -40 CURVE SMOOTH",
"50 -63 OFFCURVE",
"71 -81 OFFCURVE",
"94 -96 CURVE SMOOTH",
"117 -110 OFFCURVE",
"142 -120 OFFCURVE",
"165 -127 CURVE SMOOTH",
"188 -135 OFFCURVE",
"208 -138 OFFCURVE",
"223 -137 CURVE SMOOTH",
"247 -135 OFFCURVE",
"263 -130 OFFCURVE",
"274 -120 CURVE",
"285 -113 OFFCURVE",
"291 -99 OFFCURVE",
"295 -83 CURVE SMOOTH",
"297 -67 OFFCURVE",
"297 -42 OFFCURVE",
"296 -11 CURVE"
);
},
{
closed = 1;
nodes = (
"159 91 OFFCURVE",
"184 80 OFFCURVE",
"211 55 CURVE SMOOTH",
"238 30 OFFCURVE",
"253 4 OFFCURVE",
"254 -20 CURVE SMOOTH",
"256 -41 OFFCURVE",
"252 -62 OFFCURVE",
"240 -81 CURVE SMOOTH",
"228 -99 OFFCURVE",
"214 -108 OFFCURVE",
"198 -110 CURVE SMOOTH",
"175 -111 OFFCURVE",
"148 -100 OFFCURVE",
"119 -76 CURVE SMOOTH",
"88 -50 OFFCURVE",
"72 -24 OFFCURVE",
"70 6 CURVE SMOOTH",
"69 30 OFFCURVE",
"74 49 OFFCURVE",
"86 64 CURVE SMOOTH",
"99 80 OFFCURVE",
"116 89 OFFCURVE",
"140 90 CURVE SMOOTH"
);
}
);
width = 303;
}
);
note = uniE95F;
unicode = F5A1;
},
{
glyphname = uniE939_uniE93F;
lastChange = "2019-03-27 10:02:45 +0000";
layers = (
{
layerId = "02376AAC-77FF-49DA-9399-294AF7A35492";
paths = (
{
closed = 1;
nodes = (
"317 144 OFFCURVE",
"237 147 OFFCURVE",
"135 107 CURVE",
"35 71 OFFCURVE",
"-3 7 OFFCURVE",
"0 -39 CURVE",
"0 -113 OFFCURVE",
"10 -584 OFFCURVE",
"21 -582 CURVE",
"31 -582 OFFCURVE",
"80 -558 OFFCURVE",
"86 -538 CURVE",
"91 -523 OFFCURVE",
"73 -203 OFFCURVE",
"67 -105 CURVE",
"110 -116 OFFCURVE",
"170 -111 OFFCURVE",
"251 -78 CURVE",
"376 -27 OFFCURVE",
"397 66 OFFCURVE",
"352 109 CURVE"
);
},
{
closed = 1;
nodes = (
"143 -88 OFFCURVE",
"89 -73 OFFCURVE",
"67 -37 CURVE",
"50 -8 OFFCURVE",
"80 42 OFFCURVE",
"134 71 CURVE",
"200 107 OFFCURVE",
"260 106 OFFCURVE",
"287 76 CURVE",
"328 28 OFFCURVE",
"287 -27 OFFCURVE",
"213 -58 CURVE"
);
}
);
width = 374;
}
);
note = u;
unicode = F59B;
},
{
glyphname = uniE939_uniE949;
lastChange = "2019-03-27 10:03:04 +0000";
layers = (
{
layerId = "02376AAC-77FF-49DA-9399-294AF7A35492";
paths = (
{
closed = 1;
nodes = (
"305 881 OFFCURVE",
"273 902 OFFCURVE",
"266 904 CURVE",
"265 842 OFFCURVE",
"263 779 OFFCURVE",
"259 717 CURVE",
"260 600 OFFCURVE",
"264 382 OFFCURVE",
"271 63 CURVE",
"246 83 OFFCURVE",
"218 99 OFFCURVE",
"187 112 CURVE",
"156 124 OFFCURVE",
"127 130 OFFCURVE",
"98 130 CURVE",
"90 130 OFFCURVE",
"81 129 OFFCURVE",
"72 127 CURVE",
"62 124 OFFCURVE",
"51 120 OFFCURVE",
"40 115 CURVE",
"29 110 OFFCURVE",
"19 101 OFFCURVE",
"12 90 CURVE",
"4 78 OFFCURVE",
"0 64 OFFCURVE",
"0 47 CURVE",
"0 23 OFFCURVE",
"9 -1 OFFCURVE",
"29 -26 CURVE",
"48 -51 OFFCURVE",
"70 -72 OFFCURVE",
"96 -90 CURVE",
"122 -107 OFFCURVE",
"148 -122 OFFCURVE",
"175 -133 CURVE",
"201 -144 OFFCURVE",
"222 -149 OFFCURVE",
"238 -149 CURVE",
"261 -149 OFFCURVE",
"284 -140 OFFCURVE",
"308 -123 CURVE",
"331 -106 OFFCURVE",
"343 -81 OFFCURVE",
"343 -50 CURVE",
"344 -50 OFFCURVE",
"343 19 OFFCURVE",
"342 157 CURVE",
"340 294 OFFCURVE",
"338 437 OFFCURVE",
"336 586 CURVE",
"335 609 OFFCURVE",
"335 631 OFFCURVE",
"334 651 CURVE",
"343 644 OFFCURVE",
"361 611 OFFCURVE",
"386 553 CURVE",
"415 488 OFFCURVE",
"430 449 OFFCURVE",
"430 438 CURVE",
"430 429 OFFCURVE",
"422 418 OFFCURVE",
"409 403 CURVE",
"405 398 OFFCURVE",
"405 396 OFFCURVE",
"409 396 CURVE",
"421 396 OFFCURVE",
"431 399 OFFCURVE",
"441 404 CURVE",
"451 409 OFFCURVE",
"458 416 OFFCURVE",
"464 424 CURVE",
"470 431 OFFCURVE",
"475 439 OFFCURVE",
"478 446 CURVE",
"481 453 OFFCURVE",
"483 458 OFFCURVE",
"483 461 CURVE",
"483 474 OFFCURVE",
"472 511 OFFCURVE",
"450 572 CURVE",
"428 634 OFFCURVE",
"405 693 OFFCURVE",
"379 752 CURVE",
"354 809 OFFCURVE",
"331 862 OFFCURVE",
"322 862 CURVE"
);
},
{
closed = 1;
nodes = (
"253 -106 OFFCURVE",
"233 -115 OFFCURVE",
"208 -115 CURVE",
"185 -115 OFFCURVE",
"154 -102 OFFCURVE",
"117 -75 CURVE",
"79 -48 OFFCURVE",
"60 -22 OFFCURVE",
"60 3 CURVE",
"60 24 OFFCURVE",
"68 41 OFFCURVE",
"83 56 CURVE",
"98 71 OFFCURVE",
"123 78 OFFCURVE",
"156 78 CURVE",
"174 78 OFFCURVE",
"193 74 OFFCURVE",
"212 67 CURVE",
"231 59 OFFCURVE",
"249 46 OFFCURVE",
"265 29 CURVE",
"280 12 OFFCURVE",
"288 -8 OFFCURVE",
"288 -30 CURVE",
"288 -51 OFFCURVE",
"281 -70 OFFCURVE",
"267 -88 CURVE"
);
}
);
width = 483;
}
);
note = v;
unicode = F5AA;
},
{
glyphname = uniE939_uniE94A;
lastChange = "2019-03-27 10:03:18 +0000";
layers = (
{
layerId = "02376AAC-77FF-49DA-9399-294AF7A35492";
paths = (
{
closed = 1;
nodes = (
"343 71 OFFCURVE",
"331 96 OFFCURVE",
"308 113 CURVE SMOOTH",
"284 130 OFFCURVE",
"261 139 OFFCURVE",
"238 139 CURVE SMOOTH",
"222 139 OFFCURVE",
"201 134 OFFCURVE",
"175 123 CURVE SMOOTH",
"148 112 OFFCURVE",
"122 97 OFFCURVE",
"96 80 CURVE SMOOTH",
"70 62 OFFCURVE",
"48 41 OFFCURVE",
"29 16 CURVE SMOOTH",
"9 -9 OFFCURVE",
"0 -33 OFFCURVE",
"0 -57 CURVE SMOOTH",
"0 -74 OFFCURVE",
"4 -88 OFFCURVE",
"12 -100 CURVE SMOOTH",
"19 -111 OFFCURVE",
"29 -120 OFFCURVE",
"40 -125 CURVE SMOOTH",
"51 -130 OFFCURVE",
"62 -134 OFFCURVE",
"72 -137 CURVE",
"81 -139 OFFCURVE",
"90 -140 OFFCURVE",
"98 -140 CURVE SMOOTH",
"127 -140 OFFCURVE",
"156 -134 OFFCURVE",
"187 -122 CURVE SMOOTH",
"218 -109 OFFCURVE",
"246 -93 OFFCURVE",
"271 -73 CURVE",
"264 -396 OFFCURVE",
"260 -616 OFFCURVE",
"259 -731 CURVE",
"250 -730 OFFCURVE",
"227 -697 OFFCURVE",
"192 -632 CURVE SMOOTH",
"156 -567 OFFCURVE",
"138 -529 OFFCURVE",
"138 -518 CURVE SMOOTH",
"138 -509 OFFCURVE",
"147 -498 OFFCURVE",
"164 -483 CURVE",
"169 -478 OFFCURVE",
"169 -476 OFFCURVE",
"163 -476 CURVE SMOOTH",
"149 -476 OFFCURVE",
"136 -479 OFFCURVE",
"124 -484 CURVE SMOOTH",
"112 -489 OFFCURVE",
"103 -496 OFFCURVE",
"96 -504 CURVE",
"89 -511 OFFCURVE",
"83 -519 OFFCURVE",
"79 -526 CURVE SMOOTH",
"75 -533 OFFCURVE",
"73 -538 OFFCURVE",
"73 -541 CURVE SMOOTH",
"73 -553 OFFCURVE",
"86 -590 OFFCURVE",
"113 -651 CURVE SMOOTH",
"140 -712 OFFCURVE",
"169 -771 OFFCURVE",
"200 -829 CURVE SMOOTH",
"231 -886 OFFCURVE",
"252 -915 OFFCURVE",
"263 -915 CURVE SMOOTH",
"270 -915 OFFCURVE",
"284 -904 OFFCURVE",
"303 -882 CURVE SMOOTH",
"322 -859 OFFCURVE",
"332 -843 OFFCURVE",
"332 -834 CURVE SMOOTH",
"332 -823 OFFCURVE",
"333 -744 OFFCURVE",
"336 -596 CURVE SMOOTH",
"338 -447 OFFCURVE",
"340 -304 OFFCURVE",
"342 -167 CURVE SMOOTH",
"343 -29 OFFCURVE",
"344 40 OFFCURVE",
"343 40 CURVE"
);
},
{
closed = 1;
nodes = (
"123 -88 OFFCURVE",
"98 -81 OFFCURVE",
"83 -66 CURVE SMOOTH",
"68 -51 OFFCURVE",
"60 -34 OFFCURVE",
"60 -13 CURVE SMOOTH",
"60 12 OFFCURVE",
"79 38 OFFCURVE",
"117 65 CURVE SMOOTH",
"154 92 OFFCURVE",
"185 105 OFFCURVE",
"208 105 CURVE SMOOTH",
"233 105 OFFCURVE",
"253 96 OFFCURVE",
"267 78 CURVE SMOOTH",
"281 60 OFFCURVE",
"288 41 OFFCURVE",
"288 20 CURVE SMOOTH",
"288 -2 OFFCURVE",
"280 -22 OFFCURVE",
"265 -39 CURVE SMOOTH",
"249 -56 OFFCURVE",
"231 -69 OFFCURVE",
"212 -77 CURVE",
"193 -84 OFFCURVE",
"174 -88 OFFCURVE",
"156 -88 CURVE SMOOTH"
);
}
);
width = 347;
}
);
note = v;
unicode = F5A9;
},
{
glyphname = uniE939_uniE94B;
lastChange = "2019-03-27 10:03:50 +0000";
layers = (
{
layerId = "02376AAC-77FF-49DA-9399-294AF7A35492";
paths = (
{
closed = 1;
nodes = (
"473 736 OFFCURVE",
"445 781 OFFCURVE",
"415 824 CURVE",
"386 867 OFFCURVE",
"367 888 OFFCURVE",
"360 888 CURVE",
"353 888 OFFCURVE",
"338 882 OFFCURVE",
"315 870 CURVE",
"292 858 OFFCURVE",
"281 848 OFFCURVE",
"281 840 CURVE",
"281 829 OFFCURVE",
"282 689 OFFCURVE",
"285 419 CURVE",
"286 304 OFFCURVE",
"287 213 OFFCURVE",
"288 146 CURVE",
"274 152 OFFCURVE",
"258 154 OFFCURVE",
"240 154 CURVE",
"187 153 OFFCURVE",
"135 134 OFFCURVE",
"84 97 CURVE",
"28 56 OFFCURVE",
"0 10 OFFCURVE",
"0 -41 CURVE",
"0 -68 OFFCURVE",
"13 -90 OFFCURVE",
"39 -105 CURVE",
"64 -120 OFFCURVE",
"96 -127 OFFCURVE",
"134 -127 CURVE",
"158 -127 OFFCURVE",
"182 -123 OFFCURVE",
"207 -115 CURVE",
"232 -106 OFFCURVE",
"252 -98 OFFCURVE",
"268 -90 CURVE",
"283 -82 OFFCURVE",
"292 -78 OFFCURVE",
"293 -78 CURVE",
"293 -78 OFFCURVE",
"334 -50 OFFCURVE",
"334 -50 CURVE",
"337 157 LINE",
"337 166 OFFCURVE",
"334 179 OFFCURVE",
"333 194 CURVE",
"333 245 LINE",
"333 305 LINE",
"333 369 LINE",
"333 430 LINE",
"333 481 LINE",
"333 518 LINE",
"334 532 LINE",
"334 533 OFFCURVE",
"342 525 OFFCURVE",
"358 508 CURVE",
"375 491 OFFCURVE",
"391 473 OFFCURVE",
"407 454 CURVE",
"423 435 OFFCURVE",
"431 424 OFFCURVE",
"431 421 CURVE",
"431 414 LINE",
"431 410 OFFCURVE",
"431 406 OFFCURVE",
"430 402 CURVE",
"430 390 LINE",
"430 379 LINE",
"431 376 OFFCURVE",
"432 375 OFFCURVE",
"433 375 CURVE",
"437 375 OFFCURVE",
"446 386 OFFCURVE",
"461 407 CURVE",
"476 428 OFFCURVE",
"484 442 OFFCURVE",
"484 451 CURVE",
"484 460 OFFCURVE",
"459 500 OFFCURVE",
"409 570 CURVE",
"359 639 OFFCURVE",
"334 674 OFFCURVE",
"334 675 CURVE",
"334 780 LINE",
"338 779 OFFCURVE",
"366 744 OFFCURVE",
"418 675 CURVE",
"470 606 OFFCURVE",
"496 571 OFFCURVE",
"496 568 CURVE",
"496 567 OFFCURVE",
"495 563 OFFCURVE",
"493 557 CURVE",
"492 550 OFFCURVE",
"491 545 OFFCURVE",
"490 541 CURVE",
"489 537 OFFCURVE",
"490 534 OFFCURVE",
"492 533 CURVE",
"496 533 OFFCURVE",
"505 541 OFFCURVE",
"519 557 CURVE",
"533 572 OFFCURVE",
"540 585 OFFCURVE",
"540 595 CURVE",
"540 608 OFFCURVE",
"527 639 OFFCURVE",
"500 688 CURVE"
);
},
{
closed = 1;
nodes = (
"231 -59 OFFCURVE",
"217 -65 OFFCURVE",
"203 -69 CURVE",
"188 -72 OFFCURVE",
"174 -74 OFFCURVE",
"161 -74 CURVE",
"132 -74 OFFCURVE",
"109 -68 OFFCURVE",
"91 -55 CURVE",
"73 -42 OFFCURVE",
"64 -25 OFFCURVE",
"64 -5 CURVE",
"64 15 OFFCURVE",
"70 33 OFFCURVE",
"82 50 CURVE",
"93 67 OFFCURVE",
"108 79 OFFCURVE",
"125 88 CURVE",
"142 97 OFFCURVE",
"158 104 OFFCURVE",
"174 109 CURVE",
"190 114 OFFCURVE",
"204 116 OFFCURVE",
"216 116 CURVE",
"237 116 OFFCURVE",
"256 109 OFFCURVE",
"271 95 CURVE",
"279 87 OFFCURVE",
"285 77 OFFCURVE",
"289 65 CURVE",
"289 28 OFFCURVE",
"290 9 OFFCURVE",
"290 8 CURVE",
"290 7 OFFCURVE",
"290 6 OFFCURVE",
"290 6 CURVE",
"287 -3 OFFCURVE",
"284 -11 OFFCURVE",
"280 -18 CURVE",
"271 -32 OFFCURVE",
"259 -43 OFFCURVE",
"245 -51 CURVE"
);
}
);
width = 540;
}
);
note = w;
unicode = F56E;
},
{
glyphname = uniE939_uniE94C;
lastChange = "2019-03-27 10:04:12 +0000";
layers = (
{
layerId = "02376AAC-77FF-49DA-9399-294AF7A35492";
paths = (
{
closed = 1;
nodes = (
"0 -82 OFFCURVE",
"13 -104 OFFCURVE",
"39 -119 CURVE SMOOTH",
"64 -134 OFFCURVE",
"96 -141 OFFCURVE",
"134 -141 CURVE SMOOTH",
"158 -141 OFFCURVE",
"182 -137 OFFCURVE",
"207 -129 CURVE",
"232 -120 OFFCURVE",
"252 -112 OFFCURVE",
"268 -104 CURVE SMOOTH",
"283 -96 OFFCURVE",
"292 -92 OFFCURVE",
"293 -92 CURVE SMOOTH",
"294 -92 OFFCURVE",
"294 -96 OFFCURVE",
"295 -105 CURVE",
"295 -114 OFFCURVE",
"295 -126 OFFCURVE",
"296 -141 CURVE",
"296 -192 LINE",
"296 -252 LINE",
"296 -316 LINE",
"296 -377 LINE",
"296 -428 LINE",
"296 -465 LINE",
"295 -479 LINE",
"295 -480 OFFCURVE",
"287 -472 OFFCURVE",
"271 -455 CURVE SMOOTH",
"254 -438 OFFCURVE",
"238 -420 OFFCURVE",
"222 -401 CURVE SMOOTH",
"206 -382 OFFCURVE",
"198 -371 OFFCURVE",
"198 -368 CURVE SMOOTH",
"198 -361 LINE SMOOTH",
"198 -357 OFFCURVE",
"198 -353 OFFCURVE",
"199 -349 CURVE",
"199 -337 LINE",
"199 -326 LINE",
"198 -323 OFFCURVE",
"197 -322 OFFCURVE",
"196 -322 CURVE SMOOTH",
"192 -322 OFFCURVE",
"183 -333 OFFCURVE",
"168 -354 CURVE SMOOTH",
"153 -375 OFFCURVE",
"145 -389 OFFCURVE",
"145 -398 CURVE SMOOTH",
"145 -407 OFFCURVE",
"170 -447 OFFCURVE",
"220 -517 CURVE SMOOTH",
"270 -586 OFFCURVE",
"295 -621 OFFCURVE",
"295 -622 CURVE SMOOTH",
"295 -727 LINE",
"291 -726 OFFCURVE",
"263 -691 OFFCURVE",
"211 -622 CURVE SMOOTH",
"159 -553 OFFCURVE",
"133 -518 OFFCURVE",
"133 -515 CURVE SMOOTH",
"133 -514 OFFCURVE",
"134 -510 OFFCURVE",
"136 -504 CURVE",
"137 -497 OFFCURVE",
"138 -492 OFFCURVE",
"139 -488 CURVE SMOOTH",
"140 -484 OFFCURVE",
"139 -481 OFFCURVE",
"137 -480 CURVE",
"133 -480 OFFCURVE",
"124 -488 OFFCURVE",
"110 -504 CURVE SMOOTH",
"96 -519 OFFCURVE",
"89 -532 OFFCURVE",
"89 -542 CURVE SMOOTH",
"89 -555 OFFCURVE",
"102 -586 OFFCURVE",
"129 -635 CURVE SMOOTH",
"156 -683 OFFCURVE",
"184 -728 OFFCURVE",
"214 -771 CURVE SMOOTH",
"243 -814 OFFCURVE",
"262 -835 OFFCURVE",
"269 -835 CURVE SMOOTH",
"276 -835 OFFCURVE",
"291 -829 OFFCURVE",
"314 -817 CURVE SMOOTH",
"337 -805 OFFCURVE",
"348 -795 OFFCURVE",
"348 -787 CURVE SMOOTH",
"348 -776 OFFCURVE",
"347 -636 OFFCURVE",
"344 -366 CURVE SMOOTH",
"341 -96 OFFCURVE",
"339 41 OFFCURVE",
"339 45 CURVE SMOOTH",
"339 55 OFFCURVE",
"338 64 OFFCURVE",
"337 73 CURVE",
"327 118 OFFCURVE",
"295 140 OFFCURVE",
"240 140 CURVE SMOOTH",
"187 139 OFFCURVE",
"135 120 OFFCURVE",
"84 83 CURVE SMOOTH",
"28 42 OFFCURVE",
"0 -4 OFFCURVE",
"0 -55 CURVE SMOOTH"
);
},
{
closed = 1;
nodes = (
"132 -88 OFFCURVE",
"109 -82 OFFCURVE",
"91 -69 CURVE SMOOTH",
"73 -56 OFFCURVE",
"64 -39 OFFCURVE",
"64 -19 CURVE SMOOTH",
"64 1 OFFCURVE",
"70 19 OFFCURVE",
"82 36 CURVE",
"93 53 OFFCURVE",
"108 65 OFFCURVE",
"125 74 CURVE SMOOTH",
"142 83 OFFCURVE",
"158 90 OFFCURVE",
"174 95 CURVE SMOOTH",
"190 100 OFFCURVE",
"204 102 OFFCURVE",
"216 102 CURVE SMOOTH",
"237 102 OFFCURVE",
"256 95 OFFCURVE",
"271 81 CURVE SMOOTH",
"286 67 OFFCURVE",
"293 46 OFFCURVE",
"293 19 CURVE SMOOTH",
"293 0 OFFCURVE",
"289 -17 OFFCURVE",
"280 -32 CURVE SMOOTH",
"271 -46 OFFCURVE",
"259 -57 OFFCURVE",
"245 -65 CURVE SMOOTH",
"231 -73 OFFCURVE",
"217 -79 OFFCURVE",
"203 -83 CURVE",
"188 -86 OFFCURVE",
"174 -88 OFFCURVE",
"161 -88 CURVE SMOOTH"
);
}
